G04 #@! TF.GenerationSoftware,KiCad,Pcbnew,8.0.4*
G04 #@! TF.CreationDate,2024-10-13T21:39:06+03:00*
G04 #@! TF.ProjectId,4040,34303430-2e6b-4696-9361-645f70636258,rev?*
G04 #@! TF.SameCoordinates,Original*
G04 #@! TF.FileFunction,Legend,Bot*
G04 #@! TF.FilePolarity,Positive*
%FSLAX46Y46*%
G04 Gerber Fmt 4.6, Leading zero omitted, Abs format (unit mm)*
G04 Created by KiCad (PCBNEW 8.0.4) date 2024-10-13 21:39:06*
%MOMM*%
%LPD*%
G01*
G04 APERTURE LIST*
G04 Aperture macros list*
%AMRoundRect*
0 Rectangle with rounded corners*
0 $1 Rounding radius*
0 $2 $3 $4 $5 $6 $7 $8 $9 X,Y pos of 4 corners*
0 Add a 4 corners polygon primitive as box body*
4,1,4,$2,$3,$4,$5,$6,$7,$8,$9,$2,$3,0*
0 Add four circle primitives for the rounded corners*
1,1,$1+$1,$2,$3*
1,1,$1+$1,$4,$5*
1,1,$1+$1,$6,$7*
1,1,$1+$1,$8,$9*
0 Add four rect primitives between the rounded corners*
20,1,$1+$1,$2,$3,$4,$5,0*
20,1,$1+$1,$4,$5,$6,$7,0*
20,1,$1+$1,$6,$7,$8,$9,0*
20,1,$1+$1,$8,$9,$2,$3,0*%
%AMHorizOval*
0 Thick line with rounded ends*
0 $1 width*
0 $2 $3 position (X,Y) of the first rounded end (center of the circle)*
0 $4 $5 position (X,Y) of the second rounded end (center of the circle)*
0 Add line between two ends*
20,1,$1,$2,$3,$4,$5,0*
0 Add two circle primitives to create the rounded ends*
1,1,$1,$2,$3*
1,1,$1,$4,$5*%
%AMRotRect*
0 Rectangle, with rotation*
0 The origin of the aperture is its center*
0 $1 length*
0 $2 width*
0 $3 Rotation angle, in degrees counterclockwise*
0 Add horizontal line*
21,1,$1,$2,0,0,$3*%
G04 Aperture macros list end*
%ADD10C,0.150000*%
%ADD11C,0.120000*%
%ADD12C,1.750000*%
%ADD13C,3.987800*%
%ADD14HorizOval,2.250000X0.655001X0.730000X-0.655001X-0.730000X0*%
%ADD15C,2.250000*%
%ADD16HorizOval,2.250000X0.020000X0.290000X-0.020000X-0.290000X0*%
%ADD17C,3.048000*%
%ADD18R,1.800000X1.800000*%
%ADD19O,1.800000X1.800000*%
%ADD20R,1.500000X0.900000*%
%ADD21RotRect,1.500000X0.550000X315.000000*%
%ADD22RotRect,1.500000X0.550000X225.000000*%
%ADD23RotRect,1.500000X1.100000X45.000000*%
%ADD24RoundRect,0.150000X-0.512500X-0.150000X0.512500X-0.150000X0.512500X0.150000X-0.512500X0.150000X0*%
%ADD25C,0.650000*%
%ADD26R,1.450000X0.600000*%
%ADD27R,1.450000X0.300000*%
%ADD28O,1.600000X1.000000*%
%ADD29O,2.100000X1.000000*%
%ADD30RoundRect,0.250000X-0.250000X-0.475000X0.250000X-0.475000X0.250000X0.475000X-0.250000X0.475000X0*%
%ADD31RoundRect,0.250000X0.159099X-0.512652X0.512652X-0.159099X-0.159099X0.512652X-0.512652X0.159099X0*%
%ADD32RoundRect,0.250000X0.375000X0.625000X-0.375000X0.625000X-0.375000X-0.625000X0.375000X-0.625000X0*%
%ADD33RoundRect,0.250000X0.132583X-0.503814X0.503814X-0.132583X-0.132583X0.503814X-0.503814X0.132583X0*%
%ADD34RoundRect,0.250000X-0.450000X0.262500X-0.450000X-0.262500X0.450000X-0.262500X0.450000X0.262500X0*%
%ADD35RoundRect,0.250000X0.262500X0.450000X-0.262500X0.450000X-0.262500X-0.450000X0.262500X-0.450000X0*%
%ADD36RotRect,1.400000X1.200000X135.000000*%
G04 APERTURE END LIST*
D10*
X80090019Y-83281405D02*
X79090019Y-83281405D01*
X79090019Y-83281405D02*
X79090019Y-83519500D01*
X79090019Y-83519500D02*
X79137638Y-83662357D01*
X79137638Y-83662357D02*
X79232876Y-83757595D01*
X79232876Y-83757595D02*
X79328114Y-83805214D01*
X79328114Y-83805214D02*
X79518590Y-83852833D01*
X79518590Y-83852833D02*
X79661447Y-83852833D01*
X79661447Y-83852833D02*
X79851923Y-83805214D01*
X79851923Y-83805214D02*
X79947161Y-83757595D01*
X79947161Y-83757595D02*
X80042400Y-83662357D01*
X80042400Y-83662357D02*
X80090019Y-83519500D01*
X80090019Y-83519500D02*
X80090019Y-83281405D01*
X80090019Y-84805214D02*
X80090019Y-84233786D01*
X80090019Y-84519500D02*
X79090019Y-84519500D01*
X79090019Y-84519500D02*
X79232876Y-84424262D01*
X79232876Y-84424262D02*
X79328114Y-84329024D01*
X79328114Y-84329024D02*
X79375733Y-84233786D01*
X79520019Y-87567595D02*
X78520019Y-87567595D01*
X79520019Y-88139023D02*
X78948590Y-87710452D01*
X78520019Y-88139023D02*
X79091447Y-87567595D01*
X306906466Y-80662819D02*
X306906466Y-79662819D01*
X306906466Y-80139009D02*
X306335038Y-80139009D01*
X306335038Y-80662819D02*
X306335038Y-79662819D01*
X305382657Y-80662819D02*
X305858847Y-80662819D01*
X305858847Y-80662819D02*
X305858847Y-79662819D01*
X304620752Y-79662819D02*
X304811228Y-79662819D01*
X304811228Y-79662819D02*
X304906466Y-79710438D01*
X304906466Y-79710438D02*
X304954085Y-79758057D01*
X304954085Y-79758057D02*
X305049323Y-79900914D01*
X305049323Y-79900914D02*
X305096942Y-80091390D01*
X305096942Y-80091390D02*
X305096942Y-80472342D01*
X305096942Y-80472342D02*
X305049323Y-80567580D01*
X305049323Y-80567580D02*
X305001704Y-80615200D01*
X305001704Y-80615200D02*
X304906466Y-80662819D01*
X304906466Y-80662819D02*
X304715990Y-80662819D01*
X304715990Y-80662819D02*
X304620752Y-80615200D01*
X304620752Y-80615200D02*
X304573133Y-80567580D01*
X304573133Y-80567580D02*
X304525514Y-80472342D01*
X304525514Y-80472342D02*
X304525514Y-80234247D01*
X304525514Y-80234247D02*
X304573133Y-80139009D01*
X304573133Y-80139009D02*
X304620752Y-80091390D01*
X304620752Y-80091390D02*
X304715990Y-80043771D01*
X304715990Y-80043771D02*
X304906466Y-80043771D01*
X304906466Y-80043771D02*
X305001704Y-80091390D01*
X305001704Y-80091390D02*
X305049323Y-80139009D01*
X305049323Y-80139009D02*
X305096942Y-80234247D01*
X301304085Y-78762819D02*
X301875513Y-78762819D01*
X301589799Y-78762819D02*
X301589799Y-77762819D01*
X301589799Y-77762819D02*
X301685037Y-77905676D01*
X301685037Y-77905676D02*
X301780275Y-78000914D01*
X301780275Y-78000914D02*
X301875513Y-78048533D01*
X334572619Y-82805214D02*
X333572619Y-82805214D01*
X333572619Y-82805214D02*
X333572619Y-83043309D01*
X333572619Y-83043309D02*
X333620238Y-83186166D01*
X333620238Y-83186166D02*
X333715476Y-83281404D01*
X333715476Y-83281404D02*
X333810714Y-83329023D01*
X333810714Y-83329023D02*
X334001190Y-83376642D01*
X334001190Y-83376642D02*
X334144047Y-83376642D01*
X334144047Y-83376642D02*
X334334523Y-83329023D01*
X334334523Y-83329023D02*
X334429761Y-83281404D01*
X334429761Y-83281404D02*
X334525000Y-83186166D01*
X334525000Y-83186166D02*
X334572619Y-83043309D01*
X334572619Y-83043309D02*
X334572619Y-82805214D01*
X334572619Y-84329023D02*
X334572619Y-83757595D01*
X334572619Y-84043309D02*
X333572619Y-84043309D01*
X333572619Y-84043309D02*
X333715476Y-83948071D01*
X333715476Y-83948071D02*
X333810714Y-83852833D01*
X333810714Y-83852833D02*
X333858333Y-83757595D01*
X333905952Y-85186166D02*
X334572619Y-85186166D01*
X333525000Y-84948071D02*
X334239285Y-84709976D01*
X334239285Y-84709976D02*
X334239285Y-85329023D01*
X334002619Y-87567595D02*
X333002619Y-87567595D01*
X334002619Y-88139023D02*
X333431190Y-87710452D01*
X333002619Y-88139023D02*
X333574047Y-87567595D01*
X299139619Y-101855214D02*
X298139619Y-101855214D01*
X298139619Y-101855214D02*
X298139619Y-102093309D01*
X298139619Y-102093309D02*
X298187238Y-102236166D01*
X298187238Y-102236166D02*
X298282476Y-102331404D01*
X298282476Y-102331404D02*
X298377714Y-102379023D01*
X298377714Y-102379023D02*
X298568190Y-102426642D01*
X298568190Y-102426642D02*
X298711047Y-102426642D01*
X298711047Y-102426642D02*
X298901523Y-102379023D01*
X298901523Y-102379023D02*
X298996761Y-102331404D01*
X298996761Y-102331404D02*
X299092000Y-102236166D01*
X299092000Y-102236166D02*
X299139619Y-102093309D01*
X299139619Y-102093309D02*
X299139619Y-101855214D01*
X298234857Y-102807595D02*
X298187238Y-102855214D01*
X298187238Y-102855214D02*
X298139619Y-102950452D01*
X298139619Y-102950452D02*
X298139619Y-103188547D01*
X298139619Y-103188547D02*
X298187238Y-103283785D01*
X298187238Y-103283785D02*
X298234857Y-103331404D01*
X298234857Y-103331404D02*
X298330095Y-103379023D01*
X298330095Y-103379023D02*
X298425333Y-103379023D01*
X298425333Y-103379023D02*
X298568190Y-103331404D01*
X298568190Y-103331404D02*
X299139619Y-102759976D01*
X299139619Y-102759976D02*
X299139619Y-103379023D01*
X298139619Y-104236166D02*
X298139619Y-104045690D01*
X298139619Y-104045690D02*
X298187238Y-103950452D01*
X298187238Y-103950452D02*
X298234857Y-103902833D01*
X298234857Y-103902833D02*
X298377714Y-103807595D01*
X298377714Y-103807595D02*
X298568190Y-103759976D01*
X298568190Y-103759976D02*
X298949142Y-103759976D01*
X298949142Y-103759976D02*
X299044380Y-103807595D01*
X299044380Y-103807595D02*
X299092000Y-103855214D01*
X299092000Y-103855214D02*
X299139619Y-103950452D01*
X299139619Y-103950452D02*
X299139619Y-104140928D01*
X299139619Y-104140928D02*
X299092000Y-104236166D01*
X299092000Y-104236166D02*
X299044380Y-104283785D01*
X299044380Y-104283785D02*
X298949142Y-104331404D01*
X298949142Y-104331404D02*
X298711047Y-104331404D01*
X298711047Y-104331404D02*
X298615809Y-104283785D01*
X298615809Y-104283785D02*
X298568190Y-104236166D01*
X298568190Y-104236166D02*
X298520571Y-104140928D01*
X298520571Y-104140928D02*
X298520571Y-103950452D01*
X298520571Y-103950452D02*
X298568190Y-103855214D01*
X298568190Y-103855214D02*
X298615809Y-103807595D01*
X298615809Y-103807595D02*
X298711047Y-103759976D01*
X298569619Y-106617595D02*
X297569619Y-106617595D01*
X298569619Y-107189023D02*
X297998190Y-106760452D01*
X297569619Y-107189023D02*
X298141047Y-106617595D01*
X165810903Y-143292392D02*
X165238483Y-143864812D01*
X165238483Y-143864812D02*
X165137468Y-143898484D01*
X165137468Y-143898484D02*
X165070124Y-143898484D01*
X165070124Y-143898484D02*
X164969109Y-143864812D01*
X164969109Y-143864812D02*
X164834422Y-143730125D01*
X164834422Y-143730125D02*
X164800750Y-143629110D01*
X164800750Y-143629110D02*
X164800750Y-143561766D01*
X164800750Y-143561766D02*
X164834422Y-143460751D01*
X164834422Y-143460751D02*
X165406842Y-142888331D01*
X165036452Y-142652629D02*
X165036452Y-142585286D01*
X165036452Y-142585286D02*
X165002781Y-142484270D01*
X165002781Y-142484270D02*
X164834422Y-142315912D01*
X164834422Y-142315912D02*
X164733407Y-142282240D01*
X164733407Y-142282240D02*
X164666063Y-142282240D01*
X164666063Y-142282240D02*
X164565048Y-142315912D01*
X164565048Y-142315912D02*
X164497704Y-142383255D01*
X164497704Y-142383255D02*
X164430361Y-142517942D01*
X164430361Y-142517942D02*
X164430361Y-143326064D01*
X164430361Y-143326064D02*
X163992628Y-142888331D01*
X270590019Y-82805214D02*
X269590019Y-82805214D01*
X269590019Y-82805214D02*
X269590019Y-83043309D01*
X269590019Y-83043309D02*
X269637638Y-83186166D01*
X269637638Y-83186166D02*
X269732876Y-83281404D01*
X269732876Y-83281404D02*
X269828114Y-83329023D01*
X269828114Y-83329023D02*
X270018590Y-83376642D01*
X270018590Y-83376642D02*
X270161447Y-83376642D01*
X270161447Y-83376642D02*
X270351923Y-83329023D01*
X270351923Y-83329023D02*
X270447161Y-83281404D01*
X270447161Y-83281404D02*
X270542400Y-83186166D01*
X270542400Y-83186166D02*
X270590019Y-83043309D01*
X270590019Y-83043309D02*
X270590019Y-82805214D01*
X270590019Y-84329023D02*
X270590019Y-83757595D01*
X270590019Y-84043309D02*
X269590019Y-84043309D01*
X269590019Y-84043309D02*
X269732876Y-83948071D01*
X269732876Y-83948071D02*
X269828114Y-83852833D01*
X269828114Y-83852833D02*
X269875733Y-83757595D01*
X270590019Y-85281404D02*
X270590019Y-84709976D01*
X270590019Y-84995690D02*
X269590019Y-84995690D01*
X269590019Y-84995690D02*
X269732876Y-84900452D01*
X269732876Y-84900452D02*
X269828114Y-84805214D01*
X269828114Y-84805214D02*
X269875733Y-84709976D01*
X270020019Y-87567595D02*
X269020019Y-87567595D01*
X270020019Y-88139023D02*
X269448590Y-87710452D01*
X269020019Y-88139023D02*
X269591447Y-87567595D01*
X187236616Y-141707849D02*
X187169273Y-141842536D01*
X187169273Y-141842536D02*
X187000914Y-142010894D01*
X187000914Y-142010894D02*
X186899899Y-142044566D01*
X186899899Y-142044566D02*
X186832555Y-142044566D01*
X186832555Y-142044566D02*
X186731540Y-142010894D01*
X186731540Y-142010894D02*
X186664196Y-141943551D01*
X186664196Y-141943551D02*
X186630525Y-141842536D01*
X186630525Y-141842536D02*
X186630525Y-141775192D01*
X186630525Y-141775192D02*
X186664196Y-141674177D01*
X186664196Y-141674177D02*
X186765212Y-141505818D01*
X186765212Y-141505818D02*
X186798883Y-141404803D01*
X186798883Y-141404803D02*
X186798883Y-141337459D01*
X186798883Y-141337459D02*
X186765212Y-141236444D01*
X186765212Y-141236444D02*
X186697868Y-141169101D01*
X186697868Y-141169101D02*
X186596853Y-141135429D01*
X186596853Y-141135429D02*
X186529509Y-141135429D01*
X186529509Y-141135429D02*
X186428494Y-141169101D01*
X186428494Y-141169101D02*
X186260135Y-141337459D01*
X186260135Y-141337459D02*
X186192792Y-141472146D01*
X185923418Y-141674177D02*
X186462166Y-142549643D01*
X186462166Y-142549643D02*
X185822402Y-142179253D01*
X185822402Y-142179253D02*
X186192792Y-142819017D01*
X186192792Y-142819017D02*
X185317326Y-142280269D01*
X185384670Y-143627138D02*
X185788731Y-143223077D01*
X185586700Y-143425108D02*
X184879594Y-142718001D01*
X184879594Y-142718001D02*
X185047952Y-142751673D01*
X185047952Y-142751673D02*
X185182639Y-142751673D01*
X185182639Y-142751673D02*
X185283655Y-142718001D01*
X68636204Y-91069818D02*
X68636204Y-91879341D01*
X68636204Y-91879341D02*
X68588585Y-91974579D01*
X68588585Y-91974579D02*
X68540966Y-92022199D01*
X68540966Y-92022199D02*
X68445728Y-92069818D01*
X68445728Y-92069818D02*
X68255252Y-92069818D01*
X68255252Y-92069818D02*
X68160014Y-92022199D01*
X68160014Y-92022199D02*
X68112395Y-91974579D01*
X68112395Y-91974579D02*
X68064776Y-91879341D01*
X68064776Y-91879341D02*
X68064776Y-91069818D01*
X67064776Y-92069818D02*
X67636204Y-92069818D01*
X67350490Y-92069818D02*
X67350490Y-91069818D01*
X67350490Y-91069818D02*
X67445728Y-91212675D01*
X67445728Y-91212675D02*
X67540966Y-91307913D01*
X67540966Y-91307913D02*
X67636204Y-91355532D01*
X108690419Y-101855214D02*
X107690419Y-101855214D01*
X107690419Y-101855214D02*
X107690419Y-102093309D01*
X107690419Y-102093309D02*
X107738038Y-102236166D01*
X107738038Y-102236166D02*
X107833276Y-102331404D01*
X107833276Y-102331404D02*
X107928514Y-102379023D01*
X107928514Y-102379023D02*
X108118990Y-102426642D01*
X108118990Y-102426642D02*
X108261847Y-102426642D01*
X108261847Y-102426642D02*
X108452323Y-102379023D01*
X108452323Y-102379023D02*
X108547561Y-102331404D01*
X108547561Y-102331404D02*
X108642800Y-102236166D01*
X108642800Y-102236166D02*
X108690419Y-102093309D01*
X108690419Y-102093309D02*
X108690419Y-101855214D01*
X108690419Y-103379023D02*
X108690419Y-102807595D01*
X108690419Y-103093309D02*
X107690419Y-103093309D01*
X107690419Y-103093309D02*
X107833276Y-102998071D01*
X107833276Y-102998071D02*
X107928514Y-102902833D01*
X107928514Y-102902833D02*
X107976133Y-102807595D01*
X107690419Y-104236166D02*
X107690419Y-104045690D01*
X107690419Y-104045690D02*
X107738038Y-103950452D01*
X107738038Y-103950452D02*
X107785657Y-103902833D01*
X107785657Y-103902833D02*
X107928514Y-103807595D01*
X107928514Y-103807595D02*
X108118990Y-103759976D01*
X108118990Y-103759976D02*
X108499942Y-103759976D01*
X108499942Y-103759976D02*
X108595180Y-103807595D01*
X108595180Y-103807595D02*
X108642800Y-103855214D01*
X108642800Y-103855214D02*
X108690419Y-103950452D01*
X108690419Y-103950452D02*
X108690419Y-104140928D01*
X108690419Y-104140928D02*
X108642800Y-104236166D01*
X108642800Y-104236166D02*
X108595180Y-104283785D01*
X108595180Y-104283785D02*
X108499942Y-104331404D01*
X108499942Y-104331404D02*
X108261847Y-104331404D01*
X108261847Y-104331404D02*
X108166609Y-104283785D01*
X108166609Y-104283785D02*
X108118990Y-104236166D01*
X108118990Y-104236166D02*
X108071371Y-104140928D01*
X108071371Y-104140928D02*
X108071371Y-103950452D01*
X108071371Y-103950452D02*
X108118990Y-103855214D01*
X108118990Y-103855214D02*
X108166609Y-103807595D01*
X108166609Y-103807595D02*
X108261847Y-103759976D01*
X108120419Y-106617595D02*
X107120419Y-106617595D01*
X108120419Y-107189023D02*
X107548990Y-106760452D01*
X107120419Y-107189023D02*
X107691847Y-106617595D01*
X289640019Y-120905214D02*
X288640019Y-120905214D01*
X288640019Y-120905214D02*
X288640019Y-121143309D01*
X288640019Y-121143309D02*
X288687638Y-121286166D01*
X288687638Y-121286166D02*
X288782876Y-121381404D01*
X288782876Y-121381404D02*
X288878114Y-121429023D01*
X288878114Y-121429023D02*
X289068590Y-121476642D01*
X289068590Y-121476642D02*
X289211447Y-121476642D01*
X289211447Y-121476642D02*
X289401923Y-121429023D01*
X289401923Y-121429023D02*
X289497161Y-121381404D01*
X289497161Y-121381404D02*
X289592400Y-121286166D01*
X289592400Y-121286166D02*
X289640019Y-121143309D01*
X289640019Y-121143309D02*
X289640019Y-120905214D01*
X288640019Y-121809976D02*
X288640019Y-122429023D01*
X288640019Y-122429023D02*
X289020971Y-122095690D01*
X289020971Y-122095690D02*
X289020971Y-122238547D01*
X289020971Y-122238547D02*
X289068590Y-122333785D01*
X289068590Y-122333785D02*
X289116209Y-122381404D01*
X289116209Y-122381404D02*
X289211447Y-122429023D01*
X289211447Y-122429023D02*
X289449542Y-122429023D01*
X289449542Y-122429023D02*
X289544780Y-122381404D01*
X289544780Y-122381404D02*
X289592400Y-122333785D01*
X289592400Y-122333785D02*
X289640019Y-122238547D01*
X289640019Y-122238547D02*
X289640019Y-121952833D01*
X289640019Y-121952833D02*
X289592400Y-121857595D01*
X289592400Y-121857595D02*
X289544780Y-121809976D01*
X289068590Y-123000452D02*
X289020971Y-122905214D01*
X289020971Y-122905214D02*
X288973352Y-122857595D01*
X288973352Y-122857595D02*
X288878114Y-122809976D01*
X288878114Y-122809976D02*
X288830495Y-122809976D01*
X288830495Y-122809976D02*
X288735257Y-122857595D01*
X288735257Y-122857595D02*
X288687638Y-122905214D01*
X288687638Y-122905214D02*
X288640019Y-123000452D01*
X288640019Y-123000452D02*
X288640019Y-123190928D01*
X288640019Y-123190928D02*
X288687638Y-123286166D01*
X288687638Y-123286166D02*
X288735257Y-123333785D01*
X288735257Y-123333785D02*
X288830495Y-123381404D01*
X288830495Y-123381404D02*
X288878114Y-123381404D01*
X288878114Y-123381404D02*
X288973352Y-123333785D01*
X288973352Y-123333785D02*
X289020971Y-123286166D01*
X289020971Y-123286166D02*
X289068590Y-123190928D01*
X289068590Y-123190928D02*
X289068590Y-123000452D01*
X289068590Y-123000452D02*
X289116209Y-122905214D01*
X289116209Y-122905214D02*
X289163828Y-122857595D01*
X289163828Y-122857595D02*
X289259066Y-122809976D01*
X289259066Y-122809976D02*
X289449542Y-122809976D01*
X289449542Y-122809976D02*
X289544780Y-122857595D01*
X289544780Y-122857595D02*
X289592400Y-122905214D01*
X289592400Y-122905214D02*
X289640019Y-123000452D01*
X289640019Y-123000452D02*
X289640019Y-123190928D01*
X289640019Y-123190928D02*
X289592400Y-123286166D01*
X289592400Y-123286166D02*
X289544780Y-123333785D01*
X289544780Y-123333785D02*
X289449542Y-123381404D01*
X289449542Y-123381404D02*
X289259066Y-123381404D01*
X289259066Y-123381404D02*
X289163828Y-123333785D01*
X289163828Y-123333785D02*
X289116209Y-123286166D01*
X289116209Y-123286166D02*
X289068590Y-123190928D01*
X289070019Y-125667595D02*
X288070019Y-125667595D01*
X289070019Y-126239023D02*
X288498590Y-125810452D01*
X288070019Y-126239023D02*
X288641447Y-125667595D01*
X270590019Y-134164014D02*
X269590019Y-134164014D01*
X269590019Y-134164014D02*
X269590019Y-134402109D01*
X269590019Y-134402109D02*
X269637638Y-134544966D01*
X269637638Y-134544966D02*
X269732876Y-134640204D01*
X269732876Y-134640204D02*
X269828114Y-134687823D01*
X269828114Y-134687823D02*
X270018590Y-134735442D01*
X270018590Y-134735442D02*
X270161447Y-134735442D01*
X270161447Y-134735442D02*
X270351923Y-134687823D01*
X270351923Y-134687823D02*
X270447161Y-134640204D01*
X270447161Y-134640204D02*
X270542400Y-134544966D01*
X270542400Y-134544966D02*
X270590019Y-134402109D01*
X270590019Y-134402109D02*
X270590019Y-134164014D01*
X269923352Y-135592585D02*
X270590019Y-135592585D01*
X269542400Y-135354490D02*
X270256685Y-135116395D01*
X270256685Y-135116395D02*
X270256685Y-135735442D01*
X269590019Y-136544966D02*
X269590019Y-136354490D01*
X269590019Y-136354490D02*
X269637638Y-136259252D01*
X269637638Y-136259252D02*
X269685257Y-136211633D01*
X269685257Y-136211633D02*
X269828114Y-136116395D01*
X269828114Y-136116395D02*
X270018590Y-136068776D01*
X270018590Y-136068776D02*
X270399542Y-136068776D01*
X270399542Y-136068776D02*
X270494780Y-136116395D01*
X270494780Y-136116395D02*
X270542400Y-136164014D01*
X270542400Y-136164014D02*
X270590019Y-136259252D01*
X270590019Y-136259252D02*
X270590019Y-136449728D01*
X270590019Y-136449728D02*
X270542400Y-136544966D01*
X270542400Y-136544966D02*
X270494780Y-136592585D01*
X270494780Y-136592585D02*
X270399542Y-136640204D01*
X270399542Y-136640204D02*
X270161447Y-136640204D01*
X270161447Y-136640204D02*
X270066209Y-136592585D01*
X270066209Y-136592585D02*
X270018590Y-136544966D01*
X270018590Y-136544966D02*
X269970971Y-136449728D01*
X269970971Y-136449728D02*
X269970971Y-136259252D01*
X269970971Y-136259252D02*
X270018590Y-136164014D01*
X270018590Y-136164014D02*
X270066209Y-136116395D01*
X270066209Y-136116395D02*
X270161447Y-136068776D01*
X270020019Y-138926395D02*
X269020019Y-138926395D01*
X270020019Y-139497823D02*
X269448590Y-139069252D01*
X269020019Y-139497823D02*
X269591447Y-138926395D01*
X78782656Y-80662819D02*
X78782656Y-79662819D01*
X78782656Y-80139009D02*
X78211228Y-80139009D01*
X78211228Y-80662819D02*
X78211228Y-79662819D01*
X77258847Y-80662819D02*
X77735037Y-80662819D01*
X77735037Y-80662819D02*
X77735037Y-79662819D01*
X76401704Y-80662819D02*
X76973132Y-80662819D01*
X76687418Y-80662819D02*
X76687418Y-79662819D01*
X76687418Y-79662819D02*
X76782656Y-79805676D01*
X76782656Y-79805676D02*
X76877894Y-79900914D01*
X76877894Y-79900914D02*
X76973132Y-79948533D01*
X75782656Y-79662819D02*
X75687418Y-79662819D01*
X75687418Y-79662819D02*
X75592180Y-79710438D01*
X75592180Y-79710438D02*
X75544561Y-79758057D01*
X75544561Y-79758057D02*
X75496942Y-79853295D01*
X75496942Y-79853295D02*
X75449323Y-80043771D01*
X75449323Y-80043771D02*
X75449323Y-80281866D01*
X75449323Y-80281866D02*
X75496942Y-80472342D01*
X75496942Y-80472342D02*
X75544561Y-80567580D01*
X75544561Y-80567580D02*
X75592180Y-80615200D01*
X75592180Y-80615200D02*
X75687418Y-80662819D01*
X75687418Y-80662819D02*
X75782656Y-80662819D01*
X75782656Y-80662819D02*
X75877894Y-80615200D01*
X75877894Y-80615200D02*
X75925513Y-80567580D01*
X75925513Y-80567580D02*
X75973132Y-80472342D01*
X75973132Y-80472342D02*
X76020751Y-80281866D01*
X76020751Y-80281866D02*
X76020751Y-80043771D01*
X76020751Y-80043771D02*
X75973132Y-79853295D01*
X75973132Y-79853295D02*
X75925513Y-79758057D01*
X75925513Y-79758057D02*
X75877894Y-79710438D01*
X75877894Y-79710438D02*
X75782656Y-79662819D01*
X72704085Y-78762819D02*
X73275513Y-78762819D01*
X72989799Y-78762819D02*
X72989799Y-77762819D01*
X72989799Y-77762819D02*
X73085037Y-77905676D01*
X73085037Y-77905676D02*
X73180275Y-78000914D01*
X73180275Y-78000914D02*
X73275513Y-78048533D01*
X289640019Y-82805214D02*
X288640019Y-82805214D01*
X288640019Y-82805214D02*
X288640019Y-83043309D01*
X288640019Y-83043309D02*
X288687638Y-83186166D01*
X288687638Y-83186166D02*
X288782876Y-83281404D01*
X288782876Y-83281404D02*
X288878114Y-83329023D01*
X288878114Y-83329023D02*
X289068590Y-83376642D01*
X289068590Y-83376642D02*
X289211447Y-83376642D01*
X289211447Y-83376642D02*
X289401923Y-83329023D01*
X289401923Y-83329023D02*
X289497161Y-83281404D01*
X289497161Y-83281404D02*
X289592400Y-83186166D01*
X289592400Y-83186166D02*
X289640019Y-83043309D01*
X289640019Y-83043309D02*
X289640019Y-82805214D01*
X289640019Y-84329023D02*
X289640019Y-83757595D01*
X289640019Y-84043309D02*
X288640019Y-84043309D01*
X288640019Y-84043309D02*
X288782876Y-83948071D01*
X288782876Y-83948071D02*
X288878114Y-83852833D01*
X288878114Y-83852833D02*
X288925733Y-83757595D01*
X288735257Y-84709976D02*
X288687638Y-84757595D01*
X288687638Y-84757595D02*
X288640019Y-84852833D01*
X288640019Y-84852833D02*
X288640019Y-85090928D01*
X288640019Y-85090928D02*
X288687638Y-85186166D01*
X288687638Y-85186166D02*
X288735257Y-85233785D01*
X288735257Y-85233785D02*
X288830495Y-85281404D01*
X288830495Y-85281404D02*
X288925733Y-85281404D01*
X288925733Y-85281404D02*
X289068590Y-85233785D01*
X289068590Y-85233785D02*
X289640019Y-84662357D01*
X289640019Y-84662357D02*
X289640019Y-85281404D01*
X289070019Y-87567595D02*
X288070019Y-87567595D01*
X289070019Y-88139023D02*
X288498590Y-87710452D01*
X288070019Y-88139023D02*
X288641447Y-87567595D01*
X135456466Y-80662819D02*
X135456466Y-79662819D01*
X135456466Y-80139009D02*
X134885038Y-80139009D01*
X134885038Y-80662819D02*
X134885038Y-79662819D01*
X133932657Y-80662819D02*
X134408847Y-80662819D01*
X134408847Y-80662819D02*
X134408847Y-79662819D01*
X133551704Y-80662819D02*
X133361228Y-80662819D01*
X133361228Y-80662819D02*
X133265990Y-80615200D01*
X133265990Y-80615200D02*
X133218371Y-80567580D01*
X133218371Y-80567580D02*
X133123133Y-80424723D01*
X133123133Y-80424723D02*
X133075514Y-80234247D01*
X133075514Y-80234247D02*
X133075514Y-79853295D01*
X133075514Y-79853295D02*
X133123133Y-79758057D01*
X133123133Y-79758057D02*
X133170752Y-79710438D01*
X133170752Y-79710438D02*
X133265990Y-79662819D01*
X133265990Y-79662819D02*
X133456466Y-79662819D01*
X133456466Y-79662819D02*
X133551704Y-79710438D01*
X133551704Y-79710438D02*
X133599323Y-79758057D01*
X133599323Y-79758057D02*
X133646942Y-79853295D01*
X133646942Y-79853295D02*
X133646942Y-80091390D01*
X133646942Y-80091390D02*
X133599323Y-80186628D01*
X133599323Y-80186628D02*
X133551704Y-80234247D01*
X133551704Y-80234247D02*
X133456466Y-80281866D01*
X133456466Y-80281866D02*
X133265990Y-80281866D01*
X133265990Y-80281866D02*
X133170752Y-80234247D01*
X133170752Y-80234247D02*
X133123133Y-80186628D01*
X133123133Y-80186628D02*
X133075514Y-80091390D01*
X129854085Y-78762819D02*
X130425513Y-78762819D01*
X130139799Y-78762819D02*
X130139799Y-77762819D01*
X130139799Y-77762819D02*
X130235037Y-77905676D01*
X130235037Y-77905676D02*
X130330275Y-78000914D01*
X130330275Y-78000914D02*
X130425513Y-78048533D01*
X175314619Y-120905214D02*
X174314619Y-120905214D01*
X174314619Y-120905214D02*
X174314619Y-121143309D01*
X174314619Y-121143309D02*
X174362238Y-121286166D01*
X174362238Y-121286166D02*
X174457476Y-121381404D01*
X174457476Y-121381404D02*
X174552714Y-121429023D01*
X174552714Y-121429023D02*
X174743190Y-121476642D01*
X174743190Y-121476642D02*
X174886047Y-121476642D01*
X174886047Y-121476642D02*
X175076523Y-121429023D01*
X175076523Y-121429023D02*
X175171761Y-121381404D01*
X175171761Y-121381404D02*
X175267000Y-121286166D01*
X175267000Y-121286166D02*
X175314619Y-121143309D01*
X175314619Y-121143309D02*
X175314619Y-120905214D01*
X174314619Y-121809976D02*
X174314619Y-122429023D01*
X174314619Y-122429023D02*
X174695571Y-122095690D01*
X174695571Y-122095690D02*
X174695571Y-122238547D01*
X174695571Y-122238547D02*
X174743190Y-122333785D01*
X174743190Y-122333785D02*
X174790809Y-122381404D01*
X174790809Y-122381404D02*
X174886047Y-122429023D01*
X174886047Y-122429023D02*
X175124142Y-122429023D01*
X175124142Y-122429023D02*
X175219380Y-122381404D01*
X175219380Y-122381404D02*
X175267000Y-122333785D01*
X175267000Y-122333785D02*
X175314619Y-122238547D01*
X175314619Y-122238547D02*
X175314619Y-121952833D01*
X175314619Y-121952833D02*
X175267000Y-121857595D01*
X175267000Y-121857595D02*
X175219380Y-121809976D01*
X174409857Y-122809976D02*
X174362238Y-122857595D01*
X174362238Y-122857595D02*
X174314619Y-122952833D01*
X174314619Y-122952833D02*
X174314619Y-123190928D01*
X174314619Y-123190928D02*
X174362238Y-123286166D01*
X174362238Y-123286166D02*
X174409857Y-123333785D01*
X174409857Y-123333785D02*
X174505095Y-123381404D01*
X174505095Y-123381404D02*
X174600333Y-123381404D01*
X174600333Y-123381404D02*
X174743190Y-123333785D01*
X174743190Y-123333785D02*
X175314619Y-122762357D01*
X175314619Y-122762357D02*
X175314619Y-123381404D01*
X174744619Y-125667595D02*
X173744619Y-125667595D01*
X174744619Y-126239023D02*
X174173190Y-125810452D01*
X173744619Y-126239023D02*
X174316047Y-125667595D01*
X306906466Y-140337819D02*
X306906466Y-139337819D01*
X306906466Y-139814009D02*
X306335038Y-139814009D01*
X306335038Y-140337819D02*
X306335038Y-139337819D01*
X305382657Y-140337819D02*
X305858847Y-140337819D01*
X305858847Y-140337819D02*
X305858847Y-139337819D01*
X304573133Y-139337819D02*
X305049323Y-139337819D01*
X305049323Y-139337819D02*
X305096942Y-139814009D01*
X305096942Y-139814009D02*
X305049323Y-139766390D01*
X305049323Y-139766390D02*
X304954085Y-139718771D01*
X304954085Y-139718771D02*
X304715990Y-139718771D01*
X304715990Y-139718771D02*
X304620752Y-139766390D01*
X304620752Y-139766390D02*
X304573133Y-139814009D01*
X304573133Y-139814009D02*
X304525514Y-139909247D01*
X304525514Y-139909247D02*
X304525514Y-140147342D01*
X304525514Y-140147342D02*
X304573133Y-140242580D01*
X304573133Y-140242580D02*
X304620752Y-140290200D01*
X304620752Y-140290200D02*
X304715990Y-140337819D01*
X304715990Y-140337819D02*
X304954085Y-140337819D01*
X304954085Y-140337819D02*
X305049323Y-140290200D01*
X305049323Y-140290200D02*
X305096942Y-140242580D01*
X309604085Y-142237819D02*
X310175513Y-142237819D01*
X309889799Y-142237819D02*
X309889799Y-141237819D01*
X309889799Y-141237819D02*
X309985037Y-141380676D01*
X309985037Y-141380676D02*
X310080275Y-141475914D01*
X310080275Y-141475914D02*
X310175513Y-141523533D01*
X84839819Y-134181314D02*
X83839819Y-134181314D01*
X83839819Y-134181314D02*
X83839819Y-134419409D01*
X83839819Y-134419409D02*
X83887438Y-134562266D01*
X83887438Y-134562266D02*
X83982676Y-134657504D01*
X83982676Y-134657504D02*
X84077914Y-134705123D01*
X84077914Y-134705123D02*
X84268390Y-134752742D01*
X84268390Y-134752742D02*
X84411247Y-134752742D01*
X84411247Y-134752742D02*
X84601723Y-134705123D01*
X84601723Y-134705123D02*
X84696961Y-134657504D01*
X84696961Y-134657504D02*
X84792200Y-134562266D01*
X84792200Y-134562266D02*
X84839819Y-134419409D01*
X84839819Y-134419409D02*
X84839819Y-134181314D01*
X84173152Y-135609885D02*
X84839819Y-135609885D01*
X83792200Y-135371790D02*
X84506485Y-135133695D01*
X84506485Y-135133695D02*
X84506485Y-135752742D01*
X83839819Y-136324171D02*
X83839819Y-136419409D01*
X83839819Y-136419409D02*
X83887438Y-136514647D01*
X83887438Y-136514647D02*
X83935057Y-136562266D01*
X83935057Y-136562266D02*
X84030295Y-136609885D01*
X84030295Y-136609885D02*
X84220771Y-136657504D01*
X84220771Y-136657504D02*
X84458866Y-136657504D01*
X84458866Y-136657504D02*
X84649342Y-136609885D01*
X84649342Y-136609885D02*
X84744580Y-136562266D01*
X84744580Y-136562266D02*
X84792200Y-136514647D01*
X84792200Y-136514647D02*
X84839819Y-136419409D01*
X84839819Y-136419409D02*
X84839819Y-136324171D01*
X84839819Y-136324171D02*
X84792200Y-136228933D01*
X84792200Y-136228933D02*
X84744580Y-136181314D01*
X84744580Y-136181314D02*
X84649342Y-136133695D01*
X84649342Y-136133695D02*
X84458866Y-136086076D01*
X84458866Y-136086076D02*
X84220771Y-136086076D01*
X84220771Y-136086076D02*
X84030295Y-136133695D01*
X84030295Y-136133695D02*
X83935057Y-136181314D01*
X83935057Y-136181314D02*
X83887438Y-136228933D01*
X83887438Y-136228933D02*
X83839819Y-136324171D01*
X84269819Y-138943695D02*
X83269819Y-138943695D01*
X84269819Y-139515123D02*
X83698390Y-139086552D01*
X83269819Y-139515123D02*
X83841247Y-138943695D01*
X261065019Y-101855214D02*
X260065019Y-101855214D01*
X260065019Y-101855214D02*
X260065019Y-102093309D01*
X260065019Y-102093309D02*
X260112638Y-102236166D01*
X260112638Y-102236166D02*
X260207876Y-102331404D01*
X260207876Y-102331404D02*
X260303114Y-102379023D01*
X260303114Y-102379023D02*
X260493590Y-102426642D01*
X260493590Y-102426642D02*
X260636447Y-102426642D01*
X260636447Y-102426642D02*
X260826923Y-102379023D01*
X260826923Y-102379023D02*
X260922161Y-102331404D01*
X260922161Y-102331404D02*
X261017400Y-102236166D01*
X261017400Y-102236166D02*
X261065019Y-102093309D01*
X261065019Y-102093309D02*
X261065019Y-101855214D01*
X260160257Y-102807595D02*
X260112638Y-102855214D01*
X260112638Y-102855214D02*
X260065019Y-102950452D01*
X260065019Y-102950452D02*
X260065019Y-103188547D01*
X260065019Y-103188547D02*
X260112638Y-103283785D01*
X260112638Y-103283785D02*
X260160257Y-103331404D01*
X260160257Y-103331404D02*
X260255495Y-103379023D01*
X260255495Y-103379023D02*
X260350733Y-103379023D01*
X260350733Y-103379023D02*
X260493590Y-103331404D01*
X260493590Y-103331404D02*
X261065019Y-102759976D01*
X261065019Y-102759976D02*
X261065019Y-103379023D01*
X260398352Y-104236166D02*
X261065019Y-104236166D01*
X260017400Y-103998071D02*
X260731685Y-103759976D01*
X260731685Y-103759976D02*
X260731685Y-104379023D01*
X260495019Y-106617595D02*
X259495019Y-106617595D01*
X260495019Y-107189023D02*
X259923590Y-106760452D01*
X259495019Y-107189023D02*
X260066447Y-106617595D01*
X65094619Y-88922266D02*
X65808904Y-88922266D01*
X65808904Y-88922266D02*
X65951761Y-88874647D01*
X65951761Y-88874647D02*
X66047000Y-88779409D01*
X66047000Y-88779409D02*
X66094619Y-88636552D01*
X66094619Y-88636552D02*
X66094619Y-88541314D01*
X66094619Y-89922266D02*
X66094619Y-89350838D01*
X66094619Y-89636552D02*
X65094619Y-89636552D01*
X65094619Y-89636552D02*
X65237476Y-89541314D01*
X65237476Y-89541314D02*
X65332714Y-89446076D01*
X65332714Y-89446076D02*
X65380333Y-89350838D01*
X108665019Y-134164014D02*
X107665019Y-134164014D01*
X107665019Y-134164014D02*
X107665019Y-134402109D01*
X107665019Y-134402109D02*
X107712638Y-134544966D01*
X107712638Y-134544966D02*
X107807876Y-134640204D01*
X107807876Y-134640204D02*
X107903114Y-134687823D01*
X107903114Y-134687823D02*
X108093590Y-134735442D01*
X108093590Y-134735442D02*
X108236447Y-134735442D01*
X108236447Y-134735442D02*
X108426923Y-134687823D01*
X108426923Y-134687823D02*
X108522161Y-134640204D01*
X108522161Y-134640204D02*
X108617400Y-134544966D01*
X108617400Y-134544966D02*
X108665019Y-134402109D01*
X108665019Y-134402109D02*
X108665019Y-134164014D01*
X107998352Y-135592585D02*
X108665019Y-135592585D01*
X107617400Y-135354490D02*
X108331685Y-135116395D01*
X108331685Y-135116395D02*
X108331685Y-135735442D01*
X108665019Y-136640204D02*
X108665019Y-136068776D01*
X108665019Y-136354490D02*
X107665019Y-136354490D01*
X107665019Y-136354490D02*
X107807876Y-136259252D01*
X107807876Y-136259252D02*
X107903114Y-136164014D01*
X107903114Y-136164014D02*
X107950733Y-136068776D01*
X108095019Y-138926395D02*
X107095019Y-138926395D01*
X108095019Y-139497823D02*
X107523590Y-139069252D01*
X107095019Y-139497823D02*
X107666447Y-138926395D01*
X137240019Y-83281405D02*
X136240019Y-83281405D01*
X136240019Y-83281405D02*
X136240019Y-83519500D01*
X136240019Y-83519500D02*
X136287638Y-83662357D01*
X136287638Y-83662357D02*
X136382876Y-83757595D01*
X136382876Y-83757595D02*
X136478114Y-83805214D01*
X136478114Y-83805214D02*
X136668590Y-83852833D01*
X136668590Y-83852833D02*
X136811447Y-83852833D01*
X136811447Y-83852833D02*
X137001923Y-83805214D01*
X137001923Y-83805214D02*
X137097161Y-83757595D01*
X137097161Y-83757595D02*
X137192400Y-83662357D01*
X137192400Y-83662357D02*
X137240019Y-83519500D01*
X137240019Y-83519500D02*
X137240019Y-83281405D01*
X136573352Y-84709976D02*
X137240019Y-84709976D01*
X136192400Y-84471881D02*
X136906685Y-84233786D01*
X136906685Y-84233786D02*
X136906685Y-84852833D01*
X136670019Y-87567595D02*
X135670019Y-87567595D01*
X136670019Y-88139023D02*
X136098590Y-87710452D01*
X135670019Y-88139023D02*
X136241447Y-87567595D01*
X249756466Y-140337819D02*
X249756466Y-139337819D01*
X249756466Y-139814009D02*
X249185038Y-139814009D01*
X249185038Y-140337819D02*
X249185038Y-139337819D01*
X248232657Y-140337819D02*
X248708847Y-140337819D01*
X248708847Y-140337819D02*
X248708847Y-139337819D01*
X247470752Y-139671152D02*
X247470752Y-140337819D01*
X247708847Y-139290200D02*
X247946942Y-140004485D01*
X247946942Y-140004485D02*
X247327895Y-140004485D01*
X252454085Y-142237819D02*
X253025513Y-142237819D01*
X252739799Y-142237819D02*
X252739799Y-141237819D01*
X252739799Y-141237819D02*
X252835037Y-141380676D01*
X252835037Y-141380676D02*
X252930275Y-141475914D01*
X252930275Y-141475914D02*
X253025513Y-141523533D01*
X157179267Y-138386779D02*
X157226886Y-138434399D01*
X157226886Y-138434399D02*
X157369743Y-138482018D01*
X157369743Y-138482018D02*
X157464981Y-138482018D01*
X157464981Y-138482018D02*
X157607838Y-138434399D01*
X157607838Y-138434399D02*
X157703076Y-138339160D01*
X157703076Y-138339160D02*
X157750695Y-138243922D01*
X157750695Y-138243922D02*
X157798314Y-138053446D01*
X157798314Y-138053446D02*
X157798314Y-137910589D01*
X157798314Y-137910589D02*
X157750695Y-137720113D01*
X157750695Y-137720113D02*
X157703076Y-137624875D01*
X157703076Y-137624875D02*
X157607838Y-137529637D01*
X157607838Y-137529637D02*
X157464981Y-137482018D01*
X157464981Y-137482018D02*
X157369743Y-137482018D01*
X157369743Y-137482018D02*
X157226886Y-137529637D01*
X157226886Y-137529637D02*
X157179267Y-137577256D01*
X156274505Y-137482018D02*
X156750695Y-137482018D01*
X156750695Y-137482018D02*
X156798314Y-137958208D01*
X156798314Y-137958208D02*
X156750695Y-137910589D01*
X156750695Y-137910589D02*
X156655457Y-137862970D01*
X156655457Y-137862970D02*
X156417362Y-137862970D01*
X156417362Y-137862970D02*
X156322124Y-137910589D01*
X156322124Y-137910589D02*
X156274505Y-137958208D01*
X156274505Y-137958208D02*
X156226886Y-138053446D01*
X156226886Y-138053446D02*
X156226886Y-138291541D01*
X156226886Y-138291541D02*
X156274505Y-138386779D01*
X156274505Y-138386779D02*
X156322124Y-138434399D01*
X156322124Y-138434399D02*
X156417362Y-138482018D01*
X156417362Y-138482018D02*
X156655457Y-138482018D01*
X156655457Y-138482018D02*
X156750695Y-138434399D01*
X156750695Y-138434399D02*
X156798314Y-138386779D01*
X118190019Y-120905214D02*
X117190019Y-120905214D01*
X117190019Y-120905214D02*
X117190019Y-121143309D01*
X117190019Y-121143309D02*
X117237638Y-121286166D01*
X117237638Y-121286166D02*
X117332876Y-121381404D01*
X117332876Y-121381404D02*
X117428114Y-121429023D01*
X117428114Y-121429023D02*
X117618590Y-121476642D01*
X117618590Y-121476642D02*
X117761447Y-121476642D01*
X117761447Y-121476642D02*
X117951923Y-121429023D01*
X117951923Y-121429023D02*
X118047161Y-121381404D01*
X118047161Y-121381404D02*
X118142400Y-121286166D01*
X118142400Y-121286166D02*
X118190019Y-121143309D01*
X118190019Y-121143309D02*
X118190019Y-120905214D01*
X117285257Y-121857595D02*
X117237638Y-121905214D01*
X117237638Y-121905214D02*
X117190019Y-122000452D01*
X117190019Y-122000452D02*
X117190019Y-122238547D01*
X117190019Y-122238547D02*
X117237638Y-122333785D01*
X117237638Y-122333785D02*
X117285257Y-122381404D01*
X117285257Y-122381404D02*
X117380495Y-122429023D01*
X117380495Y-122429023D02*
X117475733Y-122429023D01*
X117475733Y-122429023D02*
X117618590Y-122381404D01*
X117618590Y-122381404D02*
X118190019Y-121809976D01*
X118190019Y-121809976D02*
X118190019Y-122429023D01*
X118190019Y-122905214D02*
X118190019Y-123095690D01*
X118190019Y-123095690D02*
X118142400Y-123190928D01*
X118142400Y-123190928D02*
X118094780Y-123238547D01*
X118094780Y-123238547D02*
X117951923Y-123333785D01*
X117951923Y-123333785D02*
X117761447Y-123381404D01*
X117761447Y-123381404D02*
X117380495Y-123381404D01*
X117380495Y-123381404D02*
X117285257Y-123333785D01*
X117285257Y-123333785D02*
X117237638Y-123286166D01*
X117237638Y-123286166D02*
X117190019Y-123190928D01*
X117190019Y-123190928D02*
X117190019Y-123000452D01*
X117190019Y-123000452D02*
X117237638Y-122905214D01*
X117237638Y-122905214D02*
X117285257Y-122857595D01*
X117285257Y-122857595D02*
X117380495Y-122809976D01*
X117380495Y-122809976D02*
X117618590Y-122809976D01*
X117618590Y-122809976D02*
X117713828Y-122857595D01*
X117713828Y-122857595D02*
X117761447Y-122905214D01*
X117761447Y-122905214D02*
X117809066Y-123000452D01*
X117809066Y-123000452D02*
X117809066Y-123190928D01*
X117809066Y-123190928D02*
X117761447Y-123286166D01*
X117761447Y-123286166D02*
X117713828Y-123333785D01*
X117713828Y-123333785D02*
X117618590Y-123381404D01*
X117620019Y-125667595D02*
X116620019Y-125667595D01*
X117620019Y-126239023D02*
X117048590Y-125810452D01*
X116620019Y-126239023D02*
X117191447Y-125667595D01*
X213440019Y-120905214D02*
X212440019Y-120905214D01*
X212440019Y-120905214D02*
X212440019Y-121143309D01*
X212440019Y-121143309D02*
X212487638Y-121286166D01*
X212487638Y-121286166D02*
X212582876Y-121381404D01*
X212582876Y-121381404D02*
X212678114Y-121429023D01*
X212678114Y-121429023D02*
X212868590Y-121476642D01*
X212868590Y-121476642D02*
X213011447Y-121476642D01*
X213011447Y-121476642D02*
X213201923Y-121429023D01*
X213201923Y-121429023D02*
X213297161Y-121381404D01*
X213297161Y-121381404D02*
X213392400Y-121286166D01*
X213392400Y-121286166D02*
X213440019Y-121143309D01*
X213440019Y-121143309D02*
X213440019Y-120905214D01*
X212440019Y-121809976D02*
X212440019Y-122429023D01*
X212440019Y-122429023D02*
X212820971Y-122095690D01*
X212820971Y-122095690D02*
X212820971Y-122238547D01*
X212820971Y-122238547D02*
X212868590Y-122333785D01*
X212868590Y-122333785D02*
X212916209Y-122381404D01*
X212916209Y-122381404D02*
X213011447Y-122429023D01*
X213011447Y-122429023D02*
X213249542Y-122429023D01*
X213249542Y-122429023D02*
X213344780Y-122381404D01*
X213344780Y-122381404D02*
X213392400Y-122333785D01*
X213392400Y-122333785D02*
X213440019Y-122238547D01*
X213440019Y-122238547D02*
X213440019Y-121952833D01*
X213440019Y-121952833D02*
X213392400Y-121857595D01*
X213392400Y-121857595D02*
X213344780Y-121809976D01*
X212773352Y-123286166D02*
X213440019Y-123286166D01*
X212392400Y-123048071D02*
X213106685Y-122809976D01*
X213106685Y-122809976D02*
X213106685Y-123429023D01*
X212870019Y-125667595D02*
X211870019Y-125667595D01*
X212870019Y-126239023D02*
X212298590Y-125810452D01*
X211870019Y-126239023D02*
X212441447Y-125667595D01*
X165815019Y-101855214D02*
X164815019Y-101855214D01*
X164815019Y-101855214D02*
X164815019Y-102093309D01*
X164815019Y-102093309D02*
X164862638Y-102236166D01*
X164862638Y-102236166D02*
X164957876Y-102331404D01*
X164957876Y-102331404D02*
X165053114Y-102379023D01*
X165053114Y-102379023D02*
X165243590Y-102426642D01*
X165243590Y-102426642D02*
X165386447Y-102426642D01*
X165386447Y-102426642D02*
X165576923Y-102379023D01*
X165576923Y-102379023D02*
X165672161Y-102331404D01*
X165672161Y-102331404D02*
X165767400Y-102236166D01*
X165767400Y-102236166D02*
X165815019Y-102093309D01*
X165815019Y-102093309D02*
X165815019Y-101855214D01*
X165815019Y-103379023D02*
X165815019Y-102807595D01*
X165815019Y-103093309D02*
X164815019Y-103093309D01*
X164815019Y-103093309D02*
X164957876Y-102998071D01*
X164957876Y-102998071D02*
X165053114Y-102902833D01*
X165053114Y-102902833D02*
X165100733Y-102807595D01*
X165815019Y-103855214D02*
X165815019Y-104045690D01*
X165815019Y-104045690D02*
X165767400Y-104140928D01*
X165767400Y-104140928D02*
X165719780Y-104188547D01*
X165719780Y-104188547D02*
X165576923Y-104283785D01*
X165576923Y-104283785D02*
X165386447Y-104331404D01*
X165386447Y-104331404D02*
X165005495Y-104331404D01*
X165005495Y-104331404D02*
X164910257Y-104283785D01*
X164910257Y-104283785D02*
X164862638Y-104236166D01*
X164862638Y-104236166D02*
X164815019Y-104140928D01*
X164815019Y-104140928D02*
X164815019Y-103950452D01*
X164815019Y-103950452D02*
X164862638Y-103855214D01*
X164862638Y-103855214D02*
X164910257Y-103807595D01*
X164910257Y-103807595D02*
X165005495Y-103759976D01*
X165005495Y-103759976D02*
X165243590Y-103759976D01*
X165243590Y-103759976D02*
X165338828Y-103807595D01*
X165338828Y-103807595D02*
X165386447Y-103855214D01*
X165386447Y-103855214D02*
X165434066Y-103950452D01*
X165434066Y-103950452D02*
X165434066Y-104140928D01*
X165434066Y-104140928D02*
X165386447Y-104236166D01*
X165386447Y-104236166D02*
X165338828Y-104283785D01*
X165338828Y-104283785D02*
X165243590Y-104331404D01*
X165245019Y-106617595D02*
X164245019Y-106617595D01*
X165245019Y-107189023D02*
X164673590Y-106760452D01*
X164245019Y-107189023D02*
X164816447Y-106617595D01*
X246790219Y-134164014D02*
X245790219Y-134164014D01*
X245790219Y-134164014D02*
X245790219Y-134402109D01*
X245790219Y-134402109D02*
X245837838Y-134544966D01*
X245837838Y-134544966D02*
X245933076Y-134640204D01*
X245933076Y-134640204D02*
X246028314Y-134687823D01*
X246028314Y-134687823D02*
X246218790Y-134735442D01*
X246218790Y-134735442D02*
X246361647Y-134735442D01*
X246361647Y-134735442D02*
X246552123Y-134687823D01*
X246552123Y-134687823D02*
X246647361Y-134640204D01*
X246647361Y-134640204D02*
X246742600Y-134544966D01*
X246742600Y-134544966D02*
X246790219Y-134402109D01*
X246790219Y-134402109D02*
X246790219Y-134164014D01*
X246123552Y-135592585D02*
X246790219Y-135592585D01*
X245742600Y-135354490D02*
X246456885Y-135116395D01*
X246456885Y-135116395D02*
X246456885Y-135735442D01*
X245790219Y-136592585D02*
X245790219Y-136116395D01*
X245790219Y-136116395D02*
X246266409Y-136068776D01*
X246266409Y-136068776D02*
X246218790Y-136116395D01*
X246218790Y-136116395D02*
X246171171Y-136211633D01*
X246171171Y-136211633D02*
X246171171Y-136449728D01*
X246171171Y-136449728D02*
X246218790Y-136544966D01*
X246218790Y-136544966D02*
X246266409Y-136592585D01*
X246266409Y-136592585D02*
X246361647Y-136640204D01*
X246361647Y-136640204D02*
X246599742Y-136640204D01*
X246599742Y-136640204D02*
X246694980Y-136592585D01*
X246694980Y-136592585D02*
X246742600Y-136544966D01*
X246742600Y-136544966D02*
X246790219Y-136449728D01*
X246790219Y-136449728D02*
X246790219Y-136211633D01*
X246790219Y-136211633D02*
X246742600Y-136116395D01*
X246742600Y-136116395D02*
X246694980Y-136068776D01*
X246220219Y-138926395D02*
X245220219Y-138926395D01*
X246220219Y-139497823D02*
X245648790Y-139069252D01*
X245220219Y-139497823D02*
X245791647Y-138926395D01*
X99114619Y-120905214D02*
X98114619Y-120905214D01*
X98114619Y-120905214D02*
X98114619Y-121143309D01*
X98114619Y-121143309D02*
X98162238Y-121286166D01*
X98162238Y-121286166D02*
X98257476Y-121381404D01*
X98257476Y-121381404D02*
X98352714Y-121429023D01*
X98352714Y-121429023D02*
X98543190Y-121476642D01*
X98543190Y-121476642D02*
X98686047Y-121476642D01*
X98686047Y-121476642D02*
X98876523Y-121429023D01*
X98876523Y-121429023D02*
X98971761Y-121381404D01*
X98971761Y-121381404D02*
X99067000Y-121286166D01*
X99067000Y-121286166D02*
X99114619Y-121143309D01*
X99114619Y-121143309D02*
X99114619Y-120905214D01*
X98209857Y-121857595D02*
X98162238Y-121905214D01*
X98162238Y-121905214D02*
X98114619Y-122000452D01*
X98114619Y-122000452D02*
X98114619Y-122238547D01*
X98114619Y-122238547D02*
X98162238Y-122333785D01*
X98162238Y-122333785D02*
X98209857Y-122381404D01*
X98209857Y-122381404D02*
X98305095Y-122429023D01*
X98305095Y-122429023D02*
X98400333Y-122429023D01*
X98400333Y-122429023D02*
X98543190Y-122381404D01*
X98543190Y-122381404D02*
X99114619Y-121809976D01*
X99114619Y-121809976D02*
X99114619Y-122429023D01*
X98543190Y-123000452D02*
X98495571Y-122905214D01*
X98495571Y-122905214D02*
X98447952Y-122857595D01*
X98447952Y-122857595D02*
X98352714Y-122809976D01*
X98352714Y-122809976D02*
X98305095Y-122809976D01*
X98305095Y-122809976D02*
X98209857Y-122857595D01*
X98209857Y-122857595D02*
X98162238Y-122905214D01*
X98162238Y-122905214D02*
X98114619Y-123000452D01*
X98114619Y-123000452D02*
X98114619Y-123190928D01*
X98114619Y-123190928D02*
X98162238Y-123286166D01*
X98162238Y-123286166D02*
X98209857Y-123333785D01*
X98209857Y-123333785D02*
X98305095Y-123381404D01*
X98305095Y-123381404D02*
X98352714Y-123381404D01*
X98352714Y-123381404D02*
X98447952Y-123333785D01*
X98447952Y-123333785D02*
X98495571Y-123286166D01*
X98495571Y-123286166D02*
X98543190Y-123190928D01*
X98543190Y-123190928D02*
X98543190Y-123000452D01*
X98543190Y-123000452D02*
X98590809Y-122905214D01*
X98590809Y-122905214D02*
X98638428Y-122857595D01*
X98638428Y-122857595D02*
X98733666Y-122809976D01*
X98733666Y-122809976D02*
X98924142Y-122809976D01*
X98924142Y-122809976D02*
X99019380Y-122857595D01*
X99019380Y-122857595D02*
X99067000Y-122905214D01*
X99067000Y-122905214D02*
X99114619Y-123000452D01*
X99114619Y-123000452D02*
X99114619Y-123190928D01*
X99114619Y-123190928D02*
X99067000Y-123286166D01*
X99067000Y-123286166D02*
X99019380Y-123333785D01*
X99019380Y-123333785D02*
X98924142Y-123381404D01*
X98924142Y-123381404D02*
X98733666Y-123381404D01*
X98733666Y-123381404D02*
X98638428Y-123333785D01*
X98638428Y-123333785D02*
X98590809Y-123286166D01*
X98590809Y-123286166D02*
X98543190Y-123190928D01*
X98544619Y-125667595D02*
X97544619Y-125667595D01*
X98544619Y-126239023D02*
X97973190Y-125810452D01*
X97544619Y-126239023D02*
X98116047Y-125667595D01*
X194364619Y-83281405D02*
X193364619Y-83281405D01*
X193364619Y-83281405D02*
X193364619Y-83519500D01*
X193364619Y-83519500D02*
X193412238Y-83662357D01*
X193412238Y-83662357D02*
X193507476Y-83757595D01*
X193507476Y-83757595D02*
X193602714Y-83805214D01*
X193602714Y-83805214D02*
X193793190Y-83852833D01*
X193793190Y-83852833D02*
X193936047Y-83852833D01*
X193936047Y-83852833D02*
X194126523Y-83805214D01*
X194126523Y-83805214D02*
X194221761Y-83757595D01*
X194221761Y-83757595D02*
X194317000Y-83662357D01*
X194317000Y-83662357D02*
X194364619Y-83519500D01*
X194364619Y-83519500D02*
X194364619Y-83281405D01*
X193364619Y-84186167D02*
X193364619Y-84852833D01*
X193364619Y-84852833D02*
X194364619Y-84424262D01*
X193794619Y-87567595D02*
X192794619Y-87567595D01*
X193794619Y-88139023D02*
X193223190Y-87710452D01*
X192794619Y-88139023D02*
X193366047Y-87567595D01*
X118190019Y-83281405D02*
X117190019Y-83281405D01*
X117190019Y-83281405D02*
X117190019Y-83519500D01*
X117190019Y-83519500D02*
X117237638Y-83662357D01*
X117237638Y-83662357D02*
X117332876Y-83757595D01*
X117332876Y-83757595D02*
X117428114Y-83805214D01*
X117428114Y-83805214D02*
X117618590Y-83852833D01*
X117618590Y-83852833D02*
X117761447Y-83852833D01*
X117761447Y-83852833D02*
X117951923Y-83805214D01*
X117951923Y-83805214D02*
X118047161Y-83757595D01*
X118047161Y-83757595D02*
X118142400Y-83662357D01*
X118142400Y-83662357D02*
X118190019Y-83519500D01*
X118190019Y-83519500D02*
X118190019Y-83281405D01*
X117190019Y-84186167D02*
X117190019Y-84805214D01*
X117190019Y-84805214D02*
X117570971Y-84471881D01*
X117570971Y-84471881D02*
X117570971Y-84614738D01*
X117570971Y-84614738D02*
X117618590Y-84709976D01*
X117618590Y-84709976D02*
X117666209Y-84757595D01*
X117666209Y-84757595D02*
X117761447Y-84805214D01*
X117761447Y-84805214D02*
X117999542Y-84805214D01*
X117999542Y-84805214D02*
X118094780Y-84757595D01*
X118094780Y-84757595D02*
X118142400Y-84709976D01*
X118142400Y-84709976D02*
X118190019Y-84614738D01*
X118190019Y-84614738D02*
X118190019Y-84329024D01*
X118190019Y-84329024D02*
X118142400Y-84233786D01*
X118142400Y-84233786D02*
X118094780Y-84186167D01*
X117620019Y-87567595D02*
X116620019Y-87567595D01*
X117620019Y-88139023D02*
X117048590Y-87710452D01*
X116620019Y-88139023D02*
X117191447Y-87567595D01*
X160730500Y-129199301D02*
X160797844Y-129199301D01*
X160797844Y-129199301D02*
X160932531Y-129131957D01*
X160932531Y-129131957D02*
X160999874Y-129064614D01*
X160999874Y-129064614D02*
X161067218Y-128929927D01*
X161067218Y-128929927D02*
X161067218Y-128795240D01*
X161067218Y-128795240D02*
X161033546Y-128694225D01*
X161033546Y-128694225D02*
X160932531Y-128525866D01*
X160932531Y-128525866D02*
X160831516Y-128424851D01*
X160831516Y-128424851D02*
X160663157Y-128323835D01*
X160663157Y-128323835D02*
X160562142Y-128290164D01*
X160562142Y-128290164D02*
X160427455Y-128290164D01*
X160427455Y-128290164D02*
X160292768Y-128357507D01*
X160292768Y-128357507D02*
X160225424Y-128424851D01*
X160225424Y-128424851D02*
X160158081Y-128559538D01*
X160158081Y-128559538D02*
X160158081Y-128626881D01*
X159855035Y-128795240D02*
X159383630Y-129266644D01*
X159383630Y-129266644D02*
X160393783Y-129670705D01*
X68529333Y-83759809D02*
X68862666Y-83759809D01*
X68862666Y-84283619D02*
X68862666Y-83283619D01*
X68862666Y-83283619D02*
X68386476Y-83283619D01*
X68053142Y-83378857D02*
X68005523Y-83331238D01*
X68005523Y-83331238D02*
X67910285Y-83283619D01*
X67910285Y-83283619D02*
X67672190Y-83283619D01*
X67672190Y-83283619D02*
X67576952Y-83331238D01*
X67576952Y-83331238D02*
X67529333Y-83378857D01*
X67529333Y-83378857D02*
X67481714Y-83474095D01*
X67481714Y-83474095D02*
X67481714Y-83569333D01*
X67481714Y-83569333D02*
X67529333Y-83712190D01*
X67529333Y-83712190D02*
X68100761Y-84283619D01*
X68100761Y-84283619D02*
X67481714Y-84283619D01*
X308664619Y-82805214D02*
X307664619Y-82805214D01*
X307664619Y-82805214D02*
X307664619Y-83043309D01*
X307664619Y-83043309D02*
X307712238Y-83186166D01*
X307712238Y-83186166D02*
X307807476Y-83281404D01*
X307807476Y-83281404D02*
X307902714Y-83329023D01*
X307902714Y-83329023D02*
X308093190Y-83376642D01*
X308093190Y-83376642D02*
X308236047Y-83376642D01*
X308236047Y-83376642D02*
X308426523Y-83329023D01*
X308426523Y-83329023D02*
X308521761Y-83281404D01*
X308521761Y-83281404D02*
X308617000Y-83186166D01*
X308617000Y-83186166D02*
X308664619Y-83043309D01*
X308664619Y-83043309D02*
X308664619Y-82805214D01*
X308664619Y-84329023D02*
X308664619Y-83757595D01*
X308664619Y-84043309D02*
X307664619Y-84043309D01*
X307664619Y-84043309D02*
X307807476Y-83948071D01*
X307807476Y-83948071D02*
X307902714Y-83852833D01*
X307902714Y-83852833D02*
X307950333Y-83757595D01*
X307664619Y-84662357D02*
X307664619Y-85281404D01*
X307664619Y-85281404D02*
X308045571Y-84948071D01*
X308045571Y-84948071D02*
X308045571Y-85090928D01*
X308045571Y-85090928D02*
X308093190Y-85186166D01*
X308093190Y-85186166D02*
X308140809Y-85233785D01*
X308140809Y-85233785D02*
X308236047Y-85281404D01*
X308236047Y-85281404D02*
X308474142Y-85281404D01*
X308474142Y-85281404D02*
X308569380Y-85233785D01*
X308569380Y-85233785D02*
X308617000Y-85186166D01*
X308617000Y-85186166D02*
X308664619Y-85090928D01*
X308664619Y-85090928D02*
X308664619Y-84805214D01*
X308664619Y-84805214D02*
X308617000Y-84709976D01*
X308617000Y-84709976D02*
X308569380Y-84662357D01*
X308094619Y-87567595D02*
X307094619Y-87567595D01*
X308094619Y-88139023D02*
X307523190Y-87710452D01*
X307094619Y-88139023D02*
X307666047Y-87567595D01*
X318215019Y-134164014D02*
X317215019Y-134164014D01*
X317215019Y-134164014D02*
X317215019Y-134402109D01*
X317215019Y-134402109D02*
X317262638Y-134544966D01*
X317262638Y-134544966D02*
X317357876Y-134640204D01*
X317357876Y-134640204D02*
X317453114Y-134687823D01*
X317453114Y-134687823D02*
X317643590Y-134735442D01*
X317643590Y-134735442D02*
X317786447Y-134735442D01*
X317786447Y-134735442D02*
X317976923Y-134687823D01*
X317976923Y-134687823D02*
X318072161Y-134640204D01*
X318072161Y-134640204D02*
X318167400Y-134544966D01*
X318167400Y-134544966D02*
X318215019Y-134402109D01*
X318215019Y-134402109D02*
X318215019Y-134164014D01*
X317548352Y-135592585D02*
X318215019Y-135592585D01*
X317167400Y-135354490D02*
X317881685Y-135116395D01*
X317881685Y-135116395D02*
X317881685Y-135735442D01*
X317643590Y-136259252D02*
X317595971Y-136164014D01*
X317595971Y-136164014D02*
X317548352Y-136116395D01*
X317548352Y-136116395D02*
X317453114Y-136068776D01*
X317453114Y-136068776D02*
X317405495Y-136068776D01*
X317405495Y-136068776D02*
X317310257Y-136116395D01*
X317310257Y-136116395D02*
X317262638Y-136164014D01*
X317262638Y-136164014D02*
X317215019Y-136259252D01*
X317215019Y-136259252D02*
X317215019Y-136449728D01*
X317215019Y-136449728D02*
X317262638Y-136544966D01*
X317262638Y-136544966D02*
X317310257Y-136592585D01*
X317310257Y-136592585D02*
X317405495Y-136640204D01*
X317405495Y-136640204D02*
X317453114Y-136640204D01*
X317453114Y-136640204D02*
X317548352Y-136592585D01*
X317548352Y-136592585D02*
X317595971Y-136544966D01*
X317595971Y-136544966D02*
X317643590Y-136449728D01*
X317643590Y-136449728D02*
X317643590Y-136259252D01*
X317643590Y-136259252D02*
X317691209Y-136164014D01*
X317691209Y-136164014D02*
X317738828Y-136116395D01*
X317738828Y-136116395D02*
X317834066Y-136068776D01*
X317834066Y-136068776D02*
X318024542Y-136068776D01*
X318024542Y-136068776D02*
X318119780Y-136116395D01*
X318119780Y-136116395D02*
X318167400Y-136164014D01*
X318167400Y-136164014D02*
X318215019Y-136259252D01*
X318215019Y-136259252D02*
X318215019Y-136449728D01*
X318215019Y-136449728D02*
X318167400Y-136544966D01*
X318167400Y-136544966D02*
X318119780Y-136592585D01*
X318119780Y-136592585D02*
X318024542Y-136640204D01*
X318024542Y-136640204D02*
X317834066Y-136640204D01*
X317834066Y-136640204D02*
X317738828Y-136592585D01*
X317738828Y-136592585D02*
X317691209Y-136544966D01*
X317691209Y-136544966D02*
X317643590Y-136449728D01*
X317645019Y-138926395D02*
X316645019Y-138926395D01*
X317645019Y-139497823D02*
X317073590Y-139069252D01*
X316645019Y-139497823D02*
X317216447Y-138926395D01*
X99140019Y-83281405D02*
X98140019Y-83281405D01*
X98140019Y-83281405D02*
X98140019Y-83519500D01*
X98140019Y-83519500D02*
X98187638Y-83662357D01*
X98187638Y-83662357D02*
X98282876Y-83757595D01*
X98282876Y-83757595D02*
X98378114Y-83805214D01*
X98378114Y-83805214D02*
X98568590Y-83852833D01*
X98568590Y-83852833D02*
X98711447Y-83852833D01*
X98711447Y-83852833D02*
X98901923Y-83805214D01*
X98901923Y-83805214D02*
X98997161Y-83757595D01*
X98997161Y-83757595D02*
X99092400Y-83662357D01*
X99092400Y-83662357D02*
X99140019Y-83519500D01*
X99140019Y-83519500D02*
X99140019Y-83281405D01*
X98235257Y-84233786D02*
X98187638Y-84281405D01*
X98187638Y-84281405D02*
X98140019Y-84376643D01*
X98140019Y-84376643D02*
X98140019Y-84614738D01*
X98140019Y-84614738D02*
X98187638Y-84709976D01*
X98187638Y-84709976D02*
X98235257Y-84757595D01*
X98235257Y-84757595D02*
X98330495Y-84805214D01*
X98330495Y-84805214D02*
X98425733Y-84805214D01*
X98425733Y-84805214D02*
X98568590Y-84757595D01*
X98568590Y-84757595D02*
X99140019Y-84186167D01*
X99140019Y-84186167D02*
X99140019Y-84805214D01*
X98570019Y-87567595D02*
X97570019Y-87567595D01*
X98570019Y-88139023D02*
X97998590Y-87710452D01*
X97570019Y-88139023D02*
X98141447Y-87567595D01*
X160349500Y-140197501D02*
X160416844Y-140197501D01*
X160416844Y-140197501D02*
X160551531Y-140130157D01*
X160551531Y-140130157D02*
X160618874Y-140062814D01*
X160618874Y-140062814D02*
X160686218Y-139928127D01*
X160686218Y-139928127D02*
X160686218Y-139793440D01*
X160686218Y-139793440D02*
X160652546Y-139692425D01*
X160652546Y-139692425D02*
X160551531Y-139524066D01*
X160551531Y-139524066D02*
X160450516Y-139423051D01*
X160450516Y-139423051D02*
X160282157Y-139322035D01*
X160282157Y-139322035D02*
X160181142Y-139288364D01*
X160181142Y-139288364D02*
X160046455Y-139288364D01*
X160046455Y-139288364D02*
X159911768Y-139355707D01*
X159911768Y-139355707D02*
X159844424Y-139423051D01*
X159844424Y-139423051D02*
X159777081Y-139557738D01*
X159777081Y-139557738D02*
X159777081Y-139625081D01*
X159743409Y-140938279D02*
X160147470Y-140534218D01*
X159945439Y-140736249D02*
X159238333Y-140029142D01*
X159238333Y-140029142D02*
X159406691Y-140062814D01*
X159406691Y-140062814D02*
X159541378Y-140062814D01*
X159541378Y-140062814D02*
X159642394Y-140029142D01*
X161771900Y-141619901D02*
X161839244Y-141619901D01*
X161839244Y-141619901D02*
X161973931Y-141552557D01*
X161973931Y-141552557D02*
X162041274Y-141485214D01*
X162041274Y-141485214D02*
X162108618Y-141350527D01*
X162108618Y-141350527D02*
X162108618Y-141215840D01*
X162108618Y-141215840D02*
X162074946Y-141114825D01*
X162074946Y-141114825D02*
X161973931Y-140946466D01*
X161973931Y-140946466D02*
X161872916Y-140845451D01*
X161872916Y-140845451D02*
X161704557Y-140744435D01*
X161704557Y-140744435D02*
X161603542Y-140710764D01*
X161603542Y-140710764D02*
X161468855Y-140710764D01*
X161468855Y-140710764D02*
X161334168Y-140778107D01*
X161334168Y-140778107D02*
X161266824Y-140845451D01*
X161266824Y-140845451D02*
X161199481Y-140980138D01*
X161199481Y-140980138D02*
X161199481Y-141047481D01*
X160930107Y-141316855D02*
X160862763Y-141316855D01*
X160862763Y-141316855D02*
X160761748Y-141350527D01*
X160761748Y-141350527D02*
X160593389Y-141518886D01*
X160593389Y-141518886D02*
X160559717Y-141619901D01*
X160559717Y-141619901D02*
X160559717Y-141687244D01*
X160559717Y-141687244D02*
X160593389Y-141788260D01*
X160593389Y-141788260D02*
X160660733Y-141855603D01*
X160660733Y-141855603D02*
X160795420Y-141922947D01*
X160795420Y-141922947D02*
X161603542Y-141922947D01*
X161603542Y-141922947D02*
X161165809Y-142360679D01*
X194333666Y-140337819D02*
X194333666Y-139337819D01*
X194333666Y-139814009D02*
X193762238Y-139814009D01*
X193762238Y-140337819D02*
X193762238Y-139337819D01*
X192809857Y-140337819D02*
X193286047Y-140337819D01*
X193286047Y-140337819D02*
X193286047Y-139337819D01*
X192571761Y-139337819D02*
X191952714Y-139337819D01*
X191952714Y-139337819D02*
X192286047Y-139718771D01*
X192286047Y-139718771D02*
X192143190Y-139718771D01*
X192143190Y-139718771D02*
X192047952Y-139766390D01*
X192047952Y-139766390D02*
X192000333Y-139814009D01*
X192000333Y-139814009D02*
X191952714Y-139909247D01*
X191952714Y-139909247D02*
X191952714Y-140147342D01*
X191952714Y-140147342D02*
X192000333Y-140242580D01*
X192000333Y-140242580D02*
X192047952Y-140290200D01*
X192047952Y-140290200D02*
X192143190Y-140337819D01*
X192143190Y-140337819D02*
X192428904Y-140337819D01*
X192428904Y-140337819D02*
X192524142Y-140290200D01*
X192524142Y-140290200D02*
X192571761Y-140242580D01*
X197031285Y-142237819D02*
X197602713Y-142237819D01*
X197316999Y-142237819D02*
X197316999Y-141237819D01*
X197316999Y-141237819D02*
X197412237Y-141380676D01*
X197412237Y-141380676D02*
X197507475Y-141475914D01*
X197507475Y-141475914D02*
X197602713Y-141523533D01*
X222965019Y-101855214D02*
X221965019Y-101855214D01*
X221965019Y-101855214D02*
X221965019Y-102093309D01*
X221965019Y-102093309D02*
X222012638Y-102236166D01*
X222012638Y-102236166D02*
X222107876Y-102331404D01*
X222107876Y-102331404D02*
X222203114Y-102379023D01*
X222203114Y-102379023D02*
X222393590Y-102426642D01*
X222393590Y-102426642D02*
X222536447Y-102426642D01*
X222536447Y-102426642D02*
X222726923Y-102379023D01*
X222726923Y-102379023D02*
X222822161Y-102331404D01*
X222822161Y-102331404D02*
X222917400Y-102236166D01*
X222917400Y-102236166D02*
X222965019Y-102093309D01*
X222965019Y-102093309D02*
X222965019Y-101855214D01*
X222060257Y-102807595D02*
X222012638Y-102855214D01*
X222012638Y-102855214D02*
X221965019Y-102950452D01*
X221965019Y-102950452D02*
X221965019Y-103188547D01*
X221965019Y-103188547D02*
X222012638Y-103283785D01*
X222012638Y-103283785D02*
X222060257Y-103331404D01*
X222060257Y-103331404D02*
X222155495Y-103379023D01*
X222155495Y-103379023D02*
X222250733Y-103379023D01*
X222250733Y-103379023D02*
X222393590Y-103331404D01*
X222393590Y-103331404D02*
X222965019Y-102759976D01*
X222965019Y-102759976D02*
X222965019Y-103379023D01*
X222060257Y-103759976D02*
X222012638Y-103807595D01*
X222012638Y-103807595D02*
X221965019Y-103902833D01*
X221965019Y-103902833D02*
X221965019Y-104140928D01*
X221965019Y-104140928D02*
X222012638Y-104236166D01*
X222012638Y-104236166D02*
X222060257Y-104283785D01*
X222060257Y-104283785D02*
X222155495Y-104331404D01*
X222155495Y-104331404D02*
X222250733Y-104331404D01*
X222250733Y-104331404D02*
X222393590Y-104283785D01*
X222393590Y-104283785D02*
X222965019Y-103712357D01*
X222965019Y-103712357D02*
X222965019Y-104331404D01*
X222395019Y-106617595D02*
X221395019Y-106617595D01*
X222395019Y-107189023D02*
X221823590Y-106760452D01*
X221395019Y-107189023D02*
X221966447Y-106617595D01*
X184839619Y-101855214D02*
X183839619Y-101855214D01*
X183839619Y-101855214D02*
X183839619Y-102093309D01*
X183839619Y-102093309D02*
X183887238Y-102236166D01*
X183887238Y-102236166D02*
X183982476Y-102331404D01*
X183982476Y-102331404D02*
X184077714Y-102379023D01*
X184077714Y-102379023D02*
X184268190Y-102426642D01*
X184268190Y-102426642D02*
X184411047Y-102426642D01*
X184411047Y-102426642D02*
X184601523Y-102379023D01*
X184601523Y-102379023D02*
X184696761Y-102331404D01*
X184696761Y-102331404D02*
X184792000Y-102236166D01*
X184792000Y-102236166D02*
X184839619Y-102093309D01*
X184839619Y-102093309D02*
X184839619Y-101855214D01*
X183934857Y-102807595D02*
X183887238Y-102855214D01*
X183887238Y-102855214D02*
X183839619Y-102950452D01*
X183839619Y-102950452D02*
X183839619Y-103188547D01*
X183839619Y-103188547D02*
X183887238Y-103283785D01*
X183887238Y-103283785D02*
X183934857Y-103331404D01*
X183934857Y-103331404D02*
X184030095Y-103379023D01*
X184030095Y-103379023D02*
X184125333Y-103379023D01*
X184125333Y-103379023D02*
X184268190Y-103331404D01*
X184268190Y-103331404D02*
X184839619Y-102759976D01*
X184839619Y-102759976D02*
X184839619Y-103379023D01*
X183839619Y-103998071D02*
X183839619Y-104093309D01*
X183839619Y-104093309D02*
X183887238Y-104188547D01*
X183887238Y-104188547D02*
X183934857Y-104236166D01*
X183934857Y-104236166D02*
X184030095Y-104283785D01*
X184030095Y-104283785D02*
X184220571Y-104331404D01*
X184220571Y-104331404D02*
X184458666Y-104331404D01*
X184458666Y-104331404D02*
X184649142Y-104283785D01*
X184649142Y-104283785D02*
X184744380Y-104236166D01*
X184744380Y-104236166D02*
X184792000Y-104188547D01*
X184792000Y-104188547D02*
X184839619Y-104093309D01*
X184839619Y-104093309D02*
X184839619Y-103998071D01*
X184839619Y-103998071D02*
X184792000Y-103902833D01*
X184792000Y-103902833D02*
X184744380Y-103855214D01*
X184744380Y-103855214D02*
X184649142Y-103807595D01*
X184649142Y-103807595D02*
X184458666Y-103759976D01*
X184458666Y-103759976D02*
X184220571Y-103759976D01*
X184220571Y-103759976D02*
X184030095Y-103807595D01*
X184030095Y-103807595D02*
X183934857Y-103855214D01*
X183934857Y-103855214D02*
X183887238Y-103902833D01*
X183887238Y-103902833D02*
X183839619Y-103998071D01*
X184269619Y-106617595D02*
X183269619Y-106617595D01*
X184269619Y-107189023D02*
X183698190Y-106760452D01*
X183269619Y-107189023D02*
X183841047Y-106617595D01*
X182080065Y-133099066D02*
X182147409Y-133099066D01*
X182147409Y-133099066D02*
X182282096Y-133031722D01*
X182282096Y-133031722D02*
X182349439Y-132964379D01*
X182349439Y-132964379D02*
X182416783Y-132829692D01*
X182416783Y-132829692D02*
X182416783Y-132695005D01*
X182416783Y-132695005D02*
X182383111Y-132593990D01*
X182383111Y-132593990D02*
X182282096Y-132425631D01*
X182282096Y-132425631D02*
X182181081Y-132324616D01*
X182181081Y-132324616D02*
X182012722Y-132223600D01*
X182012722Y-132223600D02*
X181911707Y-132189929D01*
X181911707Y-132189929D02*
X181777020Y-132189929D01*
X181777020Y-132189929D02*
X181642333Y-132257272D01*
X181642333Y-132257272D02*
X181574989Y-132324616D01*
X181574989Y-132324616D02*
X181507646Y-132459303D01*
X181507646Y-132459303D02*
X181507646Y-132526646D01*
X181204600Y-132695005D02*
X180766867Y-133132738D01*
X180766867Y-133132738D02*
X181271943Y-133166409D01*
X181271943Y-133166409D02*
X181170928Y-133267425D01*
X181170928Y-133267425D02*
X181137256Y-133368440D01*
X181137256Y-133368440D02*
X181137256Y-133435783D01*
X181137256Y-133435783D02*
X181170928Y-133536799D01*
X181170928Y-133536799D02*
X181339287Y-133705157D01*
X181339287Y-133705157D02*
X181440302Y-133738829D01*
X181440302Y-133738829D02*
X181507646Y-133738829D01*
X181507646Y-133738829D02*
X181608661Y-133705157D01*
X181608661Y-133705157D02*
X181810691Y-133503127D01*
X181810691Y-133503127D02*
X181844363Y-133402112D01*
X181844363Y-133402112D02*
X181844363Y-133334768D01*
X336122019Y-120905214D02*
X335122019Y-120905214D01*
X335122019Y-120905214D02*
X335122019Y-121143309D01*
X335122019Y-121143309D02*
X335169638Y-121286166D01*
X335169638Y-121286166D02*
X335264876Y-121381404D01*
X335264876Y-121381404D02*
X335360114Y-121429023D01*
X335360114Y-121429023D02*
X335550590Y-121476642D01*
X335550590Y-121476642D02*
X335693447Y-121476642D01*
X335693447Y-121476642D02*
X335883923Y-121429023D01*
X335883923Y-121429023D02*
X335979161Y-121381404D01*
X335979161Y-121381404D02*
X336074400Y-121286166D01*
X336074400Y-121286166D02*
X336122019Y-121143309D01*
X336122019Y-121143309D02*
X336122019Y-120905214D01*
X335122019Y-121809976D02*
X335122019Y-122429023D01*
X335122019Y-122429023D02*
X335502971Y-122095690D01*
X335502971Y-122095690D02*
X335502971Y-122238547D01*
X335502971Y-122238547D02*
X335550590Y-122333785D01*
X335550590Y-122333785D02*
X335598209Y-122381404D01*
X335598209Y-122381404D02*
X335693447Y-122429023D01*
X335693447Y-122429023D02*
X335931542Y-122429023D01*
X335931542Y-122429023D02*
X336026780Y-122381404D01*
X336026780Y-122381404D02*
X336074400Y-122333785D01*
X336074400Y-122333785D02*
X336122019Y-122238547D01*
X336122019Y-122238547D02*
X336122019Y-121952833D01*
X336122019Y-121952833D02*
X336074400Y-121857595D01*
X336074400Y-121857595D02*
X336026780Y-121809976D01*
X336122019Y-122905214D02*
X336122019Y-123095690D01*
X336122019Y-123095690D02*
X336074400Y-123190928D01*
X336074400Y-123190928D02*
X336026780Y-123238547D01*
X336026780Y-123238547D02*
X335883923Y-123333785D01*
X335883923Y-123333785D02*
X335693447Y-123381404D01*
X335693447Y-123381404D02*
X335312495Y-123381404D01*
X335312495Y-123381404D02*
X335217257Y-123333785D01*
X335217257Y-123333785D02*
X335169638Y-123286166D01*
X335169638Y-123286166D02*
X335122019Y-123190928D01*
X335122019Y-123190928D02*
X335122019Y-123000452D01*
X335122019Y-123000452D02*
X335169638Y-122905214D01*
X335169638Y-122905214D02*
X335217257Y-122857595D01*
X335217257Y-122857595D02*
X335312495Y-122809976D01*
X335312495Y-122809976D02*
X335550590Y-122809976D01*
X335550590Y-122809976D02*
X335645828Y-122857595D01*
X335645828Y-122857595D02*
X335693447Y-122905214D01*
X335693447Y-122905214D02*
X335741066Y-123000452D01*
X335741066Y-123000452D02*
X335741066Y-123190928D01*
X335741066Y-123190928D02*
X335693447Y-123286166D01*
X335693447Y-123286166D02*
X335645828Y-123333785D01*
X335645828Y-123333785D02*
X335550590Y-123381404D01*
X335552019Y-125667595D02*
X334552019Y-125667595D01*
X335552019Y-126239023D02*
X334980590Y-125810452D01*
X334552019Y-126239023D02*
X335123447Y-125667595D01*
X280115019Y-101855214D02*
X279115019Y-101855214D01*
X279115019Y-101855214D02*
X279115019Y-102093309D01*
X279115019Y-102093309D02*
X279162638Y-102236166D01*
X279162638Y-102236166D02*
X279257876Y-102331404D01*
X279257876Y-102331404D02*
X279353114Y-102379023D01*
X279353114Y-102379023D02*
X279543590Y-102426642D01*
X279543590Y-102426642D02*
X279686447Y-102426642D01*
X279686447Y-102426642D02*
X279876923Y-102379023D01*
X279876923Y-102379023D02*
X279972161Y-102331404D01*
X279972161Y-102331404D02*
X280067400Y-102236166D01*
X280067400Y-102236166D02*
X280115019Y-102093309D01*
X280115019Y-102093309D02*
X280115019Y-101855214D01*
X279210257Y-102807595D02*
X279162638Y-102855214D01*
X279162638Y-102855214D02*
X279115019Y-102950452D01*
X279115019Y-102950452D02*
X279115019Y-103188547D01*
X279115019Y-103188547D02*
X279162638Y-103283785D01*
X279162638Y-103283785D02*
X279210257Y-103331404D01*
X279210257Y-103331404D02*
X279305495Y-103379023D01*
X279305495Y-103379023D02*
X279400733Y-103379023D01*
X279400733Y-103379023D02*
X279543590Y-103331404D01*
X279543590Y-103331404D02*
X280115019Y-102759976D01*
X280115019Y-102759976D02*
X280115019Y-103379023D01*
X279115019Y-104283785D02*
X279115019Y-103807595D01*
X279115019Y-103807595D02*
X279591209Y-103759976D01*
X279591209Y-103759976D02*
X279543590Y-103807595D01*
X279543590Y-103807595D02*
X279495971Y-103902833D01*
X279495971Y-103902833D02*
X279495971Y-104140928D01*
X279495971Y-104140928D02*
X279543590Y-104236166D01*
X279543590Y-104236166D02*
X279591209Y-104283785D01*
X279591209Y-104283785D02*
X279686447Y-104331404D01*
X279686447Y-104331404D02*
X279924542Y-104331404D01*
X279924542Y-104331404D02*
X280019780Y-104283785D01*
X280019780Y-104283785D02*
X280067400Y-104236166D01*
X280067400Y-104236166D02*
X280115019Y-104140928D01*
X280115019Y-104140928D02*
X280115019Y-103902833D01*
X280115019Y-103902833D02*
X280067400Y-103807595D01*
X280067400Y-103807595D02*
X280019780Y-103759976D01*
X279545019Y-106617595D02*
X278545019Y-106617595D01*
X279545019Y-107189023D02*
X278973590Y-106760452D01*
X278545019Y-107189023D02*
X279116447Y-106617595D01*
X181854817Y-140704645D02*
X181753802Y-140132226D01*
X182258878Y-140300584D02*
X181551771Y-139593478D01*
X181551771Y-139593478D02*
X181282397Y-139862852D01*
X181282397Y-139862852D02*
X181248725Y-139963867D01*
X181248725Y-139963867D02*
X181248725Y-140031210D01*
X181248725Y-140031210D02*
X181282397Y-140132226D01*
X181282397Y-140132226D02*
X181383412Y-140233241D01*
X181383412Y-140233241D02*
X181484428Y-140266913D01*
X181484428Y-140266913D02*
X181551771Y-140266913D01*
X181551771Y-140266913D02*
X181652786Y-140233241D01*
X181652786Y-140233241D02*
X181922160Y-139963867D01*
X180912008Y-140233241D02*
X180474275Y-140670974D01*
X180474275Y-140670974D02*
X180979351Y-140704645D01*
X180979351Y-140704645D02*
X180878336Y-140805661D01*
X180878336Y-140805661D02*
X180844664Y-140906676D01*
X180844664Y-140906676D02*
X180844664Y-140974019D01*
X180844664Y-140974019D02*
X180878336Y-141075035D01*
X180878336Y-141075035D02*
X181046695Y-141243393D01*
X181046695Y-141243393D02*
X181147710Y-141277065D01*
X181147710Y-141277065D02*
X181215054Y-141277065D01*
X181215054Y-141277065D02*
X181316069Y-141243393D01*
X181316069Y-141243393D02*
X181518099Y-141041363D01*
X181518099Y-141041363D02*
X181551771Y-140940348D01*
X181551771Y-140940348D02*
X181551771Y-140873004D01*
X203915019Y-101855214D02*
X202915019Y-101855214D01*
X202915019Y-101855214D02*
X202915019Y-102093309D01*
X202915019Y-102093309D02*
X202962638Y-102236166D01*
X202962638Y-102236166D02*
X203057876Y-102331404D01*
X203057876Y-102331404D02*
X203153114Y-102379023D01*
X203153114Y-102379023D02*
X203343590Y-102426642D01*
X203343590Y-102426642D02*
X203486447Y-102426642D01*
X203486447Y-102426642D02*
X203676923Y-102379023D01*
X203676923Y-102379023D02*
X203772161Y-102331404D01*
X203772161Y-102331404D02*
X203867400Y-102236166D01*
X203867400Y-102236166D02*
X203915019Y-102093309D01*
X203915019Y-102093309D02*
X203915019Y-101855214D01*
X203010257Y-102807595D02*
X202962638Y-102855214D01*
X202962638Y-102855214D02*
X202915019Y-102950452D01*
X202915019Y-102950452D02*
X202915019Y-103188547D01*
X202915019Y-103188547D02*
X202962638Y-103283785D01*
X202962638Y-103283785D02*
X203010257Y-103331404D01*
X203010257Y-103331404D02*
X203105495Y-103379023D01*
X203105495Y-103379023D02*
X203200733Y-103379023D01*
X203200733Y-103379023D02*
X203343590Y-103331404D01*
X203343590Y-103331404D02*
X203915019Y-102759976D01*
X203915019Y-102759976D02*
X203915019Y-103379023D01*
X203915019Y-104331404D02*
X203915019Y-103759976D01*
X203915019Y-104045690D02*
X202915019Y-104045690D01*
X202915019Y-104045690D02*
X203057876Y-103950452D01*
X203057876Y-103950452D02*
X203153114Y-103855214D01*
X203153114Y-103855214D02*
X203200733Y-103759976D01*
X203345019Y-106617595D02*
X202345019Y-106617595D01*
X203345019Y-107189023D02*
X202773590Y-106760452D01*
X202345019Y-107189023D02*
X202916447Y-106617595D01*
X157179267Y-136405579D02*
X157226886Y-136453199D01*
X157226886Y-136453199D02*
X157369743Y-136500818D01*
X157369743Y-136500818D02*
X157464981Y-136500818D01*
X157464981Y-136500818D02*
X157607838Y-136453199D01*
X157607838Y-136453199D02*
X157703076Y-136357960D01*
X157703076Y-136357960D02*
X157750695Y-136262722D01*
X157750695Y-136262722D02*
X157798314Y-136072246D01*
X157798314Y-136072246D02*
X157798314Y-135929389D01*
X157798314Y-135929389D02*
X157750695Y-135738913D01*
X157750695Y-135738913D02*
X157703076Y-135643675D01*
X157703076Y-135643675D02*
X157607838Y-135548437D01*
X157607838Y-135548437D02*
X157464981Y-135500818D01*
X157464981Y-135500818D02*
X157369743Y-135500818D01*
X157369743Y-135500818D02*
X157226886Y-135548437D01*
X157226886Y-135548437D02*
X157179267Y-135596056D01*
X156322124Y-135500818D02*
X156512600Y-135500818D01*
X156512600Y-135500818D02*
X156607838Y-135548437D01*
X156607838Y-135548437D02*
X156655457Y-135596056D01*
X156655457Y-135596056D02*
X156750695Y-135738913D01*
X156750695Y-135738913D02*
X156798314Y-135929389D01*
X156798314Y-135929389D02*
X156798314Y-136310341D01*
X156798314Y-136310341D02*
X156750695Y-136405579D01*
X156750695Y-136405579D02*
X156703076Y-136453199D01*
X156703076Y-136453199D02*
X156607838Y-136500818D01*
X156607838Y-136500818D02*
X156417362Y-136500818D01*
X156417362Y-136500818D02*
X156322124Y-136453199D01*
X156322124Y-136453199D02*
X156274505Y-136405579D01*
X156274505Y-136405579D02*
X156226886Y-136310341D01*
X156226886Y-136310341D02*
X156226886Y-136072246D01*
X156226886Y-136072246D02*
X156274505Y-135977008D01*
X156274505Y-135977008D02*
X156322124Y-135929389D01*
X156322124Y-135929389D02*
X156417362Y-135881770D01*
X156417362Y-135881770D02*
X156607838Y-135881770D01*
X156607838Y-135881770D02*
X156703076Y-135929389D01*
X156703076Y-135929389D02*
X156750695Y-135977008D01*
X156750695Y-135977008D02*
X156798314Y-136072246D01*
X251540019Y-120905214D02*
X250540019Y-120905214D01*
X250540019Y-120905214D02*
X250540019Y-121143309D01*
X250540019Y-121143309D02*
X250587638Y-121286166D01*
X250587638Y-121286166D02*
X250682876Y-121381404D01*
X250682876Y-121381404D02*
X250778114Y-121429023D01*
X250778114Y-121429023D02*
X250968590Y-121476642D01*
X250968590Y-121476642D02*
X251111447Y-121476642D01*
X251111447Y-121476642D02*
X251301923Y-121429023D01*
X251301923Y-121429023D02*
X251397161Y-121381404D01*
X251397161Y-121381404D02*
X251492400Y-121286166D01*
X251492400Y-121286166D02*
X251540019Y-121143309D01*
X251540019Y-121143309D02*
X251540019Y-120905214D01*
X250540019Y-121809976D02*
X250540019Y-122429023D01*
X250540019Y-122429023D02*
X250920971Y-122095690D01*
X250920971Y-122095690D02*
X250920971Y-122238547D01*
X250920971Y-122238547D02*
X250968590Y-122333785D01*
X250968590Y-122333785D02*
X251016209Y-122381404D01*
X251016209Y-122381404D02*
X251111447Y-122429023D01*
X251111447Y-122429023D02*
X251349542Y-122429023D01*
X251349542Y-122429023D02*
X251444780Y-122381404D01*
X251444780Y-122381404D02*
X251492400Y-122333785D01*
X251492400Y-122333785D02*
X251540019Y-122238547D01*
X251540019Y-122238547D02*
X251540019Y-121952833D01*
X251540019Y-121952833D02*
X251492400Y-121857595D01*
X251492400Y-121857595D02*
X251444780Y-121809976D01*
X250540019Y-123286166D02*
X250540019Y-123095690D01*
X250540019Y-123095690D02*
X250587638Y-123000452D01*
X250587638Y-123000452D02*
X250635257Y-122952833D01*
X250635257Y-122952833D02*
X250778114Y-122857595D01*
X250778114Y-122857595D02*
X250968590Y-122809976D01*
X250968590Y-122809976D02*
X251349542Y-122809976D01*
X251349542Y-122809976D02*
X251444780Y-122857595D01*
X251444780Y-122857595D02*
X251492400Y-122905214D01*
X251492400Y-122905214D02*
X251540019Y-123000452D01*
X251540019Y-123000452D02*
X251540019Y-123190928D01*
X251540019Y-123190928D02*
X251492400Y-123286166D01*
X251492400Y-123286166D02*
X251444780Y-123333785D01*
X251444780Y-123333785D02*
X251349542Y-123381404D01*
X251349542Y-123381404D02*
X251111447Y-123381404D01*
X251111447Y-123381404D02*
X251016209Y-123333785D01*
X251016209Y-123333785D02*
X250968590Y-123286166D01*
X250968590Y-123286166D02*
X250920971Y-123190928D01*
X250920971Y-123190928D02*
X250920971Y-123000452D01*
X250920971Y-123000452D02*
X250968590Y-122905214D01*
X250968590Y-122905214D02*
X251016209Y-122857595D01*
X251016209Y-122857595D02*
X251111447Y-122809976D01*
X250970019Y-125667595D02*
X249970019Y-125667595D01*
X250970019Y-126239023D02*
X250398590Y-125810452D01*
X249970019Y-126239023D02*
X250541447Y-125667595D01*
X134581266Y-140337819D02*
X134581266Y-139337819D01*
X134581266Y-139814009D02*
X134009838Y-139814009D01*
X134009838Y-140337819D02*
X134009838Y-139337819D01*
X133057457Y-140337819D02*
X133533647Y-140337819D01*
X133533647Y-140337819D02*
X133533647Y-139337819D01*
X132771742Y-139433057D02*
X132724123Y-139385438D01*
X132724123Y-139385438D02*
X132628885Y-139337819D01*
X132628885Y-139337819D02*
X132390790Y-139337819D01*
X132390790Y-139337819D02*
X132295552Y-139385438D01*
X132295552Y-139385438D02*
X132247933Y-139433057D01*
X132247933Y-139433057D02*
X132200314Y-139528295D01*
X132200314Y-139528295D02*
X132200314Y-139623533D01*
X132200314Y-139623533D02*
X132247933Y-139766390D01*
X132247933Y-139766390D02*
X132819361Y-140337819D01*
X132819361Y-140337819D02*
X132200314Y-140337819D01*
X137278885Y-142237819D02*
X137850313Y-142237819D01*
X137564599Y-142237819D02*
X137564599Y-141237819D01*
X137564599Y-141237819D02*
X137659837Y-141380676D01*
X137659837Y-141380676D02*
X137755075Y-141475914D01*
X137755075Y-141475914D02*
X137850313Y-141523533D01*
X232490019Y-83281405D02*
X231490019Y-83281405D01*
X231490019Y-83281405D02*
X231490019Y-83519500D01*
X231490019Y-83519500D02*
X231537638Y-83662357D01*
X231537638Y-83662357D02*
X231632876Y-83757595D01*
X231632876Y-83757595D02*
X231728114Y-83805214D01*
X231728114Y-83805214D02*
X231918590Y-83852833D01*
X231918590Y-83852833D02*
X232061447Y-83852833D01*
X232061447Y-83852833D02*
X232251923Y-83805214D01*
X232251923Y-83805214D02*
X232347161Y-83757595D01*
X232347161Y-83757595D02*
X232442400Y-83662357D01*
X232442400Y-83662357D02*
X232490019Y-83519500D01*
X232490019Y-83519500D02*
X232490019Y-83281405D01*
X232490019Y-84329024D02*
X232490019Y-84519500D01*
X232490019Y-84519500D02*
X232442400Y-84614738D01*
X232442400Y-84614738D02*
X232394780Y-84662357D01*
X232394780Y-84662357D02*
X232251923Y-84757595D01*
X232251923Y-84757595D02*
X232061447Y-84805214D01*
X232061447Y-84805214D02*
X231680495Y-84805214D01*
X231680495Y-84805214D02*
X231585257Y-84757595D01*
X231585257Y-84757595D02*
X231537638Y-84709976D01*
X231537638Y-84709976D02*
X231490019Y-84614738D01*
X231490019Y-84614738D02*
X231490019Y-84424262D01*
X231490019Y-84424262D02*
X231537638Y-84329024D01*
X231537638Y-84329024D02*
X231585257Y-84281405D01*
X231585257Y-84281405D02*
X231680495Y-84233786D01*
X231680495Y-84233786D02*
X231918590Y-84233786D01*
X231918590Y-84233786D02*
X232013828Y-84281405D01*
X232013828Y-84281405D02*
X232061447Y-84329024D01*
X232061447Y-84329024D02*
X232109066Y-84424262D01*
X232109066Y-84424262D02*
X232109066Y-84614738D01*
X232109066Y-84614738D02*
X232061447Y-84709976D01*
X232061447Y-84709976D02*
X232013828Y-84757595D01*
X232013828Y-84757595D02*
X231918590Y-84805214D01*
X231920019Y-87567595D02*
X230920019Y-87567595D01*
X231920019Y-88139023D02*
X231348590Y-87710452D01*
X230920019Y-88139023D02*
X231491447Y-87567595D01*
X213440019Y-83281405D02*
X212440019Y-83281405D01*
X212440019Y-83281405D02*
X212440019Y-83519500D01*
X212440019Y-83519500D02*
X212487638Y-83662357D01*
X212487638Y-83662357D02*
X212582876Y-83757595D01*
X212582876Y-83757595D02*
X212678114Y-83805214D01*
X212678114Y-83805214D02*
X212868590Y-83852833D01*
X212868590Y-83852833D02*
X213011447Y-83852833D01*
X213011447Y-83852833D02*
X213201923Y-83805214D01*
X213201923Y-83805214D02*
X213297161Y-83757595D01*
X213297161Y-83757595D02*
X213392400Y-83662357D01*
X213392400Y-83662357D02*
X213440019Y-83519500D01*
X213440019Y-83519500D02*
X213440019Y-83281405D01*
X212868590Y-84424262D02*
X212820971Y-84329024D01*
X212820971Y-84329024D02*
X212773352Y-84281405D01*
X212773352Y-84281405D02*
X212678114Y-84233786D01*
X212678114Y-84233786D02*
X212630495Y-84233786D01*
X212630495Y-84233786D02*
X212535257Y-84281405D01*
X212535257Y-84281405D02*
X212487638Y-84329024D01*
X212487638Y-84329024D02*
X212440019Y-84424262D01*
X212440019Y-84424262D02*
X212440019Y-84614738D01*
X212440019Y-84614738D02*
X212487638Y-84709976D01*
X212487638Y-84709976D02*
X212535257Y-84757595D01*
X212535257Y-84757595D02*
X212630495Y-84805214D01*
X212630495Y-84805214D02*
X212678114Y-84805214D01*
X212678114Y-84805214D02*
X212773352Y-84757595D01*
X212773352Y-84757595D02*
X212820971Y-84709976D01*
X212820971Y-84709976D02*
X212868590Y-84614738D01*
X212868590Y-84614738D02*
X212868590Y-84424262D01*
X212868590Y-84424262D02*
X212916209Y-84329024D01*
X212916209Y-84329024D02*
X212963828Y-84281405D01*
X212963828Y-84281405D02*
X213059066Y-84233786D01*
X213059066Y-84233786D02*
X213249542Y-84233786D01*
X213249542Y-84233786D02*
X213344780Y-84281405D01*
X213344780Y-84281405D02*
X213392400Y-84329024D01*
X213392400Y-84329024D02*
X213440019Y-84424262D01*
X213440019Y-84424262D02*
X213440019Y-84614738D01*
X213440019Y-84614738D02*
X213392400Y-84709976D01*
X213392400Y-84709976D02*
X213344780Y-84757595D01*
X213344780Y-84757595D02*
X213249542Y-84805214D01*
X213249542Y-84805214D02*
X213059066Y-84805214D01*
X213059066Y-84805214D02*
X212963828Y-84757595D01*
X212963828Y-84757595D02*
X212916209Y-84709976D01*
X212916209Y-84709976D02*
X212868590Y-84614738D01*
X212870019Y-87567595D02*
X211870019Y-87567595D01*
X212870019Y-88139023D02*
X212298590Y-87710452D01*
X211870019Y-88139023D02*
X212441447Y-87567595D01*
X175340019Y-83281405D02*
X174340019Y-83281405D01*
X174340019Y-83281405D02*
X174340019Y-83519500D01*
X174340019Y-83519500D02*
X174387638Y-83662357D01*
X174387638Y-83662357D02*
X174482876Y-83757595D01*
X174482876Y-83757595D02*
X174578114Y-83805214D01*
X174578114Y-83805214D02*
X174768590Y-83852833D01*
X174768590Y-83852833D02*
X174911447Y-83852833D01*
X174911447Y-83852833D02*
X175101923Y-83805214D01*
X175101923Y-83805214D02*
X175197161Y-83757595D01*
X175197161Y-83757595D02*
X175292400Y-83662357D01*
X175292400Y-83662357D02*
X175340019Y-83519500D01*
X175340019Y-83519500D02*
X175340019Y-83281405D01*
X174340019Y-84709976D02*
X174340019Y-84519500D01*
X174340019Y-84519500D02*
X174387638Y-84424262D01*
X174387638Y-84424262D02*
X174435257Y-84376643D01*
X174435257Y-84376643D02*
X174578114Y-84281405D01*
X174578114Y-84281405D02*
X174768590Y-84233786D01*
X174768590Y-84233786D02*
X175149542Y-84233786D01*
X175149542Y-84233786D02*
X175244780Y-84281405D01*
X175244780Y-84281405D02*
X175292400Y-84329024D01*
X175292400Y-84329024D02*
X175340019Y-84424262D01*
X175340019Y-84424262D02*
X175340019Y-84614738D01*
X175340019Y-84614738D02*
X175292400Y-84709976D01*
X175292400Y-84709976D02*
X175244780Y-84757595D01*
X175244780Y-84757595D02*
X175149542Y-84805214D01*
X175149542Y-84805214D02*
X174911447Y-84805214D01*
X174911447Y-84805214D02*
X174816209Y-84757595D01*
X174816209Y-84757595D02*
X174768590Y-84709976D01*
X174768590Y-84709976D02*
X174720971Y-84614738D01*
X174720971Y-84614738D02*
X174720971Y-84424262D01*
X174720971Y-84424262D02*
X174768590Y-84329024D01*
X174768590Y-84329024D02*
X174816209Y-84281405D01*
X174816209Y-84281405D02*
X174911447Y-84233786D01*
X174770019Y-87567595D02*
X173770019Y-87567595D01*
X174770019Y-88139023D02*
X174198590Y-87710452D01*
X173770019Y-88139023D02*
X174341447Y-87567595D01*
X70509019Y-142403533D02*
X70032828Y-142070200D01*
X70509019Y-141832105D02*
X69509019Y-141832105D01*
X69509019Y-141832105D02*
X69509019Y-142213057D01*
X69509019Y-142213057D02*
X69556638Y-142308295D01*
X69556638Y-142308295D02*
X69604257Y-142355914D01*
X69604257Y-142355914D02*
X69699495Y-142403533D01*
X69699495Y-142403533D02*
X69842352Y-142403533D01*
X69842352Y-142403533D02*
X69937590Y-142355914D01*
X69937590Y-142355914D02*
X69985209Y-142308295D01*
X69985209Y-142308295D02*
X70032828Y-142213057D01*
X70032828Y-142213057D02*
X70032828Y-141832105D01*
X69509019Y-142736867D02*
X69509019Y-143403533D01*
X69509019Y-143403533D02*
X70509019Y-142974962D01*
X137240019Y-120905214D02*
X136240019Y-120905214D01*
X136240019Y-120905214D02*
X136240019Y-121143309D01*
X136240019Y-121143309D02*
X136287638Y-121286166D01*
X136287638Y-121286166D02*
X136382876Y-121381404D01*
X136382876Y-121381404D02*
X136478114Y-121429023D01*
X136478114Y-121429023D02*
X136668590Y-121476642D01*
X136668590Y-121476642D02*
X136811447Y-121476642D01*
X136811447Y-121476642D02*
X137001923Y-121429023D01*
X137001923Y-121429023D02*
X137097161Y-121381404D01*
X137097161Y-121381404D02*
X137192400Y-121286166D01*
X137192400Y-121286166D02*
X137240019Y-121143309D01*
X137240019Y-121143309D02*
X137240019Y-120905214D01*
X136240019Y-121809976D02*
X136240019Y-122429023D01*
X136240019Y-122429023D02*
X136620971Y-122095690D01*
X136620971Y-122095690D02*
X136620971Y-122238547D01*
X136620971Y-122238547D02*
X136668590Y-122333785D01*
X136668590Y-122333785D02*
X136716209Y-122381404D01*
X136716209Y-122381404D02*
X136811447Y-122429023D01*
X136811447Y-122429023D02*
X137049542Y-122429023D01*
X137049542Y-122429023D02*
X137144780Y-122381404D01*
X137144780Y-122381404D02*
X137192400Y-122333785D01*
X137192400Y-122333785D02*
X137240019Y-122238547D01*
X137240019Y-122238547D02*
X137240019Y-121952833D01*
X137240019Y-121952833D02*
X137192400Y-121857595D01*
X137192400Y-121857595D02*
X137144780Y-121809976D01*
X136240019Y-123048071D02*
X136240019Y-123143309D01*
X136240019Y-123143309D02*
X136287638Y-123238547D01*
X136287638Y-123238547D02*
X136335257Y-123286166D01*
X136335257Y-123286166D02*
X136430495Y-123333785D01*
X136430495Y-123333785D02*
X136620971Y-123381404D01*
X136620971Y-123381404D02*
X136859066Y-123381404D01*
X136859066Y-123381404D02*
X137049542Y-123333785D01*
X137049542Y-123333785D02*
X137144780Y-123286166D01*
X137144780Y-123286166D02*
X137192400Y-123238547D01*
X137192400Y-123238547D02*
X137240019Y-123143309D01*
X137240019Y-123143309D02*
X137240019Y-123048071D01*
X137240019Y-123048071D02*
X137192400Y-122952833D01*
X137192400Y-122952833D02*
X137144780Y-122905214D01*
X137144780Y-122905214D02*
X137049542Y-122857595D01*
X137049542Y-122857595D02*
X136859066Y-122809976D01*
X136859066Y-122809976D02*
X136620971Y-122809976D01*
X136620971Y-122809976D02*
X136430495Y-122857595D01*
X136430495Y-122857595D02*
X136335257Y-122905214D01*
X136335257Y-122905214D02*
X136287638Y-122952833D01*
X136287638Y-122952833D02*
X136240019Y-123048071D01*
X136670019Y-125667595D02*
X135670019Y-125667595D01*
X136670019Y-126239023D02*
X136098590Y-125810452D01*
X135670019Y-126239023D02*
X136241447Y-125667595D01*
X194390019Y-120905214D02*
X193390019Y-120905214D01*
X193390019Y-120905214D02*
X193390019Y-121143309D01*
X193390019Y-121143309D02*
X193437638Y-121286166D01*
X193437638Y-121286166D02*
X193532876Y-121381404D01*
X193532876Y-121381404D02*
X193628114Y-121429023D01*
X193628114Y-121429023D02*
X193818590Y-121476642D01*
X193818590Y-121476642D02*
X193961447Y-121476642D01*
X193961447Y-121476642D02*
X194151923Y-121429023D01*
X194151923Y-121429023D02*
X194247161Y-121381404D01*
X194247161Y-121381404D02*
X194342400Y-121286166D01*
X194342400Y-121286166D02*
X194390019Y-121143309D01*
X194390019Y-121143309D02*
X194390019Y-120905214D01*
X193390019Y-121809976D02*
X193390019Y-122429023D01*
X193390019Y-122429023D02*
X193770971Y-122095690D01*
X193770971Y-122095690D02*
X193770971Y-122238547D01*
X193770971Y-122238547D02*
X193818590Y-122333785D01*
X193818590Y-122333785D02*
X193866209Y-122381404D01*
X193866209Y-122381404D02*
X193961447Y-122429023D01*
X193961447Y-122429023D02*
X194199542Y-122429023D01*
X194199542Y-122429023D02*
X194294780Y-122381404D01*
X194294780Y-122381404D02*
X194342400Y-122333785D01*
X194342400Y-122333785D02*
X194390019Y-122238547D01*
X194390019Y-122238547D02*
X194390019Y-121952833D01*
X194390019Y-121952833D02*
X194342400Y-121857595D01*
X194342400Y-121857595D02*
X194294780Y-121809976D01*
X193390019Y-122762357D02*
X193390019Y-123381404D01*
X193390019Y-123381404D02*
X193770971Y-123048071D01*
X193770971Y-123048071D02*
X193770971Y-123190928D01*
X193770971Y-123190928D02*
X193818590Y-123286166D01*
X193818590Y-123286166D02*
X193866209Y-123333785D01*
X193866209Y-123333785D02*
X193961447Y-123381404D01*
X193961447Y-123381404D02*
X194199542Y-123381404D01*
X194199542Y-123381404D02*
X194294780Y-123333785D01*
X194294780Y-123333785D02*
X194342400Y-123286166D01*
X194342400Y-123286166D02*
X194390019Y-123190928D01*
X194390019Y-123190928D02*
X194390019Y-122905214D01*
X194390019Y-122905214D02*
X194342400Y-122809976D01*
X194342400Y-122809976D02*
X194294780Y-122762357D01*
X193820019Y-125667595D02*
X192820019Y-125667595D01*
X193820019Y-126239023D02*
X193248590Y-125810452D01*
X192820019Y-126239023D02*
X193391447Y-125667595D01*
X156290019Y-120905214D02*
X155290019Y-120905214D01*
X155290019Y-120905214D02*
X155290019Y-121143309D01*
X155290019Y-121143309D02*
X155337638Y-121286166D01*
X155337638Y-121286166D02*
X155432876Y-121381404D01*
X155432876Y-121381404D02*
X155528114Y-121429023D01*
X155528114Y-121429023D02*
X155718590Y-121476642D01*
X155718590Y-121476642D02*
X155861447Y-121476642D01*
X155861447Y-121476642D02*
X156051923Y-121429023D01*
X156051923Y-121429023D02*
X156147161Y-121381404D01*
X156147161Y-121381404D02*
X156242400Y-121286166D01*
X156242400Y-121286166D02*
X156290019Y-121143309D01*
X156290019Y-121143309D02*
X156290019Y-120905214D01*
X155290019Y-121809976D02*
X155290019Y-122429023D01*
X155290019Y-122429023D02*
X155670971Y-122095690D01*
X155670971Y-122095690D02*
X155670971Y-122238547D01*
X155670971Y-122238547D02*
X155718590Y-122333785D01*
X155718590Y-122333785D02*
X155766209Y-122381404D01*
X155766209Y-122381404D02*
X155861447Y-122429023D01*
X155861447Y-122429023D02*
X156099542Y-122429023D01*
X156099542Y-122429023D02*
X156194780Y-122381404D01*
X156194780Y-122381404D02*
X156242400Y-122333785D01*
X156242400Y-122333785D02*
X156290019Y-122238547D01*
X156290019Y-122238547D02*
X156290019Y-121952833D01*
X156290019Y-121952833D02*
X156242400Y-121857595D01*
X156242400Y-121857595D02*
X156194780Y-121809976D01*
X156290019Y-123381404D02*
X156290019Y-122809976D01*
X156290019Y-123095690D02*
X155290019Y-123095690D01*
X155290019Y-123095690D02*
X155432876Y-123000452D01*
X155432876Y-123000452D02*
X155528114Y-122905214D01*
X155528114Y-122905214D02*
X155575733Y-122809976D01*
X155720019Y-125667595D02*
X154720019Y-125667595D01*
X155720019Y-126239023D02*
X155148590Y-125810452D01*
X154720019Y-126239023D02*
X155291447Y-125667595D01*
X135792219Y-134164014D02*
X134792219Y-134164014D01*
X134792219Y-134164014D02*
X134792219Y-134402109D01*
X134792219Y-134402109D02*
X134839838Y-134544966D01*
X134839838Y-134544966D02*
X134935076Y-134640204D01*
X134935076Y-134640204D02*
X135030314Y-134687823D01*
X135030314Y-134687823D02*
X135220790Y-134735442D01*
X135220790Y-134735442D02*
X135363647Y-134735442D01*
X135363647Y-134735442D02*
X135554123Y-134687823D01*
X135554123Y-134687823D02*
X135649361Y-134640204D01*
X135649361Y-134640204D02*
X135744600Y-134544966D01*
X135744600Y-134544966D02*
X135792219Y-134402109D01*
X135792219Y-134402109D02*
X135792219Y-134164014D01*
X135125552Y-135592585D02*
X135792219Y-135592585D01*
X134744600Y-135354490D02*
X135458885Y-135116395D01*
X135458885Y-135116395D02*
X135458885Y-135735442D01*
X134792219Y-136021157D02*
X134792219Y-136640204D01*
X134792219Y-136640204D02*
X135173171Y-136306871D01*
X135173171Y-136306871D02*
X135173171Y-136449728D01*
X135173171Y-136449728D02*
X135220790Y-136544966D01*
X135220790Y-136544966D02*
X135268409Y-136592585D01*
X135268409Y-136592585D02*
X135363647Y-136640204D01*
X135363647Y-136640204D02*
X135601742Y-136640204D01*
X135601742Y-136640204D02*
X135696980Y-136592585D01*
X135696980Y-136592585D02*
X135744600Y-136544966D01*
X135744600Y-136544966D02*
X135792219Y-136449728D01*
X135792219Y-136449728D02*
X135792219Y-136164014D01*
X135792219Y-136164014D02*
X135744600Y-136068776D01*
X135744600Y-136068776D02*
X135696980Y-136021157D01*
X135222219Y-138926395D02*
X134222219Y-138926395D01*
X135222219Y-139497823D02*
X134650790Y-139069252D01*
X134222219Y-139497823D02*
X134793647Y-138926395D01*
X232490019Y-120905214D02*
X231490019Y-120905214D01*
X231490019Y-120905214D02*
X231490019Y-121143309D01*
X231490019Y-121143309D02*
X231537638Y-121286166D01*
X231537638Y-121286166D02*
X231632876Y-121381404D01*
X231632876Y-121381404D02*
X231728114Y-121429023D01*
X231728114Y-121429023D02*
X231918590Y-121476642D01*
X231918590Y-121476642D02*
X232061447Y-121476642D01*
X232061447Y-121476642D02*
X232251923Y-121429023D01*
X232251923Y-121429023D02*
X232347161Y-121381404D01*
X232347161Y-121381404D02*
X232442400Y-121286166D01*
X232442400Y-121286166D02*
X232490019Y-121143309D01*
X232490019Y-121143309D02*
X232490019Y-120905214D01*
X231490019Y-121809976D02*
X231490019Y-122429023D01*
X231490019Y-122429023D02*
X231870971Y-122095690D01*
X231870971Y-122095690D02*
X231870971Y-122238547D01*
X231870971Y-122238547D02*
X231918590Y-122333785D01*
X231918590Y-122333785D02*
X231966209Y-122381404D01*
X231966209Y-122381404D02*
X232061447Y-122429023D01*
X232061447Y-122429023D02*
X232299542Y-122429023D01*
X232299542Y-122429023D02*
X232394780Y-122381404D01*
X232394780Y-122381404D02*
X232442400Y-122333785D01*
X232442400Y-122333785D02*
X232490019Y-122238547D01*
X232490019Y-122238547D02*
X232490019Y-121952833D01*
X232490019Y-121952833D02*
X232442400Y-121857595D01*
X232442400Y-121857595D02*
X232394780Y-121809976D01*
X231490019Y-123333785D02*
X231490019Y-122857595D01*
X231490019Y-122857595D02*
X231966209Y-122809976D01*
X231966209Y-122809976D02*
X231918590Y-122857595D01*
X231918590Y-122857595D02*
X231870971Y-122952833D01*
X231870971Y-122952833D02*
X231870971Y-123190928D01*
X231870971Y-123190928D02*
X231918590Y-123286166D01*
X231918590Y-123286166D02*
X231966209Y-123333785D01*
X231966209Y-123333785D02*
X232061447Y-123381404D01*
X232061447Y-123381404D02*
X232299542Y-123381404D01*
X232299542Y-123381404D02*
X232394780Y-123333785D01*
X232394780Y-123333785D02*
X232442400Y-123286166D01*
X232442400Y-123286166D02*
X232490019Y-123190928D01*
X232490019Y-123190928D02*
X232490019Y-122952833D01*
X232490019Y-122952833D02*
X232442400Y-122857595D01*
X232442400Y-122857595D02*
X232394780Y-122809976D01*
X231920019Y-125667595D02*
X230920019Y-125667595D01*
X231920019Y-126239023D02*
X231348590Y-125810452D01*
X230920019Y-126239023D02*
X231491447Y-125667595D01*
X192708066Y-80688219D02*
X192708066Y-79688219D01*
X192708066Y-80164409D02*
X192136638Y-80164409D01*
X192136638Y-80688219D02*
X192136638Y-79688219D01*
X191184257Y-80688219D02*
X191660447Y-80688219D01*
X191660447Y-80688219D02*
X191660447Y-79688219D01*
X190708066Y-80116790D02*
X190803304Y-80069171D01*
X190803304Y-80069171D02*
X190850923Y-80021552D01*
X190850923Y-80021552D02*
X190898542Y-79926314D01*
X190898542Y-79926314D02*
X190898542Y-79878695D01*
X190898542Y-79878695D02*
X190850923Y-79783457D01*
X190850923Y-79783457D02*
X190803304Y-79735838D01*
X190803304Y-79735838D02*
X190708066Y-79688219D01*
X190708066Y-79688219D02*
X190517590Y-79688219D01*
X190517590Y-79688219D02*
X190422352Y-79735838D01*
X190422352Y-79735838D02*
X190374733Y-79783457D01*
X190374733Y-79783457D02*
X190327114Y-79878695D01*
X190327114Y-79878695D02*
X190327114Y-79926314D01*
X190327114Y-79926314D02*
X190374733Y-80021552D01*
X190374733Y-80021552D02*
X190422352Y-80069171D01*
X190422352Y-80069171D02*
X190517590Y-80116790D01*
X190517590Y-80116790D02*
X190708066Y-80116790D01*
X190708066Y-80116790D02*
X190803304Y-80164409D01*
X190803304Y-80164409D02*
X190850923Y-80212028D01*
X190850923Y-80212028D02*
X190898542Y-80307266D01*
X190898542Y-80307266D02*
X190898542Y-80497742D01*
X190898542Y-80497742D02*
X190850923Y-80592980D01*
X190850923Y-80592980D02*
X190803304Y-80640600D01*
X190803304Y-80640600D02*
X190708066Y-80688219D01*
X190708066Y-80688219D02*
X190517590Y-80688219D01*
X190517590Y-80688219D02*
X190422352Y-80640600D01*
X190422352Y-80640600D02*
X190374733Y-80592980D01*
X190374733Y-80592980D02*
X190327114Y-80497742D01*
X190327114Y-80497742D02*
X190327114Y-80307266D01*
X190327114Y-80307266D02*
X190374733Y-80212028D01*
X190374733Y-80212028D02*
X190422352Y-80164409D01*
X190422352Y-80164409D02*
X190517590Y-80116790D01*
X187105685Y-78788219D02*
X187677113Y-78788219D01*
X187391399Y-78788219D02*
X187391399Y-77788219D01*
X187391399Y-77788219D02*
X187486637Y-77931076D01*
X187486637Y-77931076D02*
X187581875Y-78026314D01*
X187581875Y-78026314D02*
X187677113Y-78073933D01*
X156290019Y-83281405D02*
X155290019Y-83281405D01*
X155290019Y-83281405D02*
X155290019Y-83519500D01*
X155290019Y-83519500D02*
X155337638Y-83662357D01*
X155337638Y-83662357D02*
X155432876Y-83757595D01*
X155432876Y-83757595D02*
X155528114Y-83805214D01*
X155528114Y-83805214D02*
X155718590Y-83852833D01*
X155718590Y-83852833D02*
X155861447Y-83852833D01*
X155861447Y-83852833D02*
X156051923Y-83805214D01*
X156051923Y-83805214D02*
X156147161Y-83757595D01*
X156147161Y-83757595D02*
X156242400Y-83662357D01*
X156242400Y-83662357D02*
X156290019Y-83519500D01*
X156290019Y-83519500D02*
X156290019Y-83281405D01*
X155290019Y-84757595D02*
X155290019Y-84281405D01*
X155290019Y-84281405D02*
X155766209Y-84233786D01*
X155766209Y-84233786D02*
X155718590Y-84281405D01*
X155718590Y-84281405D02*
X155670971Y-84376643D01*
X155670971Y-84376643D02*
X155670971Y-84614738D01*
X155670971Y-84614738D02*
X155718590Y-84709976D01*
X155718590Y-84709976D02*
X155766209Y-84757595D01*
X155766209Y-84757595D02*
X155861447Y-84805214D01*
X155861447Y-84805214D02*
X156099542Y-84805214D01*
X156099542Y-84805214D02*
X156194780Y-84757595D01*
X156194780Y-84757595D02*
X156242400Y-84709976D01*
X156242400Y-84709976D02*
X156290019Y-84614738D01*
X156290019Y-84614738D02*
X156290019Y-84376643D01*
X156290019Y-84376643D02*
X156242400Y-84281405D01*
X156242400Y-84281405D02*
X156194780Y-84233786D01*
X155720019Y-87567595D02*
X154720019Y-87567595D01*
X155720019Y-88139023D02*
X155148590Y-87710452D01*
X154720019Y-88139023D02*
X155291447Y-87567595D01*
X294415219Y-134164014D02*
X293415219Y-134164014D01*
X293415219Y-134164014D02*
X293415219Y-134402109D01*
X293415219Y-134402109D02*
X293462838Y-134544966D01*
X293462838Y-134544966D02*
X293558076Y-134640204D01*
X293558076Y-134640204D02*
X293653314Y-134687823D01*
X293653314Y-134687823D02*
X293843790Y-134735442D01*
X293843790Y-134735442D02*
X293986647Y-134735442D01*
X293986647Y-134735442D02*
X294177123Y-134687823D01*
X294177123Y-134687823D02*
X294272361Y-134640204D01*
X294272361Y-134640204D02*
X294367600Y-134544966D01*
X294367600Y-134544966D02*
X294415219Y-134402109D01*
X294415219Y-134402109D02*
X294415219Y-134164014D01*
X293748552Y-135592585D02*
X294415219Y-135592585D01*
X293367600Y-135354490D02*
X294081885Y-135116395D01*
X294081885Y-135116395D02*
X294081885Y-135735442D01*
X293415219Y-136021157D02*
X293415219Y-136687823D01*
X293415219Y-136687823D02*
X294415219Y-136259252D01*
X293845219Y-138926395D02*
X292845219Y-138926395D01*
X293845219Y-139497823D02*
X293273790Y-139069252D01*
X292845219Y-139497823D02*
X293416647Y-138926395D01*
X242015019Y-101855214D02*
X241015019Y-101855214D01*
X241015019Y-101855214D02*
X241015019Y-102093309D01*
X241015019Y-102093309D02*
X241062638Y-102236166D01*
X241062638Y-102236166D02*
X241157876Y-102331404D01*
X241157876Y-102331404D02*
X241253114Y-102379023D01*
X241253114Y-102379023D02*
X241443590Y-102426642D01*
X241443590Y-102426642D02*
X241586447Y-102426642D01*
X241586447Y-102426642D02*
X241776923Y-102379023D01*
X241776923Y-102379023D02*
X241872161Y-102331404D01*
X241872161Y-102331404D02*
X241967400Y-102236166D01*
X241967400Y-102236166D02*
X242015019Y-102093309D01*
X242015019Y-102093309D02*
X242015019Y-101855214D01*
X241110257Y-102807595D02*
X241062638Y-102855214D01*
X241062638Y-102855214D02*
X241015019Y-102950452D01*
X241015019Y-102950452D02*
X241015019Y-103188547D01*
X241015019Y-103188547D02*
X241062638Y-103283785D01*
X241062638Y-103283785D02*
X241110257Y-103331404D01*
X241110257Y-103331404D02*
X241205495Y-103379023D01*
X241205495Y-103379023D02*
X241300733Y-103379023D01*
X241300733Y-103379023D02*
X241443590Y-103331404D01*
X241443590Y-103331404D02*
X242015019Y-102759976D01*
X242015019Y-102759976D02*
X242015019Y-103379023D01*
X241015019Y-103712357D02*
X241015019Y-104331404D01*
X241015019Y-104331404D02*
X241395971Y-103998071D01*
X241395971Y-103998071D02*
X241395971Y-104140928D01*
X241395971Y-104140928D02*
X241443590Y-104236166D01*
X241443590Y-104236166D02*
X241491209Y-104283785D01*
X241491209Y-104283785D02*
X241586447Y-104331404D01*
X241586447Y-104331404D02*
X241824542Y-104331404D01*
X241824542Y-104331404D02*
X241919780Y-104283785D01*
X241919780Y-104283785D02*
X241967400Y-104236166D01*
X241967400Y-104236166D02*
X242015019Y-104140928D01*
X242015019Y-104140928D02*
X242015019Y-103855214D01*
X242015019Y-103855214D02*
X241967400Y-103759976D01*
X241967400Y-103759976D02*
X241919780Y-103712357D01*
X241445019Y-106617595D02*
X240445019Y-106617595D01*
X241445019Y-107189023D02*
X240873590Y-106760452D01*
X240445019Y-107189023D02*
X241016447Y-106617595D01*
X338204819Y-101855214D02*
X337204819Y-101855214D01*
X337204819Y-101855214D02*
X337204819Y-102093309D01*
X337204819Y-102093309D02*
X337252438Y-102236166D01*
X337252438Y-102236166D02*
X337347676Y-102331404D01*
X337347676Y-102331404D02*
X337442914Y-102379023D01*
X337442914Y-102379023D02*
X337633390Y-102426642D01*
X337633390Y-102426642D02*
X337776247Y-102426642D01*
X337776247Y-102426642D02*
X337966723Y-102379023D01*
X337966723Y-102379023D02*
X338061961Y-102331404D01*
X338061961Y-102331404D02*
X338157200Y-102236166D01*
X338157200Y-102236166D02*
X338204819Y-102093309D01*
X338204819Y-102093309D02*
X338204819Y-101855214D01*
X337300057Y-102807595D02*
X337252438Y-102855214D01*
X337252438Y-102855214D02*
X337204819Y-102950452D01*
X337204819Y-102950452D02*
X337204819Y-103188547D01*
X337204819Y-103188547D02*
X337252438Y-103283785D01*
X337252438Y-103283785D02*
X337300057Y-103331404D01*
X337300057Y-103331404D02*
X337395295Y-103379023D01*
X337395295Y-103379023D02*
X337490533Y-103379023D01*
X337490533Y-103379023D02*
X337633390Y-103331404D01*
X337633390Y-103331404D02*
X338204819Y-102759976D01*
X338204819Y-102759976D02*
X338204819Y-103379023D01*
X337204819Y-103712357D02*
X337204819Y-104379023D01*
X337204819Y-104379023D02*
X338204819Y-103950452D01*
X337634819Y-106617595D02*
X336634819Y-106617595D01*
X337634819Y-107189023D02*
X337063390Y-106760452D01*
X336634819Y-107189023D02*
X337206247Y-106617595D01*
X132464819Y-134164014D02*
X131464819Y-134164014D01*
X131464819Y-134164014D02*
X131464819Y-134402109D01*
X131464819Y-134402109D02*
X131512438Y-134544966D01*
X131512438Y-134544966D02*
X131607676Y-134640204D01*
X131607676Y-134640204D02*
X131702914Y-134687823D01*
X131702914Y-134687823D02*
X131893390Y-134735442D01*
X131893390Y-134735442D02*
X132036247Y-134735442D01*
X132036247Y-134735442D02*
X132226723Y-134687823D01*
X132226723Y-134687823D02*
X132321961Y-134640204D01*
X132321961Y-134640204D02*
X132417200Y-134544966D01*
X132417200Y-134544966D02*
X132464819Y-134402109D01*
X132464819Y-134402109D02*
X132464819Y-134164014D01*
X131798152Y-135592585D02*
X132464819Y-135592585D01*
X131417200Y-135354490D02*
X132131485Y-135116395D01*
X132131485Y-135116395D02*
X132131485Y-135735442D01*
X131560057Y-136068776D02*
X131512438Y-136116395D01*
X131512438Y-136116395D02*
X131464819Y-136211633D01*
X131464819Y-136211633D02*
X131464819Y-136449728D01*
X131464819Y-136449728D02*
X131512438Y-136544966D01*
X131512438Y-136544966D02*
X131560057Y-136592585D01*
X131560057Y-136592585D02*
X131655295Y-136640204D01*
X131655295Y-136640204D02*
X131750533Y-136640204D01*
X131750533Y-136640204D02*
X131893390Y-136592585D01*
X131893390Y-136592585D02*
X132464819Y-136021157D01*
X132464819Y-136021157D02*
X132464819Y-136640204D01*
X131894819Y-138926395D02*
X130894819Y-138926395D01*
X131894819Y-139497823D02*
X131323390Y-139069252D01*
X130894819Y-139497823D02*
X131466247Y-138926395D01*
X146739619Y-101855214D02*
X145739619Y-101855214D01*
X145739619Y-101855214D02*
X145739619Y-102093309D01*
X145739619Y-102093309D02*
X145787238Y-102236166D01*
X145787238Y-102236166D02*
X145882476Y-102331404D01*
X145882476Y-102331404D02*
X145977714Y-102379023D01*
X145977714Y-102379023D02*
X146168190Y-102426642D01*
X146168190Y-102426642D02*
X146311047Y-102426642D01*
X146311047Y-102426642D02*
X146501523Y-102379023D01*
X146501523Y-102379023D02*
X146596761Y-102331404D01*
X146596761Y-102331404D02*
X146692000Y-102236166D01*
X146692000Y-102236166D02*
X146739619Y-102093309D01*
X146739619Y-102093309D02*
X146739619Y-101855214D01*
X146739619Y-103379023D02*
X146739619Y-102807595D01*
X146739619Y-103093309D02*
X145739619Y-103093309D01*
X145739619Y-103093309D02*
X145882476Y-102998071D01*
X145882476Y-102998071D02*
X145977714Y-102902833D01*
X145977714Y-102902833D02*
X146025333Y-102807595D01*
X146168190Y-103950452D02*
X146120571Y-103855214D01*
X146120571Y-103855214D02*
X146072952Y-103807595D01*
X146072952Y-103807595D02*
X145977714Y-103759976D01*
X145977714Y-103759976D02*
X145930095Y-103759976D01*
X145930095Y-103759976D02*
X145834857Y-103807595D01*
X145834857Y-103807595D02*
X145787238Y-103855214D01*
X145787238Y-103855214D02*
X145739619Y-103950452D01*
X145739619Y-103950452D02*
X145739619Y-104140928D01*
X145739619Y-104140928D02*
X145787238Y-104236166D01*
X145787238Y-104236166D02*
X145834857Y-104283785D01*
X145834857Y-104283785D02*
X145930095Y-104331404D01*
X145930095Y-104331404D02*
X145977714Y-104331404D01*
X145977714Y-104331404D02*
X146072952Y-104283785D01*
X146072952Y-104283785D02*
X146120571Y-104236166D01*
X146120571Y-104236166D02*
X146168190Y-104140928D01*
X146168190Y-104140928D02*
X146168190Y-103950452D01*
X146168190Y-103950452D02*
X146215809Y-103855214D01*
X146215809Y-103855214D02*
X146263428Y-103807595D01*
X146263428Y-103807595D02*
X146358666Y-103759976D01*
X146358666Y-103759976D02*
X146549142Y-103759976D01*
X146549142Y-103759976D02*
X146644380Y-103807595D01*
X146644380Y-103807595D02*
X146692000Y-103855214D01*
X146692000Y-103855214D02*
X146739619Y-103950452D01*
X146739619Y-103950452D02*
X146739619Y-104140928D01*
X146739619Y-104140928D02*
X146692000Y-104236166D01*
X146692000Y-104236166D02*
X146644380Y-104283785D01*
X146644380Y-104283785D02*
X146549142Y-104331404D01*
X146549142Y-104331404D02*
X146358666Y-104331404D01*
X146358666Y-104331404D02*
X146263428Y-104283785D01*
X146263428Y-104283785D02*
X146215809Y-104236166D01*
X146215809Y-104236166D02*
X146168190Y-104140928D01*
X146169619Y-106617595D02*
X145169619Y-106617595D01*
X146169619Y-107189023D02*
X145598190Y-106760452D01*
X145169619Y-107189023D02*
X145741047Y-106617595D01*
X174842466Y-144473819D02*
X175175799Y-143997628D01*
X175413894Y-144473819D02*
X175413894Y-143473819D01*
X175413894Y-143473819D02*
X175032942Y-143473819D01*
X175032942Y-143473819D02*
X174937704Y-143521438D01*
X174937704Y-143521438D02*
X174890085Y-143569057D01*
X174890085Y-143569057D02*
X174842466Y-143664295D01*
X174842466Y-143664295D02*
X174842466Y-143807152D01*
X174842466Y-143807152D02*
X174890085Y-143902390D01*
X174890085Y-143902390D02*
X174937704Y-143950009D01*
X174937704Y-143950009D02*
X175032942Y-143997628D01*
X175032942Y-143997628D02*
X175413894Y-143997628D01*
X173985323Y-143807152D02*
X173985323Y-144473819D01*
X174223418Y-143426200D02*
X174461513Y-144140485D01*
X174461513Y-144140485D02*
X173842466Y-144140485D01*
X177697700Y-128716701D02*
X177765044Y-128716701D01*
X177765044Y-128716701D02*
X177899731Y-128649357D01*
X177899731Y-128649357D02*
X177967074Y-128582014D01*
X177967074Y-128582014D02*
X178034418Y-128447327D01*
X178034418Y-128447327D02*
X178034418Y-128312640D01*
X178034418Y-128312640D02*
X178000746Y-128211625D01*
X178000746Y-128211625D02*
X177899731Y-128043266D01*
X177899731Y-128043266D02*
X177798716Y-127942251D01*
X177798716Y-127942251D02*
X177630357Y-127841235D01*
X177630357Y-127841235D02*
X177529342Y-127807564D01*
X177529342Y-127807564D02*
X177394655Y-127807564D01*
X177394655Y-127807564D02*
X177259968Y-127874907D01*
X177259968Y-127874907D02*
X177192624Y-127942251D01*
X177192624Y-127942251D02*
X177125281Y-128076938D01*
X177125281Y-128076938D02*
X177125281Y-128144281D01*
X176687548Y-128918731D02*
X177158952Y-129390136D01*
X176586533Y-128480999D02*
X177259968Y-128817716D01*
X177259968Y-128817716D02*
X176822235Y-129255449D01*
X180409962Y-128164806D02*
X180073244Y-128501524D01*
X181016053Y-128030119D02*
X180409962Y-128164806D01*
X180409962Y-128164806D02*
X180544649Y-127558715D01*
X179231451Y-127659730D02*
X179635512Y-128063791D01*
X179433481Y-127861760D02*
X180140588Y-127154654D01*
X180140588Y-127154654D02*
X180106916Y-127323012D01*
X180106916Y-127323012D02*
X180106916Y-127457699D01*
X180106916Y-127457699D02*
X180140588Y-127558715D01*
X249756466Y-80662819D02*
X249756466Y-79662819D01*
X249756466Y-80139009D02*
X249185038Y-80139009D01*
X249185038Y-80662819D02*
X249185038Y-79662819D01*
X248232657Y-80662819D02*
X248708847Y-80662819D01*
X248708847Y-80662819D02*
X248708847Y-79662819D01*
X247994561Y-79662819D02*
X247327895Y-79662819D01*
X247327895Y-79662819D02*
X247756466Y-80662819D01*
X244154085Y-78762819D02*
X244725513Y-78762819D01*
X244439799Y-78762819D02*
X244439799Y-77762819D01*
X244439799Y-77762819D02*
X244535037Y-77905676D01*
X244535037Y-77905676D02*
X244630275Y-78000914D01*
X244630275Y-78000914D02*
X244725513Y-78048533D01*
X270564619Y-120905214D02*
X269564619Y-120905214D01*
X269564619Y-120905214D02*
X269564619Y-121143309D01*
X269564619Y-121143309D02*
X269612238Y-121286166D01*
X269612238Y-121286166D02*
X269707476Y-121381404D01*
X269707476Y-121381404D02*
X269802714Y-121429023D01*
X269802714Y-121429023D02*
X269993190Y-121476642D01*
X269993190Y-121476642D02*
X270136047Y-121476642D01*
X270136047Y-121476642D02*
X270326523Y-121429023D01*
X270326523Y-121429023D02*
X270421761Y-121381404D01*
X270421761Y-121381404D02*
X270517000Y-121286166D01*
X270517000Y-121286166D02*
X270564619Y-121143309D01*
X270564619Y-121143309D02*
X270564619Y-120905214D01*
X269564619Y-121809976D02*
X269564619Y-122429023D01*
X269564619Y-122429023D02*
X269945571Y-122095690D01*
X269945571Y-122095690D02*
X269945571Y-122238547D01*
X269945571Y-122238547D02*
X269993190Y-122333785D01*
X269993190Y-122333785D02*
X270040809Y-122381404D01*
X270040809Y-122381404D02*
X270136047Y-122429023D01*
X270136047Y-122429023D02*
X270374142Y-122429023D01*
X270374142Y-122429023D02*
X270469380Y-122381404D01*
X270469380Y-122381404D02*
X270517000Y-122333785D01*
X270517000Y-122333785D02*
X270564619Y-122238547D01*
X270564619Y-122238547D02*
X270564619Y-121952833D01*
X270564619Y-121952833D02*
X270517000Y-121857595D01*
X270517000Y-121857595D02*
X270469380Y-121809976D01*
X269564619Y-122762357D02*
X269564619Y-123429023D01*
X269564619Y-123429023D02*
X270564619Y-123000452D01*
X269994619Y-125667595D02*
X268994619Y-125667595D01*
X269994619Y-126239023D02*
X269423190Y-125810452D01*
X268994619Y-126239023D02*
X269566047Y-125667595D01*
X86059019Y-101855214D02*
X85059019Y-101855214D01*
X85059019Y-101855214D02*
X85059019Y-102093309D01*
X85059019Y-102093309D02*
X85106638Y-102236166D01*
X85106638Y-102236166D02*
X85201876Y-102331404D01*
X85201876Y-102331404D02*
X85297114Y-102379023D01*
X85297114Y-102379023D02*
X85487590Y-102426642D01*
X85487590Y-102426642D02*
X85630447Y-102426642D01*
X85630447Y-102426642D02*
X85820923Y-102379023D01*
X85820923Y-102379023D02*
X85916161Y-102331404D01*
X85916161Y-102331404D02*
X86011400Y-102236166D01*
X86011400Y-102236166D02*
X86059019Y-102093309D01*
X86059019Y-102093309D02*
X86059019Y-101855214D01*
X86059019Y-103379023D02*
X86059019Y-102807595D01*
X86059019Y-103093309D02*
X85059019Y-103093309D01*
X85059019Y-103093309D02*
X85201876Y-102998071D01*
X85201876Y-102998071D02*
X85297114Y-102902833D01*
X85297114Y-102902833D02*
X85344733Y-102807595D01*
X85059019Y-104283785D02*
X85059019Y-103807595D01*
X85059019Y-103807595D02*
X85535209Y-103759976D01*
X85535209Y-103759976D02*
X85487590Y-103807595D01*
X85487590Y-103807595D02*
X85439971Y-103902833D01*
X85439971Y-103902833D02*
X85439971Y-104140928D01*
X85439971Y-104140928D02*
X85487590Y-104236166D01*
X85487590Y-104236166D02*
X85535209Y-104283785D01*
X85535209Y-104283785D02*
X85630447Y-104331404D01*
X85630447Y-104331404D02*
X85868542Y-104331404D01*
X85868542Y-104331404D02*
X85963780Y-104283785D01*
X85963780Y-104283785D02*
X86011400Y-104236166D01*
X86011400Y-104236166D02*
X86059019Y-104140928D01*
X86059019Y-104140928D02*
X86059019Y-103902833D01*
X86059019Y-103902833D02*
X86011400Y-103807595D01*
X86011400Y-103807595D02*
X85963780Y-103759976D01*
X85489019Y-106617595D02*
X84489019Y-106617595D01*
X85489019Y-107189023D02*
X84917590Y-106760452D01*
X84489019Y-107189023D02*
X85060447Y-106617595D01*
X227740219Y-134164014D02*
X226740219Y-134164014D01*
X226740219Y-134164014D02*
X226740219Y-134402109D01*
X226740219Y-134402109D02*
X226787838Y-134544966D01*
X226787838Y-134544966D02*
X226883076Y-134640204D01*
X226883076Y-134640204D02*
X226978314Y-134687823D01*
X226978314Y-134687823D02*
X227168790Y-134735442D01*
X227168790Y-134735442D02*
X227311647Y-134735442D01*
X227311647Y-134735442D02*
X227502123Y-134687823D01*
X227502123Y-134687823D02*
X227597361Y-134640204D01*
X227597361Y-134640204D02*
X227692600Y-134544966D01*
X227692600Y-134544966D02*
X227740219Y-134402109D01*
X227740219Y-134402109D02*
X227740219Y-134164014D01*
X227073552Y-135592585D02*
X227740219Y-135592585D01*
X226692600Y-135354490D02*
X227406885Y-135116395D01*
X227406885Y-135116395D02*
X227406885Y-135735442D01*
X227073552Y-136544966D02*
X227740219Y-136544966D01*
X226692600Y-136306871D02*
X227406885Y-136068776D01*
X227406885Y-136068776D02*
X227406885Y-136687823D01*
X227170219Y-138926395D02*
X226170219Y-138926395D01*
X227170219Y-139497823D02*
X226598790Y-139069252D01*
X226170219Y-139497823D02*
X226741647Y-138926395D01*
X339982819Y-134164014D02*
X338982819Y-134164014D01*
X338982819Y-134164014D02*
X338982819Y-134402109D01*
X338982819Y-134402109D02*
X339030438Y-134544966D01*
X339030438Y-134544966D02*
X339125676Y-134640204D01*
X339125676Y-134640204D02*
X339220914Y-134687823D01*
X339220914Y-134687823D02*
X339411390Y-134735442D01*
X339411390Y-134735442D02*
X339554247Y-134735442D01*
X339554247Y-134735442D02*
X339744723Y-134687823D01*
X339744723Y-134687823D02*
X339839961Y-134640204D01*
X339839961Y-134640204D02*
X339935200Y-134544966D01*
X339935200Y-134544966D02*
X339982819Y-134402109D01*
X339982819Y-134402109D02*
X339982819Y-134164014D01*
X339316152Y-135592585D02*
X339982819Y-135592585D01*
X338935200Y-135354490D02*
X339649485Y-135116395D01*
X339649485Y-135116395D02*
X339649485Y-135735442D01*
X339982819Y-136164014D02*
X339982819Y-136354490D01*
X339982819Y-136354490D02*
X339935200Y-136449728D01*
X339935200Y-136449728D02*
X339887580Y-136497347D01*
X339887580Y-136497347D02*
X339744723Y-136592585D01*
X339744723Y-136592585D02*
X339554247Y-136640204D01*
X339554247Y-136640204D02*
X339173295Y-136640204D01*
X339173295Y-136640204D02*
X339078057Y-136592585D01*
X339078057Y-136592585D02*
X339030438Y-136544966D01*
X339030438Y-136544966D02*
X338982819Y-136449728D01*
X338982819Y-136449728D02*
X338982819Y-136259252D01*
X338982819Y-136259252D02*
X339030438Y-136164014D01*
X339030438Y-136164014D02*
X339078057Y-136116395D01*
X339078057Y-136116395D02*
X339173295Y-136068776D01*
X339173295Y-136068776D02*
X339411390Y-136068776D01*
X339411390Y-136068776D02*
X339506628Y-136116395D01*
X339506628Y-136116395D02*
X339554247Y-136164014D01*
X339554247Y-136164014D02*
X339601866Y-136259252D01*
X339601866Y-136259252D02*
X339601866Y-136449728D01*
X339601866Y-136449728D02*
X339554247Y-136544966D01*
X339554247Y-136544966D02*
X339506628Y-136592585D01*
X339506628Y-136592585D02*
X339411390Y-136640204D01*
X339412819Y-138926395D02*
X338412819Y-138926395D01*
X339412819Y-139497823D02*
X338841390Y-139069252D01*
X338412819Y-139497823D02*
X338984247Y-138926395D01*
X251540019Y-82805214D02*
X250540019Y-82805214D01*
X250540019Y-82805214D02*
X250540019Y-83043309D01*
X250540019Y-83043309D02*
X250587638Y-83186166D01*
X250587638Y-83186166D02*
X250682876Y-83281404D01*
X250682876Y-83281404D02*
X250778114Y-83329023D01*
X250778114Y-83329023D02*
X250968590Y-83376642D01*
X250968590Y-83376642D02*
X251111447Y-83376642D01*
X251111447Y-83376642D02*
X251301923Y-83329023D01*
X251301923Y-83329023D02*
X251397161Y-83281404D01*
X251397161Y-83281404D02*
X251492400Y-83186166D01*
X251492400Y-83186166D02*
X251540019Y-83043309D01*
X251540019Y-83043309D02*
X251540019Y-82805214D01*
X251540019Y-84329023D02*
X251540019Y-83757595D01*
X251540019Y-84043309D02*
X250540019Y-84043309D01*
X250540019Y-84043309D02*
X250682876Y-83948071D01*
X250682876Y-83948071D02*
X250778114Y-83852833D01*
X250778114Y-83852833D02*
X250825733Y-83757595D01*
X250540019Y-84948071D02*
X250540019Y-85043309D01*
X250540019Y-85043309D02*
X250587638Y-85138547D01*
X250587638Y-85138547D02*
X250635257Y-85186166D01*
X250635257Y-85186166D02*
X250730495Y-85233785D01*
X250730495Y-85233785D02*
X250920971Y-85281404D01*
X250920971Y-85281404D02*
X251159066Y-85281404D01*
X251159066Y-85281404D02*
X251349542Y-85233785D01*
X251349542Y-85233785D02*
X251444780Y-85186166D01*
X251444780Y-85186166D02*
X251492400Y-85138547D01*
X251492400Y-85138547D02*
X251540019Y-85043309D01*
X251540019Y-85043309D02*
X251540019Y-84948071D01*
X251540019Y-84948071D02*
X251492400Y-84852833D01*
X251492400Y-84852833D02*
X251444780Y-84805214D01*
X251444780Y-84805214D02*
X251349542Y-84757595D01*
X251349542Y-84757595D02*
X251159066Y-84709976D01*
X251159066Y-84709976D02*
X250920971Y-84709976D01*
X250920971Y-84709976D02*
X250730495Y-84757595D01*
X250730495Y-84757595D02*
X250635257Y-84805214D01*
X250635257Y-84805214D02*
X250587638Y-84852833D01*
X250587638Y-84852833D02*
X250540019Y-84948071D01*
X250970019Y-87567595D02*
X249970019Y-87567595D01*
X250970019Y-88139023D02*
X250398590Y-87710452D01*
X249970019Y-88139023D02*
X250541447Y-87567595D01*
X78306466Y-140337819D02*
X78306466Y-139337819D01*
X78306466Y-139814009D02*
X77735038Y-139814009D01*
X77735038Y-140337819D02*
X77735038Y-139337819D01*
X76782657Y-140337819D02*
X77258847Y-140337819D01*
X77258847Y-140337819D02*
X77258847Y-139337819D01*
X75925514Y-140337819D02*
X76496942Y-140337819D01*
X76211228Y-140337819D02*
X76211228Y-139337819D01*
X76211228Y-139337819D02*
X76306466Y-139480676D01*
X76306466Y-139480676D02*
X76401704Y-139575914D01*
X76401704Y-139575914D02*
X76496942Y-139623533D01*
X81004085Y-142237819D02*
X81575513Y-142237819D01*
X81289799Y-142237819D02*
X81289799Y-141237819D01*
X81289799Y-141237819D02*
X81385037Y-141380676D01*
X81385037Y-141380676D02*
X81480275Y-141475914D01*
X81480275Y-141475914D02*
X81575513Y-141523533D01*
X127715019Y-101855214D02*
X126715019Y-101855214D01*
X126715019Y-101855214D02*
X126715019Y-102093309D01*
X126715019Y-102093309D02*
X126762638Y-102236166D01*
X126762638Y-102236166D02*
X126857876Y-102331404D01*
X126857876Y-102331404D02*
X126953114Y-102379023D01*
X126953114Y-102379023D02*
X127143590Y-102426642D01*
X127143590Y-102426642D02*
X127286447Y-102426642D01*
X127286447Y-102426642D02*
X127476923Y-102379023D01*
X127476923Y-102379023D02*
X127572161Y-102331404D01*
X127572161Y-102331404D02*
X127667400Y-102236166D01*
X127667400Y-102236166D02*
X127715019Y-102093309D01*
X127715019Y-102093309D02*
X127715019Y-101855214D01*
X127715019Y-103379023D02*
X127715019Y-102807595D01*
X127715019Y-103093309D02*
X126715019Y-103093309D01*
X126715019Y-103093309D02*
X126857876Y-102998071D01*
X126857876Y-102998071D02*
X126953114Y-102902833D01*
X126953114Y-102902833D02*
X127000733Y-102807595D01*
X126715019Y-103712357D02*
X126715019Y-104379023D01*
X126715019Y-104379023D02*
X127715019Y-103950452D01*
X127145019Y-106617595D02*
X126145019Y-106617595D01*
X127145019Y-107189023D02*
X126573590Y-106760452D01*
X126145019Y-107189023D02*
X126716447Y-106617595D01*
D11*
X75725200Y-82379500D02*
X75725200Y-87819500D01*
X75725200Y-85989500D02*
X78665200Y-85989500D01*
X75725200Y-86229500D02*
X78665200Y-86229500D01*
X75725200Y-86919500D02*
X78665200Y-86919500D01*
X75725200Y-87819500D02*
X76055200Y-87819499D01*
X76055200Y-82379501D02*
X75725200Y-82379500D01*
X78365200Y-82379500D02*
X78695199Y-82379500D01*
X78665200Y-82379500D02*
X78665200Y-87819500D01*
X78665200Y-87819500D02*
X78335200Y-87819500D01*
X309389800Y-73958000D02*
X302089800Y-73958000D01*
X309389800Y-75108000D02*
X309389800Y-73958000D01*
X309389800Y-79458000D02*
X302089800Y-79458000D01*
X330207800Y-82379500D02*
X330207800Y-87819500D01*
X330207800Y-85989500D02*
X333147800Y-85989500D01*
X330207800Y-86229500D02*
X333147800Y-86229500D01*
X330207800Y-86919500D02*
X333147800Y-86919500D01*
X330207800Y-87819500D02*
X330537800Y-87819499D01*
X330537800Y-82379501D02*
X330207800Y-82379500D01*
X332847800Y-82379500D02*
X333177799Y-82379500D01*
X333147800Y-82379500D02*
X333147800Y-87819500D01*
X333147800Y-87819500D02*
X332817800Y-87819500D01*
X294774800Y-101429500D02*
X294774800Y-106869500D01*
X294774800Y-105039500D02*
X297714800Y-105039500D01*
X294774800Y-105279500D02*
X297714800Y-105279500D01*
X294774800Y-105969500D02*
X297714800Y-105969500D01*
X294774800Y-106869500D02*
X295104800Y-106869499D01*
X295104800Y-101429501D02*
X294774800Y-101429500D01*
X297414800Y-101429500D02*
X297744799Y-101429500D01*
X297714800Y-101429500D02*
X297714800Y-106869500D01*
X297714800Y-106869500D02*
X297384800Y-106869500D01*
D10*
X163270915Y-137436329D02*
X162836045Y-137871200D01*
X163313342Y-138348497D02*
X162836045Y-137871200D01*
X169677303Y-131029942D02*
X170154600Y-130552645D01*
X169677303Y-144712458D02*
X170154600Y-145189755D01*
X170631897Y-131029942D02*
X170154600Y-130552645D01*
X170631897Y-144712458D02*
X170154600Y-145189755D01*
X176995858Y-137393903D02*
X177473155Y-137871200D01*
X176995858Y-138348497D02*
X177473155Y-137871200D01*
D11*
X162708766Y-137510576D02*
X162227933Y-137029743D01*
X162800689Y-136937819D01*
X162708766Y-137510576D01*
G36*
X162708766Y-137510576D02*
G01*
X162227933Y-137029743D01*
X162800689Y-136937819D01*
X162708766Y-137510576D01*
G37*
X266225200Y-82379500D02*
X266225200Y-87819500D01*
X266225200Y-85989500D02*
X269165200Y-85989500D01*
X266225200Y-86229500D02*
X269165200Y-86229500D01*
X266225200Y-86919500D02*
X269165200Y-86919500D01*
X266225200Y-87819500D02*
X266555200Y-87819499D01*
X266555200Y-82379501D02*
X266225200Y-82379500D01*
X268865200Y-82379500D02*
X269195199Y-82379500D01*
X269165200Y-82379500D02*
X269165200Y-87819500D01*
X269165200Y-87819500D02*
X268835200Y-87819500D01*
X180518725Y-141344490D02*
X181748384Y-142574149D01*
X182393265Y-143219030D02*
X180950768Y-144661528D01*
X182393265Y-143219030D02*
X183064310Y-143890075D01*
X184987640Y-136875575D02*
X180518725Y-141344490D01*
X184987640Y-136875575D02*
X186217299Y-138105234D01*
X186303566Y-138191501D02*
X187533225Y-139421160D01*
X187533225Y-139421160D02*
X183064310Y-143890075D01*
X67074300Y-87654999D02*
X67874300Y-87654998D01*
X67074300Y-90774999D02*
X67874300Y-90775000D01*
X68674300Y-87654999D02*
X67874300Y-87654998D01*
X68674300Y-90774999D02*
X67874300Y-90775000D01*
X66814300Y-91054999D02*
X66334300Y-91054999D01*
X66574300Y-90724999D01*
X66814300Y-91054999D01*
G36*
X66814300Y-91054999D02*
G01*
X66334300Y-91054999D01*
X66574300Y-90724999D01*
X66814300Y-91054999D01*
G37*
X104325600Y-101429500D02*
X104325600Y-106869500D01*
X104325600Y-105039500D02*
X107265600Y-105039500D01*
X104325600Y-105279500D02*
X107265600Y-105279500D01*
X104325600Y-105969500D02*
X107265600Y-105969500D01*
X104325600Y-106869500D02*
X104655600Y-106869499D01*
X104655600Y-101429501D02*
X104325600Y-101429500D01*
X106965600Y-101429500D02*
X107295599Y-101429500D01*
X107265600Y-101429500D02*
X107265600Y-106869500D01*
X107265600Y-106869500D02*
X106935600Y-106869500D01*
X285275200Y-120479500D02*
X285275200Y-125919500D01*
X285275200Y-124089500D02*
X288215200Y-124089500D01*
X285275200Y-124329500D02*
X288215200Y-124329500D01*
X285275200Y-125019500D02*
X288215200Y-125019500D01*
X285275200Y-125919500D02*
X285605200Y-125919499D01*
X285605200Y-120479501D02*
X285275200Y-120479500D01*
X287915200Y-120479500D02*
X288245199Y-120479500D01*
X288215200Y-120479500D02*
X288215200Y-125919500D01*
X288215200Y-125919500D02*
X287885200Y-125919500D01*
X266225200Y-133738300D02*
X266225200Y-139178300D01*
X266225200Y-137348300D02*
X269165200Y-137348300D01*
X266225200Y-137588300D02*
X269165200Y-137588300D01*
X266225200Y-138278300D02*
X269165200Y-138278300D01*
X266225200Y-139178300D02*
X266555200Y-139178299D01*
X266555200Y-133738301D02*
X266225200Y-133738300D01*
X268865200Y-133738300D02*
X269195199Y-133738300D01*
X269165200Y-133738300D02*
X269165200Y-139178300D01*
X269165200Y-139178300D02*
X268835200Y-139178300D01*
X80789800Y-73958000D02*
X73489800Y-73958000D01*
X80789800Y-75108000D02*
X80789800Y-73958000D01*
X80789800Y-79458000D02*
X73489800Y-79458000D01*
X285275200Y-82379500D02*
X285275200Y-87819500D01*
X285275200Y-85989500D02*
X288215200Y-85989500D01*
X285275200Y-86229500D02*
X288215200Y-86229500D01*
X285275200Y-86919500D02*
X288215200Y-86919500D01*
X285275200Y-87819500D02*
X285605200Y-87819499D01*
X285605200Y-82379501D02*
X285275200Y-82379500D01*
X287915200Y-82379500D02*
X288245199Y-82379500D01*
X288215200Y-82379500D02*
X288215200Y-87819500D01*
X288215200Y-87819500D02*
X287885200Y-87819500D01*
X137939800Y-73958000D02*
X130639800Y-73958000D01*
X137939800Y-75108000D02*
X137939800Y-73958000D01*
X137939800Y-79458000D02*
X130639800Y-79458000D01*
X170949800Y-120479500D02*
X170949800Y-125919500D01*
X170949800Y-124089500D02*
X173889800Y-124089500D01*
X170949800Y-124329500D02*
X173889800Y-124329500D01*
X170949800Y-125019500D02*
X173889800Y-125019500D01*
X170949800Y-125919500D02*
X171279800Y-125919499D01*
X171279800Y-120479501D02*
X170949800Y-120479500D01*
X173589800Y-120479500D02*
X173919799Y-120479500D01*
X173889800Y-120479500D02*
X173889800Y-125919500D01*
X173889800Y-125919500D02*
X173559800Y-125919500D01*
X302089800Y-140633000D02*
X309389800Y-140633000D01*
X302089800Y-144983000D02*
X302089800Y-146133000D01*
X302089800Y-146133000D02*
X309389800Y-146133000D01*
X80475000Y-133755600D02*
X80475000Y-139195600D01*
X80475000Y-137365600D02*
X83415000Y-137365600D01*
X80475000Y-137605600D02*
X83415000Y-137605600D01*
X80475000Y-138295600D02*
X83415000Y-138295600D01*
X80475000Y-139195600D02*
X80805000Y-139195599D01*
X80805000Y-133755601D02*
X80475000Y-133755600D01*
X83115000Y-133755600D02*
X83444999Y-133755600D01*
X83415000Y-133755600D02*
X83415000Y-139195600D01*
X83415000Y-139195600D02*
X83085000Y-139195600D01*
X256700200Y-101429500D02*
X256700200Y-106869500D01*
X256700200Y-105039500D02*
X259640200Y-105039500D01*
X256700200Y-105279500D02*
X259640200Y-105279500D01*
X256700200Y-105969500D02*
X259640200Y-105969500D01*
X256700200Y-106869500D02*
X257030200Y-106869499D01*
X257030200Y-101429501D02*
X256700200Y-101429500D01*
X259340200Y-101429500D02*
X259670199Y-101429500D01*
X259640200Y-101429500D02*
X259640200Y-106869500D01*
X259640200Y-106869500D02*
X259310200Y-106869500D01*
X56094800Y-84555601D02*
X56094800Y-93955599D01*
X56094800Y-84555601D02*
X57994800Y-84555601D01*
X56094800Y-93955599D02*
X57994800Y-93955599D01*
X59894800Y-84555600D02*
X61894800Y-84555600D01*
X59894800Y-93955600D02*
X61894800Y-93955600D01*
X104300200Y-133738300D02*
X104300200Y-139178300D01*
X104300200Y-137348300D02*
X107240200Y-137348300D01*
X104300200Y-137588300D02*
X107240200Y-137588300D01*
X104300200Y-138278300D02*
X107240200Y-138278300D01*
X104300200Y-139178300D02*
X104630200Y-139178299D01*
X104630200Y-133738301D02*
X104300200Y-133738300D01*
X106940200Y-133738300D02*
X107270199Y-133738300D01*
X107240200Y-133738300D02*
X107240200Y-139178300D01*
X107240200Y-139178300D02*
X106910200Y-139178300D01*
X132875200Y-82379500D02*
X132875200Y-87819500D01*
X132875200Y-85989500D02*
X135815200Y-85989500D01*
X132875200Y-86229500D02*
X135815200Y-86229500D01*
X132875200Y-86919500D02*
X135815200Y-86919500D01*
X132875200Y-87819500D02*
X133205200Y-87819499D01*
X133205200Y-82379501D02*
X132875200Y-82379500D01*
X135515200Y-82379500D02*
X135845199Y-82379500D01*
X135815200Y-82379500D02*
X135815200Y-87819500D01*
X135815200Y-87819500D02*
X135485200Y-87819500D01*
X244939800Y-140633000D02*
X252239800Y-140633000D01*
X244939800Y-144983000D02*
X244939800Y-146133000D01*
X244939800Y-146133000D02*
X252239800Y-146133000D01*
X157273854Y-135612200D02*
X156751348Y-135612200D01*
X157273854Y-137082200D02*
X156751348Y-137082200D01*
X113825200Y-120479500D02*
X113825200Y-125919500D01*
X113825200Y-124089500D02*
X116765200Y-124089500D01*
X113825200Y-124329500D02*
X116765200Y-124329500D01*
X113825200Y-125019500D02*
X116765200Y-125019500D01*
X113825200Y-125919500D02*
X114155200Y-125919499D01*
X114155200Y-120479501D02*
X113825200Y-120479500D01*
X116465200Y-120479500D02*
X116795199Y-120479500D01*
X116765200Y-120479500D02*
X116765200Y-125919500D01*
X116765200Y-125919500D02*
X116435200Y-125919500D01*
X209075200Y-120479500D02*
X209075200Y-125919500D01*
X209075200Y-124089500D02*
X212015200Y-124089500D01*
X209075200Y-124329500D02*
X212015200Y-124329500D01*
X209075200Y-125019500D02*
X212015200Y-125019500D01*
X209075200Y-125919500D02*
X209405200Y-125919499D01*
X209405200Y-120479501D02*
X209075200Y-120479500D01*
X211715200Y-120479500D02*
X212045199Y-120479500D01*
X212015200Y-120479500D02*
X212015200Y-125919500D01*
X212015200Y-125919500D02*
X211685200Y-125919500D01*
X161450200Y-101429500D02*
X161450200Y-106869500D01*
X161450200Y-105039500D02*
X164390200Y-105039500D01*
X161450200Y-105279500D02*
X164390200Y-105279500D01*
X161450200Y-105969500D02*
X164390200Y-105969500D01*
X161450200Y-106869500D02*
X161780200Y-106869499D01*
X161780200Y-101429501D02*
X161450200Y-101429500D01*
X164090200Y-101429500D02*
X164420199Y-101429500D01*
X164390200Y-101429500D02*
X164390200Y-106869500D01*
X164390200Y-106869500D02*
X164060200Y-106869500D01*
X242425400Y-133738300D02*
X242425400Y-139178300D01*
X242425400Y-137348300D02*
X245365400Y-137348300D01*
X242425400Y-137588300D02*
X245365400Y-137588300D01*
X242425400Y-138278300D02*
X245365400Y-138278300D01*
X242425400Y-139178300D02*
X242755400Y-139178299D01*
X242755400Y-133738301D02*
X242425400Y-133738300D01*
X245065400Y-133738300D02*
X245395399Y-133738300D01*
X245365400Y-133738300D02*
X245365400Y-139178300D01*
X245365400Y-139178300D02*
X245035400Y-139178300D01*
X94749800Y-120479500D02*
X94749800Y-125919500D01*
X94749800Y-124089500D02*
X97689800Y-124089500D01*
X94749800Y-124329500D02*
X97689800Y-124329500D01*
X94749800Y-125019500D02*
X97689800Y-125019500D01*
X94749800Y-125919500D02*
X95079800Y-125919499D01*
X95079800Y-120479501D02*
X94749800Y-120479500D01*
X97389800Y-120479500D02*
X97719799Y-120479500D01*
X97689800Y-120479500D02*
X97689800Y-125919500D01*
X97689800Y-125919500D02*
X97359800Y-125919500D01*
X189999800Y-82379500D02*
X189999800Y-87819500D01*
X189999800Y-85989500D02*
X192939800Y-85989500D01*
X189999800Y-86229500D02*
X192939800Y-86229500D01*
X189999800Y-86919500D02*
X192939800Y-86919500D01*
X189999800Y-87819500D02*
X190329800Y-87819499D01*
X190329800Y-82379501D02*
X189999800Y-82379500D01*
X192639800Y-82379500D02*
X192969799Y-82379500D01*
X192939800Y-82379500D02*
X192939800Y-87819500D01*
X192939800Y-87819500D02*
X192609800Y-87819500D01*
X113825200Y-82379500D02*
X113825200Y-87819500D01*
X113825200Y-85989500D02*
X116765200Y-85989500D01*
X113825200Y-86229500D02*
X116765200Y-86229500D01*
X113825200Y-86919500D02*
X116765200Y-86919500D01*
X113825200Y-87819500D02*
X114155200Y-87819499D01*
X114155200Y-82379501D02*
X113825200Y-82379500D01*
X116465200Y-82379500D02*
X116795199Y-82379500D01*
X116765200Y-82379500D02*
X116765200Y-87819500D01*
X116765200Y-87819500D02*
X116435200Y-87819500D01*
X158835459Y-127170494D02*
X158465992Y-127539961D01*
X159874906Y-128209941D02*
X159505439Y-128579408D01*
X67593936Y-84738800D02*
X68798064Y-84738800D01*
X67593936Y-86558800D02*
X68798064Y-86558800D01*
X304299800Y-82379500D02*
X304299800Y-87819500D01*
X304299800Y-85989500D02*
X307239800Y-85989500D01*
X304299800Y-86229500D02*
X307239800Y-86229500D01*
X304299800Y-86919500D02*
X307239800Y-86919500D01*
X304299800Y-87819500D02*
X304629800Y-87819499D01*
X304629800Y-82379501D02*
X304299800Y-82379500D01*
X306939800Y-82379500D02*
X307269799Y-82379500D01*
X307239800Y-82379500D02*
X307239800Y-87819500D01*
X307239800Y-87819500D02*
X306909800Y-87819500D01*
X313850200Y-133738300D02*
X313850200Y-139178300D01*
X313850200Y-137348300D02*
X316790200Y-137348300D01*
X313850200Y-137588300D02*
X316790200Y-137588300D01*
X313850200Y-138278300D02*
X316790200Y-138278300D01*
X313850200Y-139178300D02*
X314180200Y-139178299D01*
X314180200Y-133738301D02*
X313850200Y-133738300D01*
X316490200Y-133738300D02*
X316820199Y-133738300D01*
X316790200Y-133738300D02*
X316790200Y-139178300D01*
X316790200Y-139178300D02*
X316460200Y-139178300D01*
X94775200Y-82379500D02*
X94775200Y-87819500D01*
X94775200Y-85989500D02*
X97715200Y-85989500D01*
X94775200Y-86229500D02*
X97715200Y-86229500D01*
X94775200Y-86919500D02*
X97715200Y-86919500D01*
X94775200Y-87819500D02*
X95105200Y-87819499D01*
X95105200Y-82379501D02*
X94775200Y-82379500D01*
X97415200Y-82379500D02*
X97745199Y-82379500D01*
X97715200Y-82379500D02*
X97715200Y-87819500D01*
X97715200Y-87819500D02*
X97385200Y-87819500D01*
X158454459Y-138168694D02*
X158084992Y-138538161D01*
X159493906Y-139208141D02*
X159124439Y-139577608D01*
X159876859Y-139591094D02*
X159507392Y-139960561D01*
X160916306Y-140630541D02*
X160546839Y-141000008D01*
X189517000Y-140633000D02*
X196817000Y-140633000D01*
X189517000Y-144983000D02*
X189517000Y-146133000D01*
X189517000Y-146133000D02*
X196817000Y-146133000D01*
X218600200Y-101429500D02*
X218600200Y-106869500D01*
X218600200Y-105039500D02*
X221540200Y-105039500D01*
X218600200Y-105279500D02*
X221540200Y-105279500D01*
X218600200Y-105969500D02*
X221540200Y-105969500D01*
X218600200Y-106869500D02*
X218930200Y-106869499D01*
X218930200Y-101429501D02*
X218600200Y-101429500D01*
X221240200Y-101429500D02*
X221570199Y-101429500D01*
X221540200Y-101429500D02*
X221540200Y-106869500D01*
X221540200Y-106869500D02*
X221210200Y-106869500D01*
X180474800Y-101429500D02*
X180474800Y-106869500D01*
X180474800Y-105039500D02*
X183414800Y-105039500D01*
X180474800Y-105279500D02*
X183414800Y-105279500D01*
X180474800Y-105969500D02*
X183414800Y-105969500D01*
X180474800Y-106869500D02*
X180804800Y-106869499D01*
X180804800Y-101429501D02*
X180474800Y-101429500D01*
X183114800Y-101429500D02*
X183444799Y-101429500D01*
X183414800Y-101429500D02*
X183414800Y-106869500D01*
X183414800Y-106869500D02*
X183084800Y-106869500D01*
X180185024Y-131070259D02*
X179815557Y-131439726D01*
X181224471Y-132109706D02*
X180855004Y-132479173D01*
X331757200Y-120479500D02*
X331757200Y-125919500D01*
X331757200Y-124089500D02*
X334697200Y-124089500D01*
X331757200Y-124329500D02*
X334697200Y-124329500D01*
X331757200Y-125019500D02*
X334697200Y-125019500D01*
X331757200Y-125919500D02*
X332087200Y-125919499D01*
X332087200Y-120479501D02*
X331757200Y-120479500D01*
X334397200Y-120479500D02*
X334727199Y-120479500D01*
X334697200Y-120479500D02*
X334697200Y-125919500D01*
X334697200Y-125919500D02*
X334367200Y-125919500D01*
X275750200Y-101429500D02*
X275750200Y-106869500D01*
X275750200Y-105039500D02*
X278690200Y-105039500D01*
X275750200Y-105279500D02*
X278690200Y-105279500D01*
X275750200Y-105969500D02*
X278690200Y-105969500D01*
X275750200Y-106869500D02*
X276080200Y-106869499D01*
X276080200Y-101429501D02*
X275750200Y-101429500D01*
X278390200Y-101429500D02*
X278720199Y-101429500D01*
X278690200Y-101429500D02*
X278690200Y-106869500D01*
X278690200Y-106869500D02*
X278360200Y-106869500D01*
X179889470Y-138653883D02*
X179568353Y-138975000D01*
X180928917Y-139693330D02*
X180607800Y-140014447D01*
X199550200Y-101429500D02*
X199550200Y-106869500D01*
X199550200Y-105039500D02*
X202490200Y-105039500D01*
X199550200Y-105279500D02*
X202490200Y-105279500D01*
X199550200Y-105969500D02*
X202490200Y-105969500D01*
X199550200Y-106869500D02*
X199880200Y-106869499D01*
X199880200Y-101429501D02*
X199550200Y-101429500D01*
X202190200Y-101429500D02*
X202520199Y-101429500D01*
X202490200Y-101429500D02*
X202490200Y-106869500D01*
X202490200Y-106869500D02*
X202160200Y-106869500D01*
X157273854Y-133631000D02*
X156751348Y-133631000D01*
X157273854Y-135101000D02*
X156751348Y-135101000D01*
X247175200Y-120479500D02*
X247175200Y-125919500D01*
X247175200Y-124089500D02*
X250115200Y-124089500D01*
X247175200Y-124329500D02*
X250115200Y-124329500D01*
X247175200Y-125019500D02*
X250115200Y-125019500D01*
X247175200Y-125919500D02*
X247505200Y-125919499D01*
X247505200Y-120479501D02*
X247175200Y-120479500D01*
X249815200Y-120479500D02*
X250145199Y-120479500D01*
X250115200Y-120479500D02*
X250115200Y-125919500D01*
X250115200Y-125919500D02*
X249785200Y-125919500D01*
X129764600Y-140633000D02*
X137064600Y-140633000D01*
X129764600Y-144983000D02*
X129764600Y-146133000D01*
X129764600Y-146133000D02*
X137064600Y-146133000D01*
X228125200Y-82379500D02*
X228125200Y-87819500D01*
X228125200Y-85989500D02*
X231065200Y-85989500D01*
X228125200Y-86229500D02*
X231065200Y-86229500D01*
X228125200Y-86919500D02*
X231065200Y-86919500D01*
X228125200Y-87819500D02*
X228455200Y-87819499D01*
X228455200Y-82379501D02*
X228125200Y-82379500D01*
X230765200Y-82379500D02*
X231095199Y-82379500D01*
X231065200Y-82379500D02*
X231065200Y-87819500D01*
X231065200Y-87819500D02*
X230735200Y-87819500D01*
X209075200Y-82379500D02*
X209075200Y-87819500D01*
X209075200Y-85989500D02*
X212015200Y-85989500D01*
X209075200Y-86229500D02*
X212015200Y-86229500D01*
X209075200Y-86919500D02*
X212015200Y-86919500D01*
X209075200Y-87819500D02*
X209405200Y-87819499D01*
X209405200Y-82379501D02*
X209075200Y-82379500D01*
X211715200Y-82379500D02*
X212045199Y-82379500D01*
X212015200Y-82379500D02*
X212015200Y-87819500D01*
X212015200Y-87819500D02*
X211685200Y-87819500D01*
X170975200Y-82379500D02*
X170975200Y-87819500D01*
X170975200Y-85989500D02*
X173915200Y-85989500D01*
X170975200Y-86229500D02*
X173915200Y-86229500D01*
X170975200Y-86919500D02*
X173915200Y-86919500D01*
X170975200Y-87819500D02*
X171305200Y-87819499D01*
X171305200Y-82379501D02*
X170975200Y-82379500D01*
X173615200Y-82379500D02*
X173945199Y-82379500D01*
X173915200Y-82379500D02*
X173915200Y-87819500D01*
X173915200Y-87819500D02*
X173585200Y-87819500D01*
X70969200Y-142797264D02*
X70969200Y-142343136D01*
X72439200Y-142797264D02*
X72439200Y-142343136D01*
X132875200Y-120479500D02*
X132875200Y-125919500D01*
X132875200Y-124089500D02*
X135815200Y-124089500D01*
X132875200Y-124329500D02*
X135815200Y-124329500D01*
X132875200Y-125019500D02*
X135815200Y-125019500D01*
X132875200Y-125919500D02*
X133205200Y-125919499D01*
X133205200Y-120479501D02*
X132875200Y-120479500D01*
X135515200Y-120479500D02*
X135845199Y-120479500D01*
X135815200Y-120479500D02*
X135815200Y-125919500D01*
X135815200Y-125919500D02*
X135485200Y-125919500D01*
X190025200Y-120479500D02*
X190025200Y-125919500D01*
X190025200Y-124089500D02*
X192965200Y-124089500D01*
X190025200Y-124329500D02*
X192965200Y-124329500D01*
X190025200Y-125019500D02*
X192965200Y-125019500D01*
X190025200Y-125919500D02*
X190355200Y-125919499D01*
X190355200Y-120479501D02*
X190025200Y-120479500D01*
X192665200Y-120479500D02*
X192995199Y-120479500D01*
X192965200Y-120479500D02*
X192965200Y-125919500D01*
X192965200Y-125919500D02*
X192635200Y-125919500D01*
X151925200Y-120479500D02*
X151925200Y-125919500D01*
X151925200Y-124089500D02*
X154865200Y-124089500D01*
X151925200Y-124329500D02*
X154865200Y-124329500D01*
X151925200Y-125019500D02*
X154865200Y-125019500D01*
X151925200Y-125919500D02*
X152255200Y-125919499D01*
X152255200Y-120479501D02*
X151925200Y-120479500D01*
X154565200Y-120479500D02*
X154895199Y-120479500D01*
X154865200Y-120479500D02*
X154865200Y-125919500D01*
X154865200Y-125919500D02*
X154535200Y-125919500D01*
X131427400Y-133738300D02*
X131427400Y-139178300D01*
X131427400Y-137348300D02*
X134367400Y-137348300D01*
X131427400Y-137588300D02*
X134367400Y-137588300D01*
X131427400Y-138278300D02*
X134367400Y-138278300D01*
X131427400Y-139178300D02*
X131757400Y-139178299D01*
X131757400Y-133738301D02*
X131427400Y-133738300D01*
X134067400Y-133738300D02*
X134397399Y-133738300D01*
X134367400Y-133738300D02*
X134367400Y-139178300D01*
X134367400Y-139178300D02*
X134037400Y-139178300D01*
X228125200Y-120479500D02*
X228125200Y-125919500D01*
X228125200Y-124089500D02*
X231065200Y-124089500D01*
X228125200Y-124329500D02*
X231065200Y-124329500D01*
X228125200Y-125019500D02*
X231065200Y-125019500D01*
X228125200Y-125919500D02*
X228455200Y-125919499D01*
X228455200Y-120479501D02*
X228125200Y-120479500D01*
X230765200Y-120479500D02*
X231095199Y-120479500D01*
X231065200Y-120479500D02*
X231065200Y-125919500D01*
X231065200Y-125919500D02*
X230735200Y-125919500D01*
X195191400Y-73983400D02*
X187891400Y-73983400D01*
X195191400Y-75133400D02*
X195191400Y-73983400D01*
X195191400Y-79483400D02*
X187891400Y-79483400D01*
X151925200Y-82379500D02*
X151925200Y-87819500D01*
X151925200Y-85989500D02*
X154865200Y-85989500D01*
X151925200Y-86229500D02*
X154865200Y-86229500D01*
X151925200Y-86919500D02*
X154865200Y-86919500D01*
X151925200Y-87819500D02*
X152255200Y-87819499D01*
X152255200Y-82379501D02*
X151925200Y-82379500D01*
X154565200Y-82379500D02*
X154895199Y-82379500D01*
X154865200Y-82379500D02*
X154865200Y-87819500D01*
X154865200Y-87819500D02*
X154535200Y-87819500D01*
X290050400Y-133738300D02*
X290050400Y-139178300D01*
X290050400Y-137348300D02*
X292990400Y-137348300D01*
X290050400Y-137588300D02*
X292990400Y-137588300D01*
X290050400Y-138278300D02*
X292990400Y-138278300D01*
X290050400Y-139178300D02*
X290380400Y-139178299D01*
X290380400Y-133738301D02*
X290050400Y-133738300D01*
X292690400Y-133738300D02*
X293020399Y-133738300D01*
X292990400Y-133738300D02*
X292990400Y-139178300D01*
X292990400Y-139178300D02*
X292660400Y-139178300D01*
X237650200Y-101429500D02*
X237650200Y-106869500D01*
X237650200Y-105039500D02*
X240590200Y-105039500D01*
X237650200Y-105279500D02*
X240590200Y-105279500D01*
X237650200Y-105969500D02*
X240590200Y-105969500D01*
X237650200Y-106869500D02*
X237980200Y-106869499D01*
X237980200Y-101429501D02*
X237650200Y-101429500D01*
X240290200Y-101429500D02*
X240620199Y-101429500D01*
X240590200Y-101429500D02*
X240590200Y-106869500D01*
X240590200Y-106869500D02*
X240260200Y-106869500D01*
X333840000Y-101429500D02*
X333840000Y-106869500D01*
X333840000Y-105039500D02*
X336780000Y-105039500D01*
X333840000Y-105279500D02*
X336780000Y-105279500D01*
X333840000Y-105969500D02*
X336780000Y-105969500D01*
X333840000Y-106869500D02*
X334170000Y-106869499D01*
X334170000Y-101429501D02*
X333840000Y-101429500D01*
X336480000Y-101429500D02*
X336809999Y-101429500D01*
X336780000Y-101429500D02*
X336780000Y-106869500D01*
X336780000Y-106869500D02*
X336450000Y-106869500D01*
X128100000Y-133738300D02*
X128100000Y-139178300D01*
X128100000Y-137348300D02*
X131040000Y-137348300D01*
X128100000Y-137588300D02*
X131040000Y-137588300D01*
X128100000Y-138278300D02*
X131040000Y-138278300D01*
X128100000Y-139178300D02*
X128430000Y-139178299D01*
X128430000Y-133738301D02*
X128100000Y-133738300D01*
X130740000Y-133738300D02*
X131069999Y-133738300D01*
X131040000Y-133738300D02*
X131040000Y-139178300D01*
X131040000Y-139178300D02*
X130710000Y-139178300D01*
X142374800Y-101429500D02*
X142374800Y-106869500D01*
X142374800Y-105039500D02*
X145314800Y-105039500D01*
X142374800Y-105279500D02*
X145314800Y-105279500D01*
X142374800Y-105969500D02*
X145314800Y-105969500D01*
X142374800Y-106869500D02*
X142704800Y-106869499D01*
X142704800Y-101429501D02*
X142374800Y-101429500D01*
X145014800Y-101429500D02*
X145344799Y-101429500D01*
X145314800Y-101429500D02*
X145314800Y-106869500D01*
X145314800Y-106869500D02*
X144984800Y-106869500D01*
X174448736Y-144934000D02*
X174902864Y-144934000D01*
X174448736Y-146404000D02*
X174902864Y-146404000D01*
X175802659Y-126687894D02*
X175433192Y-127057361D01*
X176842106Y-127727341D02*
X176472639Y-128096808D01*
X175744781Y-129328126D02*
X178573208Y-132156553D01*
X178573208Y-132156553D02*
X180906661Y-129823100D01*
X252239800Y-73958000D02*
X244939800Y-73958000D01*
X252239800Y-75108000D02*
X252239800Y-73958000D01*
X252239800Y-79458000D02*
X244939800Y-79458000D01*
X266199800Y-120479500D02*
X266199800Y-125919500D01*
X266199800Y-124089500D02*
X269139800Y-124089500D01*
X266199800Y-124329500D02*
X269139800Y-124329500D01*
X266199800Y-125019500D02*
X269139800Y-125019500D01*
X266199800Y-125919500D02*
X266529800Y-125919499D01*
X266529800Y-120479501D02*
X266199800Y-120479500D01*
X268839800Y-120479500D02*
X269169799Y-120479500D01*
X269139800Y-120479500D02*
X269139800Y-125919500D01*
X269139800Y-125919500D02*
X268809800Y-125919500D01*
X81694200Y-101429500D02*
X81694200Y-106869500D01*
X81694200Y-105039500D02*
X84634200Y-105039500D01*
X81694200Y-105279500D02*
X84634200Y-105279500D01*
X81694200Y-105969500D02*
X84634200Y-105969500D01*
X81694200Y-106869500D02*
X82024200Y-106869499D01*
X82024200Y-101429501D02*
X81694200Y-101429500D01*
X84334200Y-101429500D02*
X84664199Y-101429500D01*
X84634200Y-101429500D02*
X84634200Y-106869500D01*
X84634200Y-106869500D02*
X84304200Y-106869500D01*
X223375400Y-133738300D02*
X223375400Y-139178300D01*
X223375400Y-137348300D02*
X226315400Y-137348300D01*
X223375400Y-137588300D02*
X226315400Y-137588300D01*
X223375400Y-138278300D02*
X226315400Y-138278300D01*
X223375400Y-139178300D02*
X223705400Y-139178299D01*
X223705400Y-133738301D02*
X223375400Y-133738300D01*
X226015400Y-133738300D02*
X226345399Y-133738300D01*
X226315400Y-133738300D02*
X226315400Y-139178300D01*
X226315400Y-139178300D02*
X225985400Y-139178300D01*
X335618000Y-133738300D02*
X335618000Y-139178300D01*
X335618000Y-137348300D02*
X338558000Y-137348300D01*
X335618000Y-137588300D02*
X338558000Y-137588300D01*
X335618000Y-138278300D02*
X338558000Y-138278300D01*
X335618000Y-139178300D02*
X335948000Y-139178299D01*
X335948000Y-133738301D02*
X335618000Y-133738300D01*
X338258000Y-133738300D02*
X338587999Y-133738300D01*
X338558000Y-133738300D02*
X338558000Y-139178300D01*
X338558000Y-139178300D02*
X338228000Y-139178300D01*
X247175200Y-82379500D02*
X247175200Y-87819500D01*
X247175200Y-85989500D02*
X250115200Y-85989500D01*
X247175200Y-86229500D02*
X250115200Y-86229500D01*
X247175200Y-86919500D02*
X250115200Y-86919500D01*
X247175200Y-87819500D02*
X247505200Y-87819499D01*
X247505200Y-82379501D02*
X247175200Y-82379500D01*
X249815200Y-82379500D02*
X250145199Y-82379500D01*
X250115200Y-82379500D02*
X250115200Y-87819500D01*
X250115200Y-87819500D02*
X249785200Y-87819500D01*
X73489800Y-140633000D02*
X80789800Y-140633000D01*
X73489800Y-144983000D02*
X73489800Y-146133000D01*
X73489800Y-146133000D02*
X80789800Y-146133000D01*
X123350200Y-101429500D02*
X123350200Y-106869500D01*
X123350200Y-105039500D02*
X126290200Y-105039500D01*
X123350200Y-105279500D02*
X126290200Y-105279500D01*
X123350200Y-105969500D02*
X126290200Y-105969500D01*
X123350200Y-106869500D02*
X123680200Y-106869499D01*
X123680200Y-101429501D02*
X123350200Y-101429500D01*
X125990200Y-101429500D02*
X126320199Y-101429500D01*
X126290200Y-101429500D02*
X126290200Y-106869500D01*
X126290200Y-106869500D02*
X125960200Y-106869500D01*
%LPC*%
D12*
X214940000Y-81590000D03*
D13*
X220020000Y-81590000D03*
D12*
X225100000Y-81590000D03*
D14*
X216865001Y-78320000D03*
D15*
X217520000Y-77590000D03*
D16*
X222540000Y-76800000D03*
D15*
X222560000Y-76510000D03*
D12*
X243509800Y-100634800D03*
D13*
X248589800Y-100634800D03*
D12*
X253669800Y-100634800D03*
D14*
X245434801Y-97364800D03*
D15*
X246089800Y-96634800D03*
D16*
X251109800Y-95844800D03*
D15*
X251129800Y-95554800D03*
D12*
X281609800Y-100660200D03*
D13*
X286689800Y-100660200D03*
D12*
X291769800Y-100660200D03*
D14*
X283534801Y-97390200D03*
D15*
X284189800Y-96660200D03*
D16*
X289209800Y-95870200D03*
D15*
X289229800Y-95580200D03*
D12*
X176840000Y-81590000D03*
D13*
X181920000Y-81590000D03*
D12*
X187000000Y-81590000D03*
D14*
X178765001Y-78320000D03*
D15*
X179420000Y-77590000D03*
D16*
X184440000Y-76800000D03*
D15*
X184460000Y-76510000D03*
D12*
X100634800Y-119684800D03*
D13*
X105714800Y-119684800D03*
D12*
X110794800Y-119684800D03*
D14*
X102559801Y-116414800D03*
D15*
X103214800Y-115684800D03*
D16*
X108234800Y-114894800D03*
D15*
X108254800Y-114604800D03*
D12*
X157784800Y-119684800D03*
D13*
X162864800Y-119684800D03*
D12*
X167944800Y-119684800D03*
D14*
X159709801Y-116414800D03*
D15*
X160364800Y-115684800D03*
D16*
X165384800Y-114894800D03*
D15*
X165404800Y-114604800D03*
D12*
X195890000Y-81590000D03*
D13*
X200970000Y-81590000D03*
D12*
X206050000Y-81590000D03*
D14*
X197815001Y-78320000D03*
D15*
X198470000Y-77590000D03*
D16*
X203490000Y-76800000D03*
D15*
X203510000Y-76510000D03*
D12*
X67303020Y-100634800D03*
D13*
X72383020Y-100634800D03*
D12*
X77463020Y-100634800D03*
D14*
X69228021Y-97364800D03*
D15*
X69883020Y-96634800D03*
D16*
X74903020Y-95844800D03*
D15*
X74923020Y-95554800D03*
D12*
X214924000Y-119684800D03*
D13*
X220004000Y-119684800D03*
D12*
X225084000Y-119684800D03*
D14*
X216849001Y-116414800D03*
D15*
X217504000Y-115684800D03*
D16*
X222524000Y-114894800D03*
D15*
X222544000Y-114604800D03*
D12*
X291140000Y-81590000D03*
D13*
X296220000Y-81590000D03*
D12*
X301300000Y-81590000D03*
D14*
X293065001Y-78320000D03*
D15*
X293720000Y-77590000D03*
D16*
X298740000Y-76800000D03*
D15*
X298760000Y-76510000D03*
D12*
X195874000Y-119684800D03*
D13*
X200954000Y-119684800D03*
D12*
X206034000Y-119684800D03*
D14*
X197799001Y-116414800D03*
D15*
X198454000Y-115684800D03*
D16*
X203474000Y-114894800D03*
D15*
X203494000Y-114604800D03*
D12*
X262559800Y-100660200D03*
D13*
X267639800Y-100660200D03*
D12*
X272719800Y-100660200D03*
D14*
X264484801Y-97390200D03*
D15*
X265139800Y-96660200D03*
D16*
X270159800Y-95870200D03*
D15*
X270179800Y-95580200D03*
D12*
X167309800Y-100634800D03*
D13*
X172389800Y-100634800D03*
D12*
X177469800Y-100634800D03*
D14*
X169234801Y-97364800D03*
D15*
X169889800Y-96634800D03*
D16*
X174909800Y-95844800D03*
D15*
X174929800Y-95554800D03*
D12*
X62540000Y-81590000D03*
D13*
X67620000Y-81590000D03*
D12*
X72700000Y-81590000D03*
D14*
X64465001Y-78320000D03*
D15*
X65120000Y-77590000D03*
D16*
X70140000Y-76800000D03*
D15*
X70160000Y-76510000D03*
D12*
X233990000Y-81590000D03*
D13*
X239070000Y-81590000D03*
D12*
X244150000Y-81590000D03*
D14*
X235915001Y-78320000D03*
D15*
X236570000Y-77590000D03*
D16*
X241590000Y-76800000D03*
D15*
X241610000Y-76510000D03*
D12*
X88747600Y-138760200D03*
D13*
X93827600Y-138760200D03*
D12*
X98907600Y-138760200D03*
D14*
X90672601Y-135490200D03*
D15*
X91327600Y-134760200D03*
D16*
X96347600Y-133970200D03*
D15*
X96367600Y-133680200D03*
D12*
X176834800Y-119682150D03*
D13*
X181914800Y-119682150D03*
D12*
X186994800Y-119682150D03*
D14*
X178759801Y-116412150D03*
D15*
X179414800Y-115682150D03*
D16*
X184434800Y-114892150D03*
D15*
X184454800Y-114602150D03*
D12*
X119684800Y-119684800D03*
D13*
X124764800Y-119684800D03*
D12*
X129844800Y-119684800D03*
D14*
X121609801Y-116414800D03*
D15*
X122264800Y-115684800D03*
D16*
X127284800Y-114894800D03*
D15*
X127304800Y-114604800D03*
D12*
X317335000Y-81590000D03*
D13*
X322415000Y-81590000D03*
D12*
X327495000Y-81590000D03*
D14*
X319260001Y-78320000D03*
D15*
X319915000Y-77590000D03*
D16*
X324935000Y-76800000D03*
D15*
X324955000Y-76510000D03*
D12*
X272074000Y-119684800D03*
D13*
X277154000Y-119684800D03*
D12*
X282234000Y-119684800D03*
D14*
X273999001Y-116414800D03*
D15*
X274654000Y-115684800D03*
D16*
X279674000Y-114894800D03*
D15*
X279694000Y-114604800D03*
D17*
X65201800Y-112699800D03*
D13*
X65201800Y-127939800D03*
D12*
X72059800Y-119684800D03*
D13*
X77139800Y-119684800D03*
D12*
X82219800Y-119684800D03*
D17*
X89077800Y-112699800D03*
D13*
X89077800Y-127939800D03*
D14*
X73984801Y-116414800D03*
D15*
X74639800Y-115684800D03*
D16*
X79659800Y-114894800D03*
D15*
X79679800Y-114604800D03*
D13*
X139014200Y-130479800D03*
D17*
X139014200Y-145719800D03*
D12*
X145872200Y-138734800D03*
D13*
X150952200Y-138734800D03*
D12*
X156032200Y-138734800D03*
D13*
X162890200Y-130479800D03*
D17*
X162890200Y-145719800D03*
D14*
X147797201Y-135464800D03*
D15*
X148452200Y-134734800D03*
D16*
X153472200Y-133944800D03*
D15*
X153492200Y-133654800D03*
D17*
X305714400Y-93675200D03*
D13*
X305714400Y-108915200D03*
D12*
X312572400Y-100660200D03*
D13*
X317652400Y-100660200D03*
D12*
X322732400Y-100660200D03*
D17*
X329590400Y-93675200D03*
D13*
X329590400Y-108915200D03*
D14*
X314497401Y-97390200D03*
D15*
X315152400Y-96660200D03*
D16*
X320172400Y-95870200D03*
D15*
X320192400Y-95580200D03*
D13*
X186664600Y-130479800D03*
D17*
X186664600Y-145719800D03*
D12*
X193522600Y-138734800D03*
D13*
X198602600Y-138734800D03*
D12*
X203682600Y-138734800D03*
D13*
X210540600Y-130479800D03*
D17*
X210540600Y-145719800D03*
D14*
X195447601Y-135464800D03*
D15*
X196102600Y-134734800D03*
D16*
X201122600Y-133944800D03*
D15*
X201142600Y-133654800D03*
D12*
X272090000Y-81590000D03*
D13*
X277170000Y-81590000D03*
D12*
X282250000Y-81590000D03*
D14*
X274015001Y-78320000D03*
D15*
X274670000Y-77590000D03*
D16*
X279690000Y-76800000D03*
D15*
X279710000Y-76510000D03*
D12*
X110159800Y-100634800D03*
D13*
X115239800Y-100634800D03*
D12*
X120319800Y-100634800D03*
D14*
X112084801Y-97364800D03*
D15*
X112739800Y-96634800D03*
D16*
X117759800Y-95844800D03*
D15*
X117779800Y-95554800D03*
D12*
X205409800Y-100634800D03*
D13*
X210489800Y-100634800D03*
D12*
X215569800Y-100634800D03*
D14*
X207334801Y-97364800D03*
D15*
X207989800Y-96634800D03*
D16*
X213009800Y-95844800D03*
D15*
X213029800Y-95554800D03*
D12*
X91099640Y-100634800D03*
D13*
X96179640Y-100634800D03*
D12*
X101259640Y-100634800D03*
D14*
X93024641Y-97364800D03*
D15*
X93679640Y-96634800D03*
D16*
X98699640Y-95844800D03*
D15*
X98719640Y-95554800D03*
D12*
X64922400Y-138760200D03*
D13*
X70002400Y-138760200D03*
D12*
X75082400Y-138760200D03*
D14*
X66847401Y-135490200D03*
D15*
X67502400Y-134760200D03*
D16*
X72522400Y-133970200D03*
D15*
X72542400Y-133680200D03*
D12*
X186359800Y-100634800D03*
D13*
X191439800Y-100634800D03*
D12*
X196519800Y-100634800D03*
D14*
X188284801Y-97364800D03*
D15*
X188939800Y-96634800D03*
D16*
X193959800Y-95844800D03*
D15*
X193979800Y-95554800D03*
D12*
X229250000Y-138757550D03*
D13*
X234330000Y-138757550D03*
D12*
X239410000Y-138757550D03*
D14*
X231175001Y-135487550D03*
D15*
X231830000Y-134757550D03*
D16*
X236850000Y-133967550D03*
D15*
X236870000Y-133677550D03*
D12*
X138734800Y-119684800D03*
D13*
X143814800Y-119684800D03*
D12*
X148894800Y-119684800D03*
D14*
X140659801Y-116414800D03*
D15*
X141314800Y-115684800D03*
D16*
X146334800Y-114894800D03*
D15*
X146354800Y-114604800D03*
D12*
X274472400Y-138760200D03*
D13*
X279552400Y-138760200D03*
D12*
X284632400Y-138760200D03*
D14*
X276397401Y-135490200D03*
D15*
X277052400Y-134760200D03*
D16*
X282072400Y-133970200D03*
D15*
X282092400Y-133680200D03*
D12*
X253024000Y-119684800D03*
D13*
X258104000Y-119684800D03*
D12*
X263184000Y-119684800D03*
D14*
X254949001Y-116414800D03*
D15*
X255604000Y-115684800D03*
D16*
X260624000Y-114894800D03*
D15*
X260644000Y-114604800D03*
D12*
X298297600Y-138760200D03*
D13*
X303377600Y-138760200D03*
D12*
X308457600Y-138760200D03*
D14*
X300222601Y-135490200D03*
D15*
X300877600Y-134760200D03*
D16*
X305897600Y-133970200D03*
D15*
X305917600Y-133680200D03*
D17*
X300964600Y-112699800D03*
D13*
X300964600Y-127939800D03*
D12*
X307822600Y-119684800D03*
D13*
X312902600Y-119684800D03*
D12*
X317982600Y-119684800D03*
D17*
X324840600Y-112699800D03*
D13*
X324840600Y-127939800D03*
D14*
X309747601Y-116414800D03*
D15*
X310402600Y-115684800D03*
D16*
X315422600Y-114894800D03*
D15*
X315442600Y-114604800D03*
D12*
X112558200Y-138760200D03*
D13*
X117638200Y-138760200D03*
D12*
X122718200Y-138760200D03*
D14*
X114483201Y-135490200D03*
D15*
X115138200Y-134760200D03*
D16*
X120158200Y-133970200D03*
D15*
X120178200Y-133680200D03*
D12*
X224459800Y-100647000D03*
D13*
X229539800Y-100647000D03*
D12*
X234619800Y-100647000D03*
D14*
X226384801Y-97377000D03*
D15*
X227039800Y-96647000D03*
D16*
X232059800Y-95857000D03*
D15*
X232079800Y-95567000D03*
D12*
X157790000Y-81590000D03*
D13*
X162870000Y-81590000D03*
D12*
X167950000Y-81590000D03*
D14*
X159715001Y-78320000D03*
D15*
X160370000Y-77590000D03*
D16*
X165390000Y-76800000D03*
D15*
X165410000Y-76510000D03*
D12*
X100640000Y-81590000D03*
D13*
X105720000Y-81590000D03*
D12*
X110800000Y-81590000D03*
D14*
X102565001Y-78320000D03*
D15*
X103220000Y-77590000D03*
D16*
X108240000Y-76800000D03*
D15*
X108260000Y-76510000D03*
D12*
X119690000Y-81590000D03*
D13*
X124770000Y-81590000D03*
D12*
X129850000Y-81590000D03*
D14*
X121615001Y-78320000D03*
D15*
X122270000Y-77590000D03*
D16*
X127290000Y-76800000D03*
D15*
X127310000Y-76510000D03*
D12*
X129209800Y-100634800D03*
D13*
X134289800Y-100634800D03*
D12*
X139369800Y-100634800D03*
D14*
X131134801Y-97364800D03*
D15*
X131789800Y-96634800D03*
D16*
X136809800Y-95844800D03*
D15*
X136829800Y-95554800D03*
D12*
X322110100Y-138752580D03*
D13*
X327190100Y-138752580D03*
D12*
X332270100Y-138752580D03*
D14*
X324035101Y-135482580D03*
D15*
X324690100Y-134752580D03*
D16*
X329710100Y-133962580D03*
D15*
X329730100Y-133672580D03*
D12*
X233974000Y-119684800D03*
D13*
X239054000Y-119684800D03*
D12*
X244134000Y-119684800D03*
D14*
X235899001Y-116414800D03*
D15*
X236554000Y-115684800D03*
D16*
X241574000Y-114894800D03*
D15*
X241594000Y-114604800D03*
D12*
X138740000Y-81590000D03*
D13*
X143820000Y-81590000D03*
D12*
X148900000Y-81590000D03*
D14*
X140665001Y-78320000D03*
D15*
X141320000Y-77590000D03*
D16*
X146340000Y-76800000D03*
D15*
X146360000Y-76510000D03*
D12*
X250672600Y-138760200D03*
D13*
X255752600Y-138760200D03*
D12*
X260832600Y-138760200D03*
D14*
X252597601Y-135490200D03*
D15*
X253252600Y-134760200D03*
D16*
X258272600Y-133970200D03*
D15*
X258292600Y-133680200D03*
D12*
X253040000Y-81590000D03*
D13*
X258120000Y-81590000D03*
D12*
X263200000Y-81590000D03*
D14*
X254965001Y-78320000D03*
D15*
X255620000Y-77590000D03*
D16*
X260640000Y-76800000D03*
D15*
X260660000Y-76510000D03*
D12*
X81590000Y-81590000D03*
D13*
X86670000Y-81590000D03*
D12*
X91750000Y-81590000D03*
D14*
X83515001Y-78320000D03*
D15*
X84170000Y-77590000D03*
D16*
X89190000Y-76800000D03*
D15*
X89210000Y-76510000D03*
D12*
X148259800Y-100634800D03*
D13*
X153339800Y-100634800D03*
D12*
X158419800Y-100634800D03*
D14*
X150184801Y-97364800D03*
D15*
X150839800Y-96634800D03*
D16*
X155859800Y-95844800D03*
D15*
X155879800Y-95554800D03*
D18*
X77165200Y-87829500D03*
D19*
X77165200Y-82329500D03*
D20*
X303289800Y-78358000D03*
X303289800Y-75058000D03*
X308189800Y-75058000D03*
X308189800Y-78358000D03*
D18*
X331647800Y-87829500D03*
D19*
X331647800Y-82329500D03*
D18*
X296214800Y-106879500D03*
D19*
X296214800Y-101379500D03*
D21*
X163295664Y-136669118D03*
X163861350Y-136103433D03*
X164427035Y-135537748D03*
X164992720Y-134972062D03*
X165558406Y-134406377D03*
X166124091Y-133840691D03*
X166689777Y-133275006D03*
X167255462Y-132709320D03*
X167821148Y-132143635D03*
X168386833Y-131577950D03*
X168952518Y-131012264D03*
D22*
X171356682Y-131012264D03*
X171922367Y-131577950D03*
X172488052Y-132143635D03*
X173053738Y-132709320D03*
X173619423Y-133275006D03*
X174185109Y-133840691D03*
X174750794Y-134406377D03*
X175316480Y-134972062D03*
X175882165Y-135537748D03*
X176447850Y-136103433D03*
X177013536Y-136669118D03*
D21*
X177013536Y-139073282D03*
X176447850Y-139638967D03*
X175882165Y-140204652D03*
X175316480Y-140770338D03*
X174750794Y-141336023D03*
X174185109Y-141901709D03*
X173619423Y-142467394D03*
X173053738Y-143033080D03*
X172488052Y-143598765D03*
X171922367Y-144164450D03*
X171356682Y-144730136D03*
D22*
X168952518Y-144730136D03*
X168386833Y-144164450D03*
X167821148Y-143598765D03*
X167255462Y-143033080D03*
X166689777Y-142467394D03*
X166124091Y-141901709D03*
X165558406Y-141336023D03*
X164992720Y-140770338D03*
X164427035Y-140204652D03*
X163861350Y-139638967D03*
X163295664Y-139073282D03*
D18*
X267665200Y-87829500D03*
D19*
X267665200Y-82329500D03*
D23*
X180879350Y-143529450D03*
X187172600Y-137236200D03*
D24*
X66736800Y-90164998D03*
X66736800Y-89214999D03*
X66736800Y-88265000D03*
X69011800Y-88265000D03*
X69011800Y-89214999D03*
X69011800Y-90164998D03*
D18*
X105765600Y-106879500D03*
D19*
X105765600Y-101379500D03*
D18*
X286715200Y-125929500D03*
D19*
X286715200Y-120429500D03*
D18*
X267665200Y-139188300D03*
D19*
X267665200Y-133688300D03*
D20*
X74689800Y-78358000D03*
X74689800Y-75058000D03*
X79589800Y-75058000D03*
X79589800Y-78358000D03*
D18*
X286715200Y-87829500D03*
D19*
X286715200Y-82329500D03*
D20*
X131839800Y-78358000D03*
X131839800Y-75058000D03*
X136739800Y-75058000D03*
X136739800Y-78358000D03*
D18*
X172389800Y-125929500D03*
D19*
X172389800Y-120429500D03*
D20*
X308189800Y-141733000D03*
X308189800Y-145033000D03*
X303289800Y-145033000D03*
X303289800Y-141733000D03*
D18*
X81915000Y-139205600D03*
D19*
X81915000Y-133705600D03*
D18*
X258140200Y-106879500D03*
D19*
X258140200Y-101379500D03*
D25*
X62594800Y-92145600D03*
X62594800Y-86365600D03*
D26*
X64039800Y-92505600D03*
X64039800Y-91705601D03*
D27*
X64039799Y-90505600D03*
X64039800Y-89505600D03*
X64039800Y-89005600D03*
X64039799Y-88005600D03*
D26*
X64039800Y-86805599D03*
X64039800Y-86005600D03*
X64039800Y-86005600D03*
X64039800Y-86805599D03*
D27*
X64039800Y-87505600D03*
X64039800Y-88505600D03*
X64039800Y-90005600D03*
X64039800Y-91005600D03*
D26*
X64039800Y-91705601D03*
X64039800Y-92505600D03*
D28*
X58944800Y-93575600D03*
D29*
X63124800Y-93575600D03*
D28*
X58944800Y-84935600D03*
D29*
X63124800Y-84935600D03*
D18*
X105740200Y-139188300D03*
D19*
X105740200Y-133688300D03*
D18*
X134315200Y-87829500D03*
D19*
X134315200Y-82329500D03*
D20*
X251039800Y-141733000D03*
X251039800Y-145033000D03*
X246139800Y-145033000D03*
X246139800Y-141733000D03*
D30*
X156062602Y-136347200D03*
X157962600Y-136347200D03*
D18*
X115265200Y-125929500D03*
D19*
X115265200Y-120429500D03*
D18*
X210515200Y-125929500D03*
D19*
X210515200Y-120429500D03*
D18*
X162890200Y-106879500D03*
D19*
X162890200Y-101379500D03*
D18*
X243865400Y-139188300D03*
D19*
X243865400Y-133688300D03*
D18*
X96189800Y-125929500D03*
D19*
X96189800Y-120429500D03*
D18*
X191439800Y-87829500D03*
D19*
X191439800Y-82329500D03*
D18*
X115265200Y-87829500D03*
D19*
X115265200Y-82329500D03*
D31*
X158498698Y-128546702D03*
X159842200Y-127203200D03*
D32*
X69596000Y-85648800D03*
X66796000Y-85648800D03*
D18*
X305739800Y-87829500D03*
D19*
X305739800Y-82329500D03*
D18*
X315290200Y-139188300D03*
D19*
X315290200Y-133688300D03*
D18*
X96215200Y-87829500D03*
D19*
X96215200Y-82329500D03*
D31*
X158117698Y-139544902D03*
X159461200Y-138201400D03*
X159540098Y-140967302D03*
X160883600Y-139623800D03*
D20*
X195617000Y-141733000D03*
X195617000Y-145033000D03*
X190717000Y-145033000D03*
X190717000Y-141733000D03*
D18*
X220040200Y-106879500D03*
D19*
X220040200Y-101379500D03*
D18*
X181914800Y-106879500D03*
D19*
X181914800Y-101379500D03*
D31*
X179848263Y-132446467D03*
X181191765Y-131102965D03*
D18*
X333197200Y-125929500D03*
D19*
X333197200Y-120429500D03*
D18*
X277190200Y-106879500D03*
D19*
X277190200Y-101379500D03*
D33*
X179603400Y-139979400D03*
X180893870Y-138688930D03*
D18*
X200990200Y-106879500D03*
D19*
X200990200Y-101379500D03*
D30*
X156062602Y-134366000D03*
X157962600Y-134366000D03*
D18*
X248615200Y-125929500D03*
D19*
X248615200Y-120429500D03*
D20*
X135864600Y-141733000D03*
X135864600Y-145033000D03*
X130964600Y-145033000D03*
X130964600Y-141733000D03*
D18*
X229565200Y-87829500D03*
D19*
X229565200Y-82329500D03*
D18*
X210515200Y-87829500D03*
D19*
X210515200Y-82329500D03*
D18*
X172415200Y-87829500D03*
D19*
X172415200Y-82329500D03*
D34*
X71704200Y-141657700D03*
X71704200Y-143482700D03*
D18*
X134315200Y-125929500D03*
D19*
X134315200Y-120429500D03*
D18*
X191465200Y-125929500D03*
D19*
X191465200Y-120429500D03*
D18*
X153365200Y-125929500D03*
D19*
X153365200Y-120429500D03*
D18*
X132867400Y-139188300D03*
D19*
X132867400Y-133688300D03*
D18*
X229565200Y-125929500D03*
D19*
X229565200Y-120429500D03*
D20*
X189091400Y-78383400D03*
X189091400Y-75083400D03*
X193991400Y-75083400D03*
X193991400Y-78383400D03*
D18*
X153365200Y-87829500D03*
D19*
X153365200Y-82329500D03*
D18*
X291490400Y-139188300D03*
D19*
X291490400Y-133688300D03*
D18*
X239090200Y-106879500D03*
D19*
X239090200Y-101379500D03*
D18*
X335280000Y-106879500D03*
D19*
X335280000Y-101379500D03*
D18*
X129540000Y-139188300D03*
D19*
X129540000Y-133688300D03*
D18*
X143814800Y-106879500D03*
D19*
X143814800Y-101379500D03*
D35*
X175588300Y-145669000D03*
X173763300Y-145669000D03*
D31*
X175465898Y-128064102D03*
X176809400Y-126720600D03*
D36*
X178502498Y-130954471D03*
X176946863Y-129398836D03*
X178148944Y-128196755D03*
X179704579Y-129752390D03*
D20*
X246139800Y-78358000D03*
X246139800Y-75058000D03*
X251039800Y-75058000D03*
X251039800Y-78358000D03*
D18*
X267639800Y-125929500D03*
D19*
X267639800Y-120429500D03*
D18*
X83134200Y-106879500D03*
D19*
X83134200Y-101379500D03*
D18*
X224815400Y-139188300D03*
D19*
X224815400Y-133688300D03*
D18*
X337058000Y-139188300D03*
D19*
X337058000Y-133688300D03*
D18*
X248615200Y-87829500D03*
D19*
X248615200Y-82329500D03*
D20*
X79589800Y-141733000D03*
X79589800Y-145033000D03*
X74689800Y-145033000D03*
X74689800Y-141733000D03*
D18*
X124790200Y-106879500D03*
D19*
X124790200Y-101379500D03*
%LPD*%
M02*
