%TF.GenerationSoftware,KiCad,Pcbnew,8.0.4*%
%TF.CreationDate,2024-08-22T05:27:11+03:00*%
%TF.ProjectId,4040-plate,34303430-2d70-46c6-9174-652e6b696361,rev?*%
%TF.SameCoordinates,Original*%
%TF.FileFunction,Drillmap*%
%TF.FilePolarity,Positive*%
%FSLAX45Y45*%
G04 Gerber Fmt 4.5, Leading zero omitted, Abs format (unit mm)*
G04 Created by KiCad (PCBNEW 8.0.4) date 2024-08-22 05:27:11*
%MOMM*%
%LPD*%
G01*
G04 APERTURE LIST*
%ADD10C,0.050000*%
%ADD11C,0.200000*%
G04 APERTURE END LIST*
D10*
X34473839Y-12537748D02*
X34473839Y-11670913D01*
X34473699Y-8918051D02*
X34473699Y-8318051D01*
X34537199Y-8981551D02*
G75*
G02*
X34473699Y-8918051I-4J63496D01*
G01*
X34537339Y-12601248D02*
X34837339Y-12601248D01*
X34900839Y-12664748D02*
X34900699Y-15163610D01*
X34900699Y-9045051D02*
X34900839Y-11543913D01*
X34473699Y-15890610D02*
X34473699Y-15290610D01*
X34837339Y-11607413D02*
X34537339Y-11607413D01*
X34473699Y-15290610D02*
G75*
G02*
X34537199Y-15227110I63495J6D01*
G01*
X34537339Y-12601248D02*
G75*
G02*
X34473839Y-12537748I-5J63494D01*
G01*
X34837339Y-12601248D02*
G75*
G02*
X34900839Y-12664748I2J-63498D01*
G01*
X34473839Y-11670913D02*
G75*
G02*
X34537339Y-11607413I63495J5D01*
G01*
X34900699Y-15163610D02*
G75*
G02*
X34837199Y-15227110I-63495J-4D01*
G01*
X34537199Y-15227110D02*
X34837199Y-15227110D01*
X34837199Y-8981551D02*
G75*
G02*
X34900699Y-9045051I5J-63495D01*
G01*
X34837199Y-8981551D02*
X34537199Y-8981551D01*
X34900839Y-11543913D02*
G75*
G02*
X34837339Y-11607414I-63498J-2D01*
G01*
X6300781Y-11670913D02*
X6300781Y-12537748D01*
X6300921Y-15290610D02*
X6300921Y-15890610D01*
X6237421Y-15227110D02*
G75*
G02*
X6300922Y-15290610I5J-63496D01*
G01*
X5873921Y-15163610D02*
X5873781Y-12664748D01*
X5937281Y-12601248D02*
X6237281Y-12601248D01*
X6300781Y-12537748D02*
G75*
G02*
X6237281Y-12601249I-63496J-5D01*
G01*
X5937421Y-15227110D02*
G75*
G02*
X5873921Y-15163610I-5J63495D01*
G01*
X5937421Y-15227110D02*
X6237421Y-15227110D01*
X5873781Y-12664748D02*
G75*
G02*
X5937281Y-12601248I63498J2D01*
G01*
X6237281Y-11607413D02*
G75*
G02*
X6300781Y-11670913I5J-63495D01*
G01*
X6300921Y-8918051D02*
G75*
G02*
X6237421Y-8981551I-63495J-5D01*
G01*
X6300921Y-8318051D02*
X6300921Y-8918051D01*
X6237281Y-11607413D02*
X5937281Y-11607413D01*
X5873781Y-11543913D02*
X5873921Y-9045051D01*
X6237421Y-8981551D02*
X5937421Y-8981551D01*
X5873921Y-9045051D02*
G75*
G02*
X5937421Y-8981551I63496J4D01*
G01*
X5937281Y-11607413D02*
G75*
G02*
X5873779Y-11543913I0J63503D01*
G01*
X18372421Y-15954110D02*
X22402199Y-15954110D01*
X26592699Y-16017610D02*
X26592699Y-16317610D01*
X18308921Y-16017610D02*
G75*
G02*
X18372421Y-15954113I63497J0D01*
G01*
X26592699Y-16017610D02*
G75*
G02*
X26656199Y-15954110I63500J0D01*
G01*
X26592699Y-16317610D02*
G75*
G02*
X26529199Y-16381110I-63500J0D01*
G01*
X14181921Y-16017610D02*
X14181921Y-16317610D01*
X26529199Y-16381110D02*
X22529199Y-16381110D01*
X22465699Y-16017610D02*
X22465699Y-16317610D01*
X18308921Y-16017610D02*
X18308921Y-16317610D01*
X14245421Y-16381110D02*
G75*
G02*
X14181919Y-16317610I-3J63500D01*
G01*
X18308921Y-16317610D02*
G75*
G02*
X18245421Y-16381113I-63503J0D01*
G01*
X22402199Y-15954110D02*
G75*
G02*
X22465699Y-16017610I0J-63500D01*
G01*
X22529199Y-16381110D02*
G75*
G02*
X22465699Y-16317610I0J63500D01*
G01*
X14118421Y-15954110D02*
G75*
G02*
X14181919Y-16017610I-3J-63500D01*
G01*
X18245421Y-16381110D02*
X14245421Y-16381110D01*
X14118421Y-15954110D02*
X12118421Y-15954110D01*
X28719699Y-16317610D02*
X28719699Y-16017610D01*
X28783199Y-16381110D02*
G75*
G02*
X28719699Y-16317610I0J63500D01*
G01*
X28656199Y-15954110D02*
X26656199Y-15954110D01*
X28656199Y-15954110D02*
G75*
G02*
X28719699Y-16017610I0J-63500D01*
G01*
X34410199Y-15954110D02*
X32910199Y-15954110D01*
X7864421Y-15954110D02*
X6364421Y-15954110D01*
X7864421Y-15954110D02*
G75*
G02*
X7927919Y-16017610I-3J-63500D01*
G01*
X12054921Y-16317610D02*
G75*
G02*
X11991421Y-16381113I-63503J0D01*
G01*
X32846699Y-16017610D02*
G75*
G02*
X32910199Y-15954110I63499J1D01*
G01*
X12054921Y-16017610D02*
X12054921Y-16317610D01*
X11991421Y-16381110D02*
X7991421Y-16381110D01*
X32846699Y-16317610D02*
G75*
G02*
X32783199Y-16381110I-63499J-2D01*
G01*
X32783199Y-16381110D02*
X28783199Y-16381110D01*
X7991421Y-16381110D02*
G75*
G02*
X7927919Y-16317610I-3J63500D01*
G01*
X32846699Y-16017610D02*
X32846699Y-16317610D01*
X7927921Y-16017610D02*
X7927921Y-16317610D01*
X12054921Y-16017610D02*
G75*
G02*
X12118421Y-15954113I63497J0D01*
G01*
X22402199Y-8254551D02*
X18372421Y-8254551D01*
X18372421Y-8254551D02*
G75*
G02*
X18308921Y-8191051I-1J63499D01*
G01*
X14181921Y-7891051D02*
G75*
G02*
X14245421Y-7827551I63499J1D01*
G01*
X14181921Y-8191051D02*
X14181921Y-7891051D01*
X14245421Y-7827551D02*
X18245421Y-7827551D01*
X18245421Y-7827551D02*
G75*
G02*
X18308921Y-7891051I1J-63499D01*
G01*
X18308921Y-8191051D02*
X18308921Y-7891051D01*
X14181921Y-8191051D02*
G75*
G02*
X14118421Y-8254551I-63499J-1D01*
G01*
X26656199Y-8254551D02*
G75*
G02*
X26592698Y-8191051I-1J63499D01*
G01*
X22465699Y-7891051D02*
G75*
G02*
X22529199Y-7827551I63499J1D01*
G01*
X22465699Y-8191051D02*
X22465699Y-7891051D01*
X22529199Y-7827551D02*
X26529199Y-7827551D01*
X26529199Y-7827551D02*
G75*
G02*
X26592699Y-7891051I1J-63499D01*
G01*
X26592699Y-8191051D02*
X26592699Y-7891051D01*
X22465699Y-8191051D02*
G75*
G02*
X22402199Y-8254551I-63499J-1D01*
G01*
X26656199Y-8254551D02*
X28656199Y-8254551D01*
X12118421Y-8254551D02*
X14118421Y-8254551D01*
X12118421Y-8254551D02*
G75*
G02*
X12054921Y-8191051I-1J63499D01*
G01*
X11991421Y-7827551D02*
G75*
G02*
X12054921Y-7891051I1J-63499D01*
G01*
X12054921Y-7891051D02*
X12054921Y-8191051D01*
X28719699Y-8191051D02*
G75*
G02*
X28656199Y-8254551I-63499J-1D01*
G01*
X28719699Y-7891051D02*
G75*
G02*
X28783199Y-7827551I63499J1D01*
G01*
X28719699Y-8191051D02*
X28719699Y-7891051D01*
X7991421Y-7827551D02*
X11991421Y-7827551D01*
X28783199Y-7827551D02*
X32783199Y-7827551D01*
X32783199Y-7827551D02*
G75*
G02*
X32846699Y-7891051I1J-63499D01*
G01*
X32846699Y-8191051D02*
X32846699Y-7891051D01*
X7927921Y-7891051D02*
G75*
G02*
X7991421Y-7827551I63499J1D01*
G01*
X7927921Y-8191051D02*
X7927921Y-7891051D01*
X7927921Y-8191051D02*
G75*
G02*
X7864421Y-8254551I-63499J-1D01*
G01*
X32910199Y-8254551D02*
G75*
G02*
X32846699Y-8191051I-1J63499D01*
G01*
X32910199Y-8254551D02*
X34410199Y-8254551D01*
X6364421Y-8254551D02*
X7864421Y-8254551D01*
X29450840Y-8544560D02*
X30850840Y-8544560D01*
X6364421Y-15954110D02*
G75*
G02*
X6300920Y-15890610I-1J63500D01*
G01*
X12992560Y-15661640D02*
X12992560Y-14261640D01*
X19416220Y-12354560D02*
X18016220Y-12354560D01*
X6300921Y-8318051D02*
G75*
G02*
X6364421Y-8254551I63499J1D01*
G01*
X19689620Y-15659100D02*
X21089620Y-15659100D01*
X7066280Y-10449560D02*
X8466280Y-10449560D01*
X6829600Y-15661640D02*
X8229600Y-15661640D01*
X9446260Y-10449560D02*
X9446260Y-11849560D01*
X21830840Y-8544560D02*
X23230840Y-8544560D01*
X7543340Y-13754100D02*
X8943340Y-13754100D01*
X25638300Y-12354100D02*
X27038300Y-12354100D01*
X6590840Y-9944560D02*
X7990840Y-9944560D01*
X8495840Y-8544560D02*
X9895840Y-8544560D01*
X24661320Y-15660600D02*
X24661320Y-14260600D01*
X20373340Y-11849100D02*
X20373340Y-10449100D01*
X23735840Y-9944560D02*
X23735840Y-8544560D01*
X32519620Y-13754100D02*
X32519620Y-12354100D01*
X25638300Y-13754100D02*
X25638300Y-12354100D01*
X25404620Y-15661640D02*
X26804620Y-15661640D01*
X15163800Y-11846560D02*
X16563800Y-11846560D01*
X10400840Y-9944560D02*
X10400840Y-8544560D01*
X31566660Y-15659560D02*
X31566660Y-14259560D01*
X10400840Y-8544560D02*
X11800840Y-8544560D01*
X17068800Y-11849560D02*
X18468800Y-11849560D01*
X25135840Y-9944560D02*
X25135840Y-8544560D01*
X19923300Y-13754100D02*
X19923300Y-12354100D01*
X14658340Y-11849100D02*
X14658340Y-10449100D01*
X33947100Y-15659100D02*
X33947100Y-14259100D01*
X28498340Y-11851640D02*
X29898340Y-11851640D01*
X13703760Y-13754560D02*
X12303760Y-13754560D01*
X7990840Y-9944560D02*
X7990840Y-8544560D01*
X23228300Y-13754100D02*
X23228300Y-12354100D01*
X29450840Y-9944560D02*
X30850840Y-9944560D01*
X11353340Y-11849100D02*
X12753340Y-11849100D01*
X25131220Y-12354560D02*
X23731220Y-12354560D01*
X27038300Y-13754100D02*
X27038300Y-12354100D01*
X14210840Y-9944560D02*
X14210840Y-8544560D01*
X19416220Y-12354560D02*
X19416220Y-13754560D01*
X19925840Y-8544560D02*
X21325840Y-8544560D01*
X19689620Y-15659100D02*
X19689620Y-14259100D01*
X29450840Y-9944560D02*
X29450840Y-8544560D01*
X31119620Y-12354100D02*
X32519620Y-12354100D01*
X12753340Y-11849100D02*
X12753340Y-10449100D01*
X25404620Y-14261640D02*
X26804620Y-14261640D01*
X14210840Y-12354100D02*
X15610840Y-12354100D01*
X19923300Y-12354100D02*
X21323300Y-12354100D01*
X13703760Y-12354560D02*
X13703760Y-13754560D01*
X19420840Y-9944560D02*
X19420840Y-8544560D01*
X16563800Y-11846560D02*
X16563800Y-10446560D01*
X7543340Y-12354100D02*
X8943340Y-12354100D01*
X32069580Y-9944560D02*
X32069580Y-8544560D01*
X33947100Y-14259100D02*
X32547100Y-14259100D01*
X31594000Y-10451000D02*
X32994000Y-10451000D01*
X17068800Y-10449560D02*
X18468800Y-10449560D01*
X6590840Y-9944560D02*
X6590840Y-8544560D01*
X12303760Y-12354560D02*
X12303760Y-13754560D01*
X24183340Y-10449560D02*
X22783340Y-10449560D01*
X13258340Y-11849100D02*
X13258340Y-10449100D01*
X16115840Y-9944560D02*
X16115840Y-8544560D01*
X13258340Y-10449100D02*
X14658340Y-10449100D01*
X17068800Y-11849560D02*
X17068800Y-10449560D01*
X23261320Y-14260600D02*
X24661320Y-14260600D01*
X20876260Y-10446560D02*
X22276260Y-10446560D01*
X27993800Y-11852100D02*
X27993800Y-10452100D01*
X34410199Y-8254551D02*
G75*
G02*
X34473699Y-8318051I1J-63499D01*
G01*
X21828300Y-13754100D02*
X23228300Y-13754100D01*
X7066280Y-11849560D02*
X8466280Y-11849560D01*
X12305840Y-9944560D02*
X12305840Y-8544560D01*
X16115840Y-13754100D02*
X17515840Y-13754100D01*
X27784140Y-15659100D02*
X29184140Y-15659100D01*
X20876260Y-11846560D02*
X20876260Y-10446560D01*
X10846260Y-10449560D02*
X9446260Y-10449560D01*
X9212120Y-15662100D02*
X9212120Y-14262100D01*
X31119620Y-13754100D02*
X31119620Y-12354100D01*
X26086260Y-11849100D02*
X26086260Y-10449100D01*
X32069580Y-8544560D02*
X33469580Y-8544560D01*
X24183340Y-11849560D02*
X22783340Y-11849560D01*
X27784140Y-15659100D02*
X27784140Y-14259100D01*
X21089620Y-15659100D02*
X21089620Y-14259100D01*
X14924580Y-15658060D02*
X14924580Y-14258060D01*
X27545840Y-9944560D02*
X27545840Y-8544560D01*
X14924580Y-14258060D02*
X16324580Y-14258060D01*
X18016220Y-12354560D02*
X18016220Y-13754560D01*
X31119620Y-13754100D02*
X32519620Y-13754100D01*
X10398760Y-13754100D02*
X10398760Y-12354100D01*
X26593800Y-10452100D02*
X27993800Y-10452100D01*
X12992560Y-14261640D02*
X11592560Y-14261640D01*
X13703760Y-12354560D02*
X12303760Y-12354560D01*
X8229600Y-15661640D02*
X8229600Y-14261640D01*
X14924580Y-15658060D02*
X16324580Y-15658060D01*
X9212120Y-15662100D02*
X10612120Y-15662100D01*
X19923300Y-13754100D02*
X21323300Y-13754100D01*
X27545840Y-9944560D02*
X28945840Y-9944560D01*
X27784140Y-14259100D02*
X29184140Y-14259100D01*
X11592560Y-15661640D02*
X11592560Y-14261640D01*
X21830840Y-9944560D02*
X23230840Y-9944560D01*
X23230840Y-9944560D02*
X23230840Y-8544560D01*
X10612120Y-15662100D02*
X10612120Y-14262100D01*
X24686260Y-11849100D02*
X26086260Y-11849100D01*
X17515840Y-13754100D02*
X17515840Y-12354100D01*
X29898340Y-11851640D02*
X29898340Y-10451640D01*
X25131220Y-12354560D02*
X25131220Y-13754560D01*
X30850840Y-9944560D02*
X30850840Y-8544560D01*
X30166660Y-15659560D02*
X31566660Y-15659560D01*
X33947100Y-15659100D02*
X32547100Y-15659100D01*
X23261320Y-15660600D02*
X24661320Y-15660600D01*
X28498340Y-11851640D02*
X28498340Y-10451640D01*
X34473699Y-15890610D02*
G75*
G02*
X34410199Y-15954109I-63499J0D01*
G01*
X10846260Y-11849560D02*
X9446260Y-11849560D01*
X13705840Y-9944560D02*
X13705840Y-8544560D01*
X22276260Y-11846560D02*
X22276260Y-10446560D01*
X11798760Y-13754100D02*
X11798760Y-12354100D01*
X33469580Y-9944560D02*
X33469580Y-8544560D01*
X21323300Y-13754100D02*
X21323300Y-12354100D01*
X18020840Y-9944560D02*
X18020840Y-8544560D01*
X15610840Y-9944560D02*
X15610840Y-8544560D01*
X32069580Y-9944560D02*
X33469580Y-9944560D01*
X30166660Y-14259560D02*
X31566660Y-14259560D01*
X32994000Y-11851000D02*
X32994000Y-10451000D01*
X10398760Y-13754100D02*
X11798760Y-13754100D01*
X12305840Y-8544560D02*
X13705840Y-8544560D01*
X11353340Y-11849100D02*
X11353340Y-10449100D01*
X9895840Y-9944560D02*
X9895840Y-8544560D01*
X19925840Y-9944560D02*
X21325840Y-9944560D01*
X18468800Y-11849560D02*
X18468800Y-10449560D01*
X21828300Y-12354100D02*
X23228300Y-12354100D01*
X28945840Y-9944560D02*
X28945840Y-8544560D01*
X11353340Y-10449100D02*
X12753340Y-10449100D01*
X31594000Y-11851000D02*
X32994000Y-11851000D01*
X26804620Y-15661640D02*
X26804620Y-14261640D01*
X32547100Y-15659100D02*
X32547100Y-14259100D01*
X24183340Y-11849560D02*
X24183340Y-10449560D01*
X12992560Y-15661640D02*
X11592560Y-15661640D01*
X19416220Y-13754560D02*
X18016220Y-13754560D01*
X9212120Y-14262100D02*
X10612120Y-14262100D01*
X6829600Y-15661640D02*
X6829600Y-14261640D01*
X27543300Y-13754100D02*
X28943300Y-13754100D01*
X8495840Y-9944560D02*
X9895840Y-9944560D01*
X20876260Y-11846560D02*
X22276260Y-11846560D01*
X27040840Y-9944560D02*
X27040840Y-8544560D01*
X8495840Y-9944560D02*
X8495840Y-8544560D01*
X14210840Y-9944560D02*
X15610840Y-9944560D01*
X14210840Y-13754100D02*
X14210840Y-12354100D01*
X10400840Y-9944560D02*
X11800840Y-9944560D01*
X14210840Y-8544560D02*
X15610840Y-8544560D01*
X27543300Y-13754100D02*
X27543300Y-12354100D01*
X10846260Y-10449560D02*
X10846260Y-11849560D01*
X11800840Y-9944560D02*
X11800840Y-8544560D01*
X16115840Y-9944560D02*
X17515840Y-9944560D01*
X10398760Y-12354100D02*
X11798760Y-12354100D01*
X18973340Y-11849100D02*
X20373340Y-11849100D01*
X18020840Y-8544560D02*
X19420840Y-8544560D01*
X16115840Y-13754100D02*
X16115840Y-12354100D01*
X27543300Y-12354100D02*
X28943300Y-12354100D01*
X16115840Y-12354100D02*
X17515840Y-12354100D01*
X23731220Y-12354560D02*
X23731220Y-13754560D01*
X14210840Y-13754100D02*
X15610840Y-13754100D01*
X29184140Y-15659100D02*
X29184140Y-14259100D01*
X6829600Y-14261640D02*
X8229600Y-14261640D01*
X22783340Y-11849560D02*
X22783340Y-10449560D01*
X21828300Y-13754100D02*
X21828300Y-12354100D01*
X8466280Y-11849560D02*
X8466280Y-10449560D01*
X26593800Y-11852100D02*
X26593800Y-10452100D01*
X25640840Y-9944560D02*
X25640840Y-8544560D01*
X18844780Y-14033500D02*
X19544780Y-14033500D01*
X19544780Y-15633500D01*
X18844780Y-15633500D01*
X18844780Y-14033500D01*
X19925840Y-9944560D02*
X19925840Y-8544560D01*
X15163800Y-10446560D02*
X16563800Y-10446560D01*
X23735840Y-8544560D02*
X25135840Y-8544560D01*
X25640840Y-8544560D02*
X27040840Y-8544560D01*
X8943340Y-13754100D02*
X8943340Y-12354100D01*
X19689620Y-14259100D02*
X21089620Y-14259100D01*
X25404620Y-15661640D02*
X25404620Y-14261640D01*
X21830840Y-9944560D02*
X21830840Y-8544560D01*
X15610840Y-13754100D02*
X15610840Y-12354100D01*
X15163800Y-11846560D02*
X15163800Y-10446560D01*
X18973340Y-11849100D02*
X18973340Y-10449100D01*
X30166660Y-15659560D02*
X30166660Y-14259560D01*
X21325840Y-9944560D02*
X21325840Y-8544560D01*
X26593800Y-11852100D02*
X27993800Y-11852100D01*
X18973340Y-10449100D02*
X20373340Y-10449100D01*
X16115840Y-8544560D02*
X17515840Y-8544560D01*
X16324580Y-15658060D02*
X16324580Y-14258060D01*
X23261320Y-15660600D02*
X23261320Y-14260600D01*
X28498340Y-10451640D02*
X29898340Y-10451640D01*
X24686260Y-10449100D02*
X26086260Y-10449100D01*
X27545840Y-8544560D02*
X28945840Y-8544560D01*
X25638300Y-13754100D02*
X27038300Y-13754100D01*
X23735840Y-9944560D02*
X25135840Y-9944560D01*
X16464800Y-14030960D02*
X17164800Y-14030960D01*
X17164800Y-15630960D01*
X16464800Y-15630960D01*
X16464800Y-14030960D01*
X6590840Y-8544560D02*
X7990840Y-8544560D01*
X31594000Y-11851000D02*
X31594000Y-10451000D01*
X24686260Y-11849100D02*
X24686260Y-10449100D01*
X25131220Y-13754560D02*
X23731220Y-13754560D01*
X18020840Y-9944560D02*
X19420840Y-9944560D01*
X28943300Y-13754100D02*
X28943300Y-12354100D01*
X12305840Y-9944560D02*
X13705840Y-9944560D01*
X25640840Y-9944560D02*
X27040840Y-9944560D01*
X7543340Y-13754100D02*
X7543340Y-12354100D01*
X13258340Y-11849100D02*
X14658340Y-11849100D01*
X17515840Y-9944560D02*
X17515840Y-8544560D01*
X7066280Y-11849560D02*
X7066280Y-10449560D01*
X21229840Y-14030960D02*
X21929840Y-14030960D01*
X21929840Y-15630960D01*
X21229840Y-15630960D01*
X21229840Y-14030960D01*
X14079740Y-14030960D02*
X14779740Y-14030960D01*
X14779740Y-15630960D01*
X14079740Y-15630960D01*
X14079740Y-14030960D01*
X9076460Y-12342060D02*
X9776460Y-12342060D01*
X9776460Y-13942060D01*
X9076460Y-13942060D01*
X9076460Y-12342060D01*
X30749760Y-10429240D02*
X31449760Y-10429240D01*
X31449760Y-12029240D01*
X30749760Y-12029240D01*
X30749760Y-10429240D01*
X30274780Y-12341860D02*
X30974780Y-12341860D01*
X30974780Y-13941860D01*
X30274780Y-13941860D01*
X30274780Y-12341860D01*
X32665440Y-12329160D02*
X33365440Y-12329160D01*
X33365440Y-13929160D01*
X32665440Y-13929160D01*
X32665440Y-12329160D01*
X33122640Y-10401300D02*
X33822640Y-10401300D01*
X33822640Y-12001300D01*
X33122640Y-12001300D01*
X33122640Y-10401300D01*
X6698500Y-12342060D02*
X7398500Y-12342060D01*
X7398500Y-13942060D01*
X6698500Y-13942060D01*
X6698500Y-12342060D01*
D11*
X6132058Y-16695094D02*
X6132058Y-16495094D01*
X6132058Y-16495094D02*
X6179677Y-16495094D01*
X6179677Y-16495094D02*
X6208249Y-16504618D01*
X6208249Y-16504618D02*
X6227296Y-16523665D01*
X6227296Y-16523665D02*
X6236820Y-16542713D01*
X6236820Y-16542713D02*
X6246344Y-16580808D01*
X6246344Y-16580808D02*
X6246344Y-16609380D01*
X6246344Y-16609380D02*
X6236820Y-16647475D01*
X6236820Y-16647475D02*
X6227296Y-16666522D01*
X6227296Y-16666522D02*
X6208249Y-16685570D01*
X6208249Y-16685570D02*
X6179677Y-16695094D01*
X6179677Y-16695094D02*
X6132058Y-16695094D01*
X6332058Y-16695094D02*
X6332058Y-16561760D01*
X6332058Y-16599856D02*
X6341582Y-16580808D01*
X6341582Y-16580808D02*
X6351106Y-16571284D01*
X6351106Y-16571284D02*
X6370153Y-16561760D01*
X6370153Y-16561760D02*
X6389201Y-16561760D01*
X6455868Y-16695094D02*
X6455868Y-16561760D01*
X6455868Y-16495094D02*
X6446344Y-16504618D01*
X6446344Y-16504618D02*
X6455868Y-16514141D01*
X6455868Y-16514141D02*
X6465391Y-16504618D01*
X6465391Y-16504618D02*
X6455868Y-16495094D01*
X6455868Y-16495094D02*
X6455868Y-16514141D01*
X6579677Y-16695094D02*
X6560629Y-16685570D01*
X6560629Y-16685570D02*
X6551106Y-16666522D01*
X6551106Y-16666522D02*
X6551106Y-16495094D01*
X6684439Y-16695094D02*
X6665391Y-16685570D01*
X6665391Y-16685570D02*
X6655868Y-16666522D01*
X6655868Y-16666522D02*
X6655868Y-16495094D01*
X6913010Y-16695094D02*
X6913010Y-16495094D01*
X6913010Y-16495094D02*
X6979677Y-16637951D01*
X6979677Y-16637951D02*
X7046344Y-16495094D01*
X7046344Y-16495094D02*
X7046344Y-16695094D01*
X7227296Y-16695094D02*
X7227296Y-16590332D01*
X7227296Y-16590332D02*
X7217772Y-16571284D01*
X7217772Y-16571284D02*
X7198725Y-16561760D01*
X7198725Y-16561760D02*
X7160629Y-16561760D01*
X7160629Y-16561760D02*
X7141582Y-16571284D01*
X7227296Y-16685570D02*
X7208249Y-16695094D01*
X7208249Y-16695094D02*
X7160629Y-16695094D01*
X7160629Y-16695094D02*
X7141582Y-16685570D01*
X7141582Y-16685570D02*
X7132058Y-16666522D01*
X7132058Y-16666522D02*
X7132058Y-16647475D01*
X7132058Y-16647475D02*
X7141582Y-16628427D01*
X7141582Y-16628427D02*
X7160629Y-16618903D01*
X7160629Y-16618903D02*
X7208249Y-16618903D01*
X7208249Y-16618903D02*
X7227296Y-16609380D01*
X7322534Y-16561760D02*
X7322534Y-16761760D01*
X7322534Y-16571284D02*
X7341582Y-16561760D01*
X7341582Y-16561760D02*
X7379677Y-16561760D01*
X7379677Y-16561760D02*
X7398725Y-16571284D01*
X7398725Y-16571284D02*
X7408249Y-16580808D01*
X7408249Y-16580808D02*
X7417772Y-16599856D01*
X7417772Y-16599856D02*
X7417772Y-16656999D01*
X7417772Y-16656999D02*
X7408249Y-16676046D01*
X7408249Y-16676046D02*
X7398725Y-16685570D01*
X7398725Y-16685570D02*
X7379677Y-16695094D01*
X7379677Y-16695094D02*
X7341582Y-16695094D01*
X7341582Y-16695094D02*
X7322534Y-16685570D01*
X7503487Y-16676046D02*
X7513010Y-16685570D01*
X7513010Y-16685570D02*
X7503487Y-16695094D01*
X7503487Y-16695094D02*
X7493963Y-16685570D01*
X7493963Y-16685570D02*
X7503487Y-16676046D01*
X7503487Y-16676046D02*
X7503487Y-16695094D01*
X7503487Y-16571284D02*
X7513010Y-16580808D01*
X7513010Y-16580808D02*
X7503487Y-16590332D01*
X7503487Y-16590332D02*
X7493963Y-16580808D01*
X7493963Y-16580808D02*
X7503487Y-16571284D01*
X7503487Y-16571284D02*
X7503487Y-16590332D01*
M02*
