%TF.GenerationSoftware,KiCad,Pcbnew,8.0.4*%
%TF.CreationDate,2024-10-16T20:42:44+03:00*%
%TF.ProjectId,4040,34303430-2e6b-4696-9361-645f70636258,rev?*%
%TF.SameCoordinates,Original*%
%TF.FileFunction,Soldermask,Top*%
%TF.FilePolarity,Negative*%
%FSLAX46Y46*%
G04 Gerber Fmt 4.6, Leading zero omitted, Abs format (unit mm)*
G04 Created by KiCad (PCBNEW 8.0.4) date 2024-10-16 20:42:44*
%MOMM*%
%LPD*%
G01*
G04 APERTURE LIST*
G04 Aperture macros list*
%AMRoundRect*
0 Rectangle with rounded corners*
0 $1 Rounding radius*
0 $2 $3 $4 $5 $6 $7 $8 $9 X,Y pos of 4 corners*
0 Add a 4 corners polygon primitive as box body*
4,1,4,$2,$3,$4,$5,$6,$7,$8,$9,$2,$3,0*
0 Add four circle primitives for the rounded corners*
1,1,$1+$1,$2,$3*
1,1,$1+$1,$4,$5*
1,1,$1+$1,$6,$7*
1,1,$1+$1,$8,$9*
0 Add four rect primitives between the rounded corners*
20,1,$1+$1,$2,$3,$4,$5,0*
20,1,$1+$1,$4,$5,$6,$7,0*
20,1,$1+$1,$6,$7,$8,$9,0*
20,1,$1+$1,$8,$9,$2,$3,0*%
G04 Aperture macros list end*
%ADD10C,1.750000*%
%ADD11C,3.987800*%
%ADD12RoundRect,0.250000X-0.503814X-0.132583X-0.132583X-0.503814X0.503814X0.132583X0.132583X0.503814X0*%
%ADD13C,3.048000*%
%ADD14RoundRect,0.250000X-0.262500X-0.450000X0.262500X-0.450000X0.262500X0.450000X-0.262500X0.450000X0*%
%ADD15R,1.800000X1.800000*%
%ADD16O,1.800000X1.800000*%
%ADD17C,0.650000*%
%ADD18O,1.600000X1.000000*%
%ADD19O,2.100000X1.000000*%
G04 APERTURE END LIST*
D10*
%TO.C,MX9*%
X214940000Y-81590000D03*
D11*
X220020000Y-81590000D03*
D10*
X225100000Y-81590000D03*
%TD*%
%TO.C,MX24*%
X243509800Y-100634800D03*
D11*
X248589800Y-100634800D03*
D10*
X253669800Y-100634800D03*
%TD*%
%TO.C,MX26*%
X281609800Y-100660200D03*
D11*
X286689800Y-100660200D03*
D10*
X291769800Y-100660200D03*
%TD*%
%TO.C,MX7*%
X176840000Y-81590000D03*
D11*
X181920000Y-81590000D03*
D10*
X187000000Y-81590000D03*
%TD*%
%TO.C,MX29*%
X100634800Y-119684800D03*
D11*
X105714800Y-119684800D03*
D10*
X110794800Y-119684800D03*
%TD*%
%TO.C,MX32*%
X157784800Y-119684800D03*
D11*
X162864800Y-119684800D03*
D10*
X167944800Y-119684800D03*
%TD*%
%TO.C,MX8*%
X195890000Y-81590000D03*
D11*
X200970000Y-81590000D03*
D10*
X206050000Y-81590000D03*
%TD*%
%TO.C,TAB1*%
X67303020Y-100634800D03*
D11*
X72383020Y-100634800D03*
D10*
X77463020Y-100634800D03*
%TD*%
%TO.C,MX35*%
X214924000Y-119684800D03*
D11*
X220004000Y-119684800D03*
D10*
X225084000Y-119684800D03*
%TD*%
%TO.C,MX13*%
X291140000Y-81590000D03*
D11*
X296220000Y-81590000D03*
D10*
X301300000Y-81590000D03*
%TD*%
%TO.C,MX34*%
X195874000Y-119684800D03*
D11*
X200954000Y-119684800D03*
D10*
X206034000Y-119684800D03*
%TD*%
%TO.C,MX25*%
X262559800Y-100660200D03*
D11*
X267639800Y-100660200D03*
D10*
X272719800Y-100660200D03*
%TD*%
%TO.C,MX20*%
X167309800Y-100634800D03*
D11*
X172389800Y-100634800D03*
D10*
X177469800Y-100634800D03*
%TD*%
%TO.C,MX1*%
X62540000Y-81590000D03*
D11*
X67620000Y-81590000D03*
D10*
X72700000Y-81590000D03*
%TD*%
%TO.C,MX10*%
X233990000Y-81590000D03*
D11*
X239070000Y-81590000D03*
D10*
X244150000Y-81590000D03*
%TD*%
%TO.C,MX41*%
X88747600Y-138760200D03*
D11*
X93827600Y-138760200D03*
D10*
X98907600Y-138760200D03*
%TD*%
D12*
%TO.C,R1*%
X82462440Y-93457960D03*
X83752910Y-94748430D03*
%TD*%
D10*
%TO.C,MX33*%
X176834800Y-119682150D03*
D11*
X181914800Y-119682150D03*
D10*
X186994800Y-119682150D03*
%TD*%
%TO.C,MX30*%
X119684800Y-119684800D03*
D11*
X124764800Y-119684800D03*
D10*
X129844800Y-119684800D03*
%TD*%
%TO.C,MX14*%
X317335000Y-81590000D03*
D11*
X322415000Y-81590000D03*
D10*
X327495000Y-81590000D03*
%TD*%
%TO.C,MX38*%
X272074000Y-119684800D03*
D11*
X277154000Y-119684800D03*
D10*
X282234000Y-119684800D03*
%TD*%
D13*
%TO.C,LSH1*%
X65201800Y-112699800D03*
D11*
X65201800Y-127939800D03*
D10*
X72059800Y-119684800D03*
D11*
X77139800Y-119684800D03*
D10*
X82219800Y-119684800D03*
D13*
X89077800Y-112699800D03*
D11*
X89077800Y-127939800D03*
%TD*%
%TO.C,LS1*%
X139014200Y-130479800D03*
D13*
X139014200Y-145719800D03*
D10*
X145872200Y-138734800D03*
D11*
X150952200Y-138734800D03*
D10*
X156032200Y-138734800D03*
D11*
X162890200Y-130479800D03*
D13*
X162890200Y-145719800D03*
%TD*%
%TO.C,ENTER1*%
X305714400Y-93675200D03*
D11*
X305714400Y-108915200D03*
D10*
X312572400Y-100660200D03*
D11*
X317652400Y-100660200D03*
D10*
X322732400Y-100660200D03*
D13*
X329590400Y-93675200D03*
D11*
X329590400Y-108915200D03*
%TD*%
D14*
%TO.C,R6*%
X59516000Y-87909400D03*
X61341000Y-87909400D03*
%TD*%
D11*
%TO.C,RS1*%
X186664600Y-130479800D03*
D13*
X186664600Y-145719800D03*
D10*
X193522600Y-138734800D03*
D11*
X198602600Y-138734800D03*
D10*
X203682600Y-138734800D03*
D11*
X210540600Y-130479800D03*
D13*
X210540600Y-145719800D03*
%TD*%
D10*
%TO.C,MX12*%
X272090000Y-81590000D03*
D11*
X277170000Y-81590000D03*
D10*
X282250000Y-81590000D03*
%TD*%
%TO.C,MX17*%
X110159800Y-100634800D03*
D11*
X115239800Y-100634800D03*
D10*
X120319800Y-100634800D03*
%TD*%
%TO.C,MX22*%
X205409800Y-100634800D03*
D11*
X210489800Y-100634800D03*
D10*
X215569800Y-100634800D03*
%TD*%
%TO.C,MX16*%
X91099640Y-100634800D03*
D11*
X96179640Y-100634800D03*
D10*
X101259640Y-100634800D03*
%TD*%
%TO.C,MX40*%
X64922400Y-138760200D03*
D11*
X70002400Y-138760200D03*
D10*
X75082400Y-138760200D03*
%TD*%
%TO.C,MX21*%
X186359800Y-100634800D03*
D11*
X191439800Y-100634800D03*
D10*
X196519800Y-100634800D03*
%TD*%
%TO.C,MX45*%
X229250000Y-138757550D03*
D11*
X234330000Y-138757550D03*
D10*
X239410000Y-138757550D03*
%TD*%
%TO.C,MX31*%
X138734800Y-119684800D03*
D11*
X143814800Y-119684800D03*
D10*
X148894800Y-119684800D03*
%TD*%
%TO.C,MX47*%
X274472400Y-138760200D03*
D11*
X279552400Y-138760200D03*
D10*
X284632400Y-138760200D03*
%TD*%
%TO.C,MX37*%
X253024000Y-119684800D03*
D11*
X258104000Y-119684800D03*
D10*
X263184000Y-119684800D03*
%TD*%
%TO.C,MX48*%
X298297600Y-138760200D03*
D11*
X303377600Y-138760200D03*
D10*
X308457600Y-138760200D03*
%TD*%
D13*
%TO.C,RSH1*%
X300964600Y-112699800D03*
D11*
X300964600Y-127939800D03*
D10*
X307822600Y-119684800D03*
D11*
X312902600Y-119684800D03*
D10*
X317982600Y-119684800D03*
D13*
X324840600Y-112699800D03*
D11*
X324840600Y-127939800D03*
%TD*%
D10*
%TO.C,MX42*%
X112558200Y-138760200D03*
D11*
X117638200Y-138760200D03*
D10*
X122718200Y-138760200D03*
%TD*%
%TO.C,MX23*%
X224459800Y-100647000D03*
D11*
X229539800Y-100647000D03*
D10*
X234619800Y-100647000D03*
%TD*%
%TO.C,MX6*%
X157790000Y-81590000D03*
D11*
X162870000Y-81590000D03*
D10*
X167950000Y-81590000D03*
%TD*%
%TO.C,MX3*%
X100640000Y-81590000D03*
D11*
X105720000Y-81590000D03*
D10*
X110800000Y-81590000D03*
%TD*%
%TO.C,MX4*%
X119690000Y-81590000D03*
D11*
X124770000Y-81590000D03*
D10*
X129850000Y-81590000D03*
%TD*%
%TO.C,MX18*%
X129209800Y-100634800D03*
D11*
X134289800Y-100634800D03*
D10*
X139369800Y-100634800D03*
%TD*%
D14*
%TO.C,R5*%
X59516000Y-90525600D03*
X61341000Y-90525600D03*
%TD*%
D12*
%TO.C,R2*%
X83845400Y-92075000D03*
X85135870Y-93365470D03*
%TD*%
D10*
%TO.C,MX49*%
X322110100Y-138752580D03*
D11*
X327190100Y-138752580D03*
D10*
X332270100Y-138752580D03*
%TD*%
%TO.C,MX36*%
X233974000Y-119684800D03*
D11*
X239054000Y-119684800D03*
D10*
X244134000Y-119684800D03*
%TD*%
%TO.C,MX5*%
X138740000Y-81590000D03*
D11*
X143820000Y-81590000D03*
D10*
X148900000Y-81590000D03*
%TD*%
%TO.C,MX46*%
X250672600Y-138760200D03*
D11*
X255752600Y-138760200D03*
D10*
X260832600Y-138760200D03*
%TD*%
%TO.C,MX11*%
X253040000Y-81590000D03*
D11*
X258120000Y-81590000D03*
D10*
X263200000Y-81590000D03*
%TD*%
%TO.C,MX2*%
X81590000Y-81590000D03*
D11*
X86670000Y-81590000D03*
D10*
X91750000Y-81590000D03*
%TD*%
%TO.C,MX19*%
X148259800Y-100634800D03*
D11*
X153339800Y-100634800D03*
D10*
X158419800Y-100634800D03*
%TD*%
D15*
%TO.C,D1*%
X77165200Y-87829500D03*
D16*
X77165200Y-82329500D03*
%TD*%
D15*
%TO.C,D14*%
X331647800Y-87829500D03*
D16*
X331647800Y-82329500D03*
%TD*%
D15*
%TO.C,D26*%
X296214800Y-106879500D03*
D16*
X296214800Y-101379500D03*
%TD*%
D15*
%TO.C,D11*%
X267665200Y-87829500D03*
D16*
X267665200Y-82329500D03*
%TD*%
D15*
%TO.C,D16*%
X105765600Y-106879500D03*
D16*
X105765600Y-101379500D03*
%TD*%
D15*
%TO.C,D38*%
X286715200Y-125929500D03*
D16*
X286715200Y-120429500D03*
%TD*%
D15*
%TO.C,D46*%
X267665200Y-139188300D03*
D16*
X267665200Y-133688300D03*
%TD*%
D15*
%TO.C,D12*%
X286715200Y-87829500D03*
D16*
X286715200Y-82329500D03*
%TD*%
D15*
%TO.C,D32*%
X172389800Y-125929500D03*
D16*
X172389800Y-120429500D03*
%TD*%
D15*
%TO.C,D40*%
X81915000Y-139205600D03*
D16*
X81915000Y-133705600D03*
%TD*%
D15*
%TO.C,D24*%
X258140200Y-106879500D03*
D16*
X258140200Y-101379500D03*
%TD*%
D17*
%TO.C,J1*%
X62594800Y-92145600D03*
X62594800Y-86365600D03*
D18*
X58944800Y-93575600D03*
D19*
X63124800Y-93575600D03*
D18*
X58944800Y-84935600D03*
D19*
X63124800Y-84935600D03*
%TD*%
D15*
%TO.C,D41*%
X105740200Y-139188300D03*
D16*
X105740200Y-133688300D03*
%TD*%
D15*
%TO.C,D4*%
X134315200Y-87829500D03*
D16*
X134315200Y-82329500D03*
%TD*%
D15*
%TO.C,D29*%
X115265200Y-125929500D03*
D16*
X115265200Y-120429500D03*
%TD*%
D15*
%TO.C,D34*%
X210515200Y-125929500D03*
D16*
X210515200Y-120429500D03*
%TD*%
D15*
%TO.C,D19*%
X162890200Y-106879500D03*
D16*
X162890200Y-101379500D03*
%TD*%
D15*
%TO.C,D45*%
X243865400Y-139188300D03*
D16*
X243865400Y-133688300D03*
%TD*%
D15*
%TO.C,D28*%
X96189800Y-125929500D03*
D16*
X96189800Y-120429500D03*
%TD*%
D15*
%TO.C,D7*%
X191439800Y-87829500D03*
D16*
X191439800Y-82329500D03*
%TD*%
D15*
%TO.C,D3*%
X115265200Y-87829500D03*
D16*
X115265200Y-82329500D03*
%TD*%
D15*
%TO.C,D13*%
X305739800Y-87829500D03*
D16*
X305739800Y-82329500D03*
%TD*%
D15*
%TO.C,D48*%
X315290200Y-139188300D03*
D16*
X315290200Y-133688300D03*
%TD*%
D15*
%TO.C,D2*%
X96215200Y-87829500D03*
D16*
X96215200Y-82329500D03*
%TD*%
D15*
%TO.C,D22*%
X220040200Y-106879500D03*
D16*
X220040200Y-101379500D03*
%TD*%
D15*
%TO.C,D20*%
X181914800Y-106879500D03*
D16*
X181914800Y-101379500D03*
%TD*%
D15*
%TO.C,D39*%
X333197200Y-125929500D03*
D16*
X333197200Y-120429500D03*
%TD*%
D15*
%TO.C,D25*%
X277190200Y-106879500D03*
D16*
X277190200Y-101379500D03*
%TD*%
D15*
%TO.C,D21*%
X200990200Y-106879500D03*
D16*
X200990200Y-101379500D03*
%TD*%
D15*
%TO.C,D36*%
X248615200Y-125929500D03*
D16*
X248615200Y-120429500D03*
%TD*%
D15*
%TO.C,D9*%
X229565200Y-87829500D03*
D16*
X229565200Y-82329500D03*
%TD*%
D15*
%TO.C,D8*%
X210515200Y-87829500D03*
D16*
X210515200Y-82329500D03*
%TD*%
D15*
%TO.C,D6*%
X172415200Y-87829500D03*
D16*
X172415200Y-82329500D03*
%TD*%
D15*
%TO.C,D30*%
X134315200Y-125929500D03*
D16*
X134315200Y-120429500D03*
%TD*%
D15*
%TO.C,D33*%
X191465200Y-125929500D03*
D16*
X191465200Y-120429500D03*
%TD*%
D15*
%TO.C,D31*%
X153365200Y-125929500D03*
D16*
X153365200Y-120429500D03*
%TD*%
D15*
%TO.C,D43*%
X132867400Y-139188300D03*
D16*
X132867400Y-133688300D03*
%TD*%
D15*
%TO.C,D35*%
X229565200Y-125929500D03*
D16*
X229565200Y-120429500D03*
%TD*%
D15*
%TO.C,D5*%
X153365200Y-87829500D03*
D16*
X153365200Y-82329500D03*
%TD*%
D15*
%TO.C,D47*%
X291490400Y-139188300D03*
D16*
X291490400Y-133688300D03*
%TD*%
D15*
%TO.C,D23*%
X239090200Y-106879500D03*
D16*
X239090200Y-101379500D03*
%TD*%
D15*
%TO.C,D27*%
X335280000Y-106879500D03*
D16*
X335280000Y-101379500D03*
%TD*%
D15*
%TO.C,D42*%
X129540000Y-139188300D03*
D16*
X129540000Y-133688300D03*
%TD*%
D15*
%TO.C,D18*%
X143814800Y-106879500D03*
D16*
X143814800Y-101379500D03*
%TD*%
D15*
%TO.C,D37*%
X267639800Y-125929500D03*
D16*
X267639800Y-120429500D03*
%TD*%
D15*
%TO.C,D15*%
X83134200Y-106879500D03*
D16*
X83134200Y-101379500D03*
%TD*%
D15*
%TO.C,D44*%
X224815400Y-139188300D03*
D16*
X224815400Y-133688300D03*
%TD*%
D15*
%TO.C,D49*%
X337058000Y-139188300D03*
D16*
X337058000Y-133688300D03*
%TD*%
D15*
%TO.C,D10*%
X248615200Y-87829500D03*
D16*
X248615200Y-82329500D03*
%TD*%
D15*
%TO.C,D17*%
X124790200Y-106879500D03*
D16*
X124790200Y-101379500D03*
%TD*%
M02*
