M48
; DRILL file {KiCad 8.0.4} date 2024-10-16T20:42:45+0300
; FORMAT={-:-/ absolute / inch / decimal}
; #@! TF.CreationDate,2024-10-16T20:42:45+03:00
; #@! TF.GenerationSoftware,Kicad,Pcbnew,8.0.4
; #@! TF.FileFunction,NonPlated,1,2,NPTH
FMAT,2
INCH
; #@! TA.AperFunction,NonPlated,NPTH,ComponentDrill
T1C0.0256
; #@! TA.AperFunction,NonPlated,NPTH,ComponentDrill
T2C0.0689
; #@! TA.AperFunction,NonPlated,NPTH,ComponentDrill
T3C0.1200
; #@! TA.AperFunction,NonPlated,NPTH,ComponentDrill
T4C0.1570
%
G90
G05
T1
X2.4644Y-3.4002
X2.4644Y-3.6278
T2
X2.4622Y-3.2122
X2.556Y-5.463
X2.6497Y-3.962
X2.837Y-4.712
X2.8622Y-3.2122
X2.956Y-5.463
X3.0497Y-3.962
X3.2122Y-3.2122
X3.237Y-4.712
X3.494Y-5.463
X3.5866Y-3.962
X3.6122Y-3.2122
X3.894Y-5.463
X3.962Y-4.712
X3.9622Y-3.2122
X3.9866Y-3.962
X4.337Y-3.962
X4.362Y-4.712
X4.3622Y-3.2122
X4.4314Y-5.463
X4.712Y-4.712
X4.7122Y-3.2122
X4.737Y-3.962
X4.8314Y-5.463
X5.087Y-3.962
X5.112Y-4.712
X5.1122Y-3.2122
X5.462Y-4.712
X5.4622Y-3.2122
X5.487Y-3.962
X5.743Y-5.462
X5.837Y-3.962
X5.862Y-4.712
X5.8622Y-3.2122
X6.143Y-5.462
X6.212Y-4.712
X6.2122Y-3.2122
X6.237Y-3.962
X6.587Y-3.962
X6.612Y-4.712
X6.6122Y-3.2122
X6.962Y-4.7119
X6.9622Y-3.2122
X6.987Y-3.962
X7.337Y-3.962
X7.362Y-4.7119
X7.3622Y-3.2122
X7.619Y-5.462
X7.7116Y-4.712
X7.7122Y-3.2122
X7.737Y-3.962
X8.019Y-5.462
X8.087Y-3.962
X8.1116Y-4.712
X8.1122Y-3.2122
X8.4616Y-4.712
X8.4622Y-3.2122
X8.487Y-3.962
X8.837Y-3.9625
X8.8616Y-4.712
X8.8622Y-3.2122
X9.0256Y-5.4629
X9.2116Y-4.712
X9.2122Y-3.2122
X9.237Y-3.9625
X9.4256Y-5.4629
X9.587Y-3.962
X9.6116Y-4.712
X9.6122Y-3.2122
X9.869Y-5.463
X9.9616Y-4.712
X9.9622Y-3.2122
X9.987Y-3.962
X10.269Y-5.463
X10.337Y-3.963
X10.3616Y-4.712
X10.3622Y-3.2122
X10.7116Y-4.712
X10.7122Y-3.2122
X10.737Y-3.963
X10.806Y-5.463
X11.087Y-3.963
X11.1116Y-4.712
X11.1122Y-3.2122
X11.206Y-5.463
X11.4622Y-3.2122
X11.487Y-3.963
X11.744Y-5.463
X11.8622Y-3.2122
X12.119Y-4.712
X12.144Y-5.463
X12.306Y-3.963
X12.4935Y-3.2122
X12.519Y-4.712
X12.6815Y-5.4627
X12.706Y-3.963
X12.8935Y-3.2122
X13.0815Y-5.4627
T3
X2.567Y-4.437
X3.507Y-4.437
X5.473Y-5.737
X6.413Y-5.737
X7.349Y-5.737
X8.289Y-5.737
X11.849Y-4.437
X12.036Y-3.688
X12.789Y-4.437
X12.976Y-3.688
T4
X2.567Y-5.037
X2.6622Y-3.2122
X2.756Y-5.463
X2.8497Y-3.962
X3.037Y-4.712
X3.4122Y-3.2122
X3.507Y-5.037
X3.694Y-5.463
X3.7866Y-3.962
X4.162Y-4.712
X4.1622Y-3.2122
X4.537Y-3.962
X4.6314Y-5.463
X4.912Y-4.712
X4.9122Y-3.2122
X5.287Y-3.962
X5.473Y-5.137
X5.662Y-4.712
X5.6622Y-3.2122
X5.943Y-5.462
X6.037Y-3.962
X6.412Y-4.712
X6.4122Y-3.2122
X6.413Y-5.137
X6.787Y-3.962
X7.162Y-4.7119
X7.1622Y-3.2122
X7.349Y-5.137
X7.537Y-3.962
X7.819Y-5.462
X7.9116Y-4.712
X7.9122Y-3.2122
X8.287Y-3.962
X8.289Y-5.137
X8.6616Y-4.712
X8.6622Y-3.2122
X9.037Y-3.9625
X9.2256Y-5.4629
X9.4116Y-4.712
X9.4122Y-3.2122
X9.787Y-3.962
X10.069Y-5.463
X10.1616Y-4.712
X10.1622Y-3.2122
X10.537Y-3.963
X10.9116Y-4.712
X10.9122Y-3.2122
X11.006Y-5.463
X11.287Y-3.963
X11.6622Y-3.2122
X11.849Y-5.037
X11.944Y-5.463
X12.036Y-4.288
X12.319Y-4.712
X12.506Y-3.963
X12.6935Y-3.2122
X12.789Y-5.037
X12.8815Y-5.4627
X12.976Y-4.288
M30
