%TF.GenerationSoftware,KiCad,Pcbnew,8.0.4*%
%TF.CreationDate,2024-10-16T20:42:44+03:00*%
%TF.ProjectId,4040,34303430-2e6b-4696-9361-645f70636258,rev?*%
%TF.SameCoordinates,Original*%
%TF.FileFunction,Legend,Top*%
%TF.FilePolarity,Positive*%
%FSLAX46Y46*%
G04 Gerber Fmt 4.6, Leading zero omitted, Abs format (unit mm)*
G04 Created by KiCad (PCBNEW 8.0.4) date 2024-10-16 20:42:44*
%MOMM*%
%LPD*%
G01*
G04 APERTURE LIST*
%ADD10C,0.150000*%
%ADD11C,0.120000*%
G04 APERTURE END LIST*
D10*
X83834944Y-93140223D02*
X83935959Y-92567804D01*
X83430883Y-92736162D02*
X84137990Y-92029056D01*
X84137990Y-92029056D02*
X84407364Y-92298430D01*
X84407364Y-92298430D02*
X84441036Y-92399445D01*
X84441036Y-92399445D02*
X84441036Y-92466788D01*
X84441036Y-92466788D02*
X84407364Y-92567804D01*
X84407364Y-92567804D02*
X84306349Y-92668819D01*
X84306349Y-92668819D02*
X84205333Y-92702491D01*
X84205333Y-92702491D02*
X84137990Y-92702491D01*
X84137990Y-92702491D02*
X84036975Y-92668819D01*
X84036975Y-92668819D02*
X83767601Y-92399445D01*
X84508379Y-93813658D02*
X84104318Y-93409597D01*
X84306349Y-93611628D02*
X85013455Y-92904521D01*
X85013455Y-92904521D02*
X84845097Y-92938193D01*
X84845097Y-92938193D02*
X84710410Y-92938193D01*
X84710410Y-92938193D02*
X84609394Y-92904521D01*
X60261833Y-86714219D02*
X59928500Y-86238028D01*
X59690405Y-86714219D02*
X59690405Y-85714219D01*
X59690405Y-85714219D02*
X60071357Y-85714219D01*
X60071357Y-85714219D02*
X60166595Y-85761838D01*
X60166595Y-85761838D02*
X60214214Y-85809457D01*
X60214214Y-85809457D02*
X60261833Y-85904695D01*
X60261833Y-85904695D02*
X60261833Y-86047552D01*
X60261833Y-86047552D02*
X60214214Y-86142790D01*
X60214214Y-86142790D02*
X60166595Y-86190409D01*
X60166595Y-86190409D02*
X60071357Y-86238028D01*
X60071357Y-86238028D02*
X59690405Y-86238028D01*
X61118976Y-85714219D02*
X60928500Y-85714219D01*
X60928500Y-85714219D02*
X60833262Y-85761838D01*
X60833262Y-85761838D02*
X60785643Y-85809457D01*
X60785643Y-85809457D02*
X60690405Y-85952314D01*
X60690405Y-85952314D02*
X60642786Y-86142790D01*
X60642786Y-86142790D02*
X60642786Y-86523742D01*
X60642786Y-86523742D02*
X60690405Y-86618980D01*
X60690405Y-86618980D02*
X60738024Y-86666600D01*
X60738024Y-86666600D02*
X60833262Y-86714219D01*
X60833262Y-86714219D02*
X61023738Y-86714219D01*
X61023738Y-86714219D02*
X61118976Y-86666600D01*
X61118976Y-86666600D02*
X61166595Y-86618980D01*
X61166595Y-86618980D02*
X61214214Y-86523742D01*
X61214214Y-86523742D02*
X61214214Y-86285647D01*
X61214214Y-86285647D02*
X61166595Y-86190409D01*
X61166595Y-86190409D02*
X61118976Y-86142790D01*
X61118976Y-86142790D02*
X61023738Y-86095171D01*
X61023738Y-86095171D02*
X60833262Y-86095171D01*
X60833262Y-86095171D02*
X60738024Y-86142790D01*
X60738024Y-86142790D02*
X60690405Y-86190409D01*
X60690405Y-86190409D02*
X60642786Y-86285647D01*
X60261833Y-89330419D02*
X59928500Y-88854228D01*
X59690405Y-89330419D02*
X59690405Y-88330419D01*
X59690405Y-88330419D02*
X60071357Y-88330419D01*
X60071357Y-88330419D02*
X60166595Y-88378038D01*
X60166595Y-88378038D02*
X60214214Y-88425657D01*
X60214214Y-88425657D02*
X60261833Y-88520895D01*
X60261833Y-88520895D02*
X60261833Y-88663752D01*
X60261833Y-88663752D02*
X60214214Y-88758990D01*
X60214214Y-88758990D02*
X60166595Y-88806609D01*
X60166595Y-88806609D02*
X60071357Y-88854228D01*
X60071357Y-88854228D02*
X59690405Y-88854228D01*
X61166595Y-88330419D02*
X60690405Y-88330419D01*
X60690405Y-88330419D02*
X60642786Y-88806609D01*
X60642786Y-88806609D02*
X60690405Y-88758990D01*
X60690405Y-88758990D02*
X60785643Y-88711371D01*
X60785643Y-88711371D02*
X61023738Y-88711371D01*
X61023738Y-88711371D02*
X61118976Y-88758990D01*
X61118976Y-88758990D02*
X61166595Y-88806609D01*
X61166595Y-88806609D02*
X61214214Y-88901847D01*
X61214214Y-88901847D02*
X61214214Y-89139942D01*
X61214214Y-89139942D02*
X61166595Y-89235180D01*
X61166595Y-89235180D02*
X61118976Y-89282800D01*
X61118976Y-89282800D02*
X61023738Y-89330419D01*
X61023738Y-89330419D02*
X60785643Y-89330419D01*
X60785643Y-89330419D02*
X60690405Y-89282800D01*
X60690405Y-89282800D02*
X60642786Y-89235180D01*
X85217904Y-91757263D02*
X85318919Y-91184844D01*
X84813843Y-91353202D02*
X85520950Y-90646096D01*
X85520950Y-90646096D02*
X85790324Y-90915470D01*
X85790324Y-90915470D02*
X85823996Y-91016485D01*
X85823996Y-91016485D02*
X85823996Y-91083828D01*
X85823996Y-91083828D02*
X85790324Y-91184844D01*
X85790324Y-91184844D02*
X85689309Y-91285859D01*
X85689309Y-91285859D02*
X85588293Y-91319531D01*
X85588293Y-91319531D02*
X85520950Y-91319531D01*
X85520950Y-91319531D02*
X85419935Y-91285859D01*
X85419935Y-91285859D02*
X85150561Y-91016485D01*
X86127041Y-91386874D02*
X86194385Y-91386874D01*
X86194385Y-91386874D02*
X86295400Y-91420546D01*
X86295400Y-91420546D02*
X86463759Y-91588905D01*
X86463759Y-91588905D02*
X86497431Y-91689920D01*
X86497431Y-91689920D02*
X86497431Y-91757263D01*
X86497431Y-91757263D02*
X86463759Y-91858279D01*
X86463759Y-91858279D02*
X86396415Y-91925622D01*
X86396415Y-91925622D02*
X86261728Y-91992966D01*
X86261728Y-91992966D02*
X85453606Y-91992966D01*
X85453606Y-91992966D02*
X85891339Y-92430698D01*
D11*
%TO.C,R1*%
X82427393Y-94462360D02*
X82748510Y-94783477D01*
X83466840Y-93422913D02*
X83787957Y-93744030D01*
%TO.C,R6*%
X60201436Y-87174400D02*
X60655564Y-87174400D01*
X60201436Y-88644400D02*
X60655564Y-88644400D01*
%TO.C,R5*%
X60201436Y-89790600D02*
X60655564Y-89790600D01*
X60201436Y-91260600D02*
X60655564Y-91260600D01*
%TO.C,R2*%
X83810353Y-93079400D02*
X84131470Y-93400517D01*
X84849800Y-92039953D02*
X85170917Y-92361070D01*
%TD*%
M02*
