M48
; DRILL file {KiCad 8.0.4} date 2024-10-16T20:42:45+0300
; FORMAT={-:-/ absolute / inch / decimal}
; #@! TF.CreationDate,2024-10-16T20:42:45+03:00
; #@! TF.GenerationSoftware,Kicad,Pcbnew,8.0.4
; #@! TF.FileFunction,Plated,1,2,PTH
FMAT,2
INCH
; #@! TA.AperFunction,Plated,PTH,ViaDrill
T1C0.0118
; #@! TA.AperFunction,Plated,PTH,ComponentDrill
T2C0.0236
; #@! TA.AperFunction,Plated,PTH,ComponentDrill
T3C0.0354
; #@! TA.AperFunction,Plated,PTH,ComponentDrill
T4C0.0579
%
G90
G05
T1
X2.46Y-3.568
X2.4622Y-3.4672
X2.756Y-3.431
X2.767Y-3.588
X3.226Y-3.635
X3.2522Y-3.6076
X4.711Y-4.9847
X6.013Y-5.7442
X6.233Y-5.598
X6.2853Y-5.2865
X6.289Y-5.75
X6.3128Y-5.2604
X6.32Y-5.784
X6.342Y-5.5579
X6.346Y-5.3161
X6.697Y-5.599
X7.165Y-4.847
X7.3607Y-5.6121
X7.384Y-5.5816
X8.699Y-5.594
X9.528Y-5.603
X12.3764Y-5.5544
T3
X3.038Y-3.2413
X3.038Y-3.4579
X3.225Y-5.264
X3.225Y-5.4805
X3.273Y-3.9913
X3.273Y-4.2079
X3.787Y-4.7413
X3.787Y-4.9579
X3.788Y-3.2413
X3.788Y-3.4579
X4.163Y-5.2633
X4.163Y-5.4799
X4.164Y-3.9913
X4.164Y-4.2079
X4.538Y-3.2413
X4.538Y-3.4579
X4.538Y-4.7413
X4.538Y-4.9579
X4.913Y-3.9913
X4.913Y-4.2079
X5.1Y-5.2633
X5.1Y-5.4799
X5.231Y-5.2633
X5.231Y-5.4799
X5.288Y-3.2413
X5.288Y-3.4579
X5.288Y-4.7413
X5.288Y-4.9579
X5.662Y-3.9913
X5.662Y-4.2079
X6.038Y-3.2413
X6.038Y-3.4579
X6.038Y-4.7413
X6.038Y-4.9579
X6.413Y-3.9913
X6.413Y-4.2079
X6.787Y-4.7413
X6.787Y-4.9579
X6.788Y-3.2413
X6.788Y-3.4579
X7.162Y-3.9913
X7.162Y-4.2079
X7.537Y-3.2413
X7.537Y-3.4579
X7.538Y-4.7413
X7.538Y-4.9579
X7.913Y-3.9913
X7.913Y-4.2079
X8.288Y-3.2413
X8.288Y-3.4579
X8.288Y-4.7413
X8.288Y-4.9579
X8.663Y-3.9913
X8.663Y-4.2079
X8.851Y-5.2633
X8.851Y-5.4799
X9.038Y-3.2413
X9.038Y-3.4579
X9.038Y-4.7413
X9.038Y-4.9579
X9.413Y-3.9913
X9.413Y-4.2079
X9.601Y-5.2633
X9.601Y-5.4799
X9.788Y-3.2413
X9.788Y-3.4579
X9.788Y-4.7413
X9.788Y-4.9579
X10.163Y-3.9913
X10.163Y-4.2079
X10.537Y-4.7413
X10.537Y-4.9579
X10.538Y-3.2413
X10.538Y-3.4579
X10.538Y-5.2633
X10.538Y-5.4799
X10.913Y-3.9913
X10.913Y-4.2079
X11.288Y-3.2413
X11.288Y-3.4579
X11.288Y-4.7413
X11.288Y-4.9579
X11.476Y-5.2633
X11.476Y-5.4799
X11.662Y-3.9913
X11.662Y-4.2079
X12.037Y-3.2413
X12.037Y-3.4579
X12.413Y-5.2633
X12.413Y-5.4799
X13.057Y-3.2413
X13.057Y-3.4579
X13.118Y-4.7413
X13.118Y-4.9579
X13.2Y-3.9913
X13.2Y-4.2079
X13.27Y-5.2633
X13.27Y-5.4799
T4
X2.5122Y-3.1122
X2.5638Y-3.0547
X2.606Y-5.363
X2.6576Y-5.3055
X2.6997Y-3.862
X2.7513Y-3.8045
X2.7606Y-3.035
X2.7622Y-3.0122
X2.8544Y-5.2858
X2.856Y-5.263
X2.887Y-4.612
X2.9386Y-4.5545
X2.9482Y-3.7848
X2.9497Y-3.762
X3.1354Y-4.5348
X3.137Y-4.512
X3.2622Y-3.1122
X3.3138Y-3.0547
X3.5106Y-3.035
X3.5122Y-3.0122
X3.544Y-5.363
X3.5956Y-5.3055
X3.6366Y-3.862
X3.6882Y-3.8045
X3.7924Y-5.2858
X3.794Y-5.263
X3.885Y-3.7848
X3.8866Y-3.762
X4.012Y-4.612
X4.0122Y-3.1122
X4.0636Y-4.5545
X4.0638Y-3.0547
X4.2604Y-4.5348
X4.2606Y-3.035
X4.262Y-4.512
X4.2622Y-3.0122
X4.387Y-3.862
X4.4386Y-3.8045
X4.4814Y-5.363
X4.533Y-5.3055
X4.6354Y-3.7848
X4.637Y-3.762
X4.7299Y-5.2858
X4.7314Y-5.263
X4.762Y-4.612
X4.7622Y-3.1122
X4.8136Y-4.5545
X4.8138Y-3.0547
X5.0104Y-4.5348
X5.0106Y-3.035
X5.012Y-4.512
X5.0122Y-3.0122
X5.137Y-3.862
X5.1886Y-3.8045
X5.3854Y-3.7848
X5.387Y-3.762
X5.512Y-4.612
X5.5122Y-3.1122
X5.5636Y-4.5545
X5.5638Y-3.0547
X5.7604Y-4.5348
X5.7606Y-3.035
X5.762Y-4.512
X5.7622Y-3.0122
X5.793Y-5.362
X5.8446Y-5.3045
X5.887Y-3.862
X5.9386Y-3.8045
X6.0414Y-5.2848
X6.043Y-5.262
X6.1354Y-3.7848
X6.137Y-3.762
X6.262Y-4.612
X6.2622Y-3.1122
X6.3136Y-4.5545
X6.3138Y-3.0547
X6.5104Y-4.5348
X6.5106Y-3.035
X6.512Y-4.512
X6.5122Y-3.0122
X6.637Y-3.862
X6.6886Y-3.8045
X6.8854Y-3.7848
X6.887Y-3.762
X7.012Y-4.6119
X7.0122Y-3.1122
X7.0636Y-4.5544
X7.0638Y-3.0547
X7.2604Y-4.5347
X7.2606Y-3.035
X7.262Y-4.5119
X7.2622Y-3.0122
X7.387Y-3.862
X7.4386Y-3.8045
X7.6354Y-3.7848
X7.637Y-3.762
X7.669Y-5.362
X7.7206Y-5.3045
X7.7616Y-4.612
X7.7622Y-3.1122
X7.8131Y-4.5545
X7.8138Y-3.0547
X7.9174Y-5.2848
X7.919Y-5.262
X8.01Y-4.5348
X8.0106Y-3.035
X8.0116Y-4.512
X8.0122Y-3.0122
X8.137Y-3.862
X8.1886Y-3.8045
X8.3854Y-3.7848
X8.387Y-3.762
X8.5116Y-4.612
X8.5122Y-3.1122
X8.5631Y-4.5545
X8.5638Y-3.0547
X8.76Y-4.5348
X8.7606Y-3.035
X8.7616Y-4.512
X8.7622Y-3.0122
X8.887Y-3.8625
X8.9386Y-3.805
X9.0756Y-5.3629
X9.1272Y-5.3054
X9.1354Y-3.7853
X9.137Y-3.7625
X9.2616Y-4.612
X9.2622Y-3.1122
X9.3131Y-4.5545
X9.3138Y-3.0547
X9.324Y-5.2857
X9.3256Y-5.2629
X9.51Y-4.5348
X9.5106Y-3.035
X9.5116Y-4.512
X9.5122Y-3.0122
X9.637Y-3.862
X9.6886Y-3.8045
X9.8854Y-3.7848
X9.887Y-3.762
X9.919Y-5.363
X9.9706Y-5.3055
X10.0116Y-4.612
X10.0122Y-3.1122
X10.0631Y-4.5545
X10.0638Y-3.0547
X10.1674Y-5.2858
X10.169Y-5.263
X10.26Y-4.5348
X10.2606Y-3.035
X10.2616Y-4.512
X10.2622Y-3.0122
X10.387Y-3.863
X10.4386Y-3.8055
X10.6354Y-3.7858
X10.637Y-3.763
X10.7616Y-4.612
X10.7622Y-3.1122
X10.8131Y-4.5545
X10.8138Y-3.0547
X10.856Y-5.363
X10.9076Y-5.3055
X11.01Y-4.5348
X11.0106Y-3.035
X11.0116Y-4.512
X11.0122Y-3.0122
X11.1044Y-5.2858
X11.106Y-5.263
X11.137Y-3.863
X11.1886Y-3.8055
X11.3854Y-3.7858
X11.387Y-3.763
X11.5122Y-3.1122
X11.5638Y-3.0547
X11.7606Y-3.035
X11.7622Y-3.0122
X11.794Y-5.363
X11.8456Y-5.3055
X12.0424Y-5.2858
X12.044Y-5.263
X12.169Y-4.612
X12.2206Y-4.5545
X12.356Y-3.863
X12.4076Y-3.8055
X12.4174Y-4.5348
X12.419Y-4.512
X12.5435Y-3.1122
X12.5951Y-3.0547
X12.6044Y-3.7858
X12.606Y-3.763
X12.7315Y-5.3627
X12.7831Y-5.3052
X12.7919Y-3.035
X12.7935Y-3.0122
X12.9799Y-5.2855
X12.9815Y-5.2627
T2
G00X2.3089Y-3.3439
M15
G01X2.3325Y-3.3439
M16
G05
G00X2.3089Y-3.6841
M15
G01X2.3325Y-3.6841
M16
G05
G00X2.4636Y-3.3439
M15
G01X2.5069Y-3.3439
M16
G05
G00X2.4636Y-3.6841
M15
G01X2.5069Y-3.6841
M16
G05
M30
