%TF.GenerationSoftware,KiCad,Pcbnew,8.0.4*%
%TF.CreationDate,2024-10-16T20:42:44+03:00*%
%TF.ProjectId,4040,34303430-2e6b-4696-9361-645f70636258,rev?*%
%TF.SameCoordinates,Original*%
%TF.FileFunction,Soldermask,Bot*%
%TF.FilePolarity,Negative*%
%FSLAX46Y46*%
G04 Gerber Fmt 4.6, Leading zero omitted, Abs format (unit mm)*
G04 Created by KiCad (PCBNEW 8.0.4) date 2024-10-16 20:42:44*
%MOMM*%
%LPD*%
G01*
G04 APERTURE LIST*
G04 Aperture macros list*
%AMRoundRect*
0 Rectangle with rounded corners*
0 $1 Rounding radius*
0 $2 $3 $4 $5 $6 $7 $8 $9 X,Y pos of 4 corners*
0 Add a 4 corners polygon primitive as box body*
4,1,4,$2,$3,$4,$5,$6,$7,$8,$9,$2,$3,0*
0 Add four circle primitives for the rounded corners*
1,1,$1+$1,$2,$3*
1,1,$1+$1,$4,$5*
1,1,$1+$1,$6,$7*
1,1,$1+$1,$8,$9*
0 Add four rect primitives between the rounded corners*
20,1,$1+$1,$2,$3,$4,$5,0*
20,1,$1+$1,$4,$5,$6,$7,0*
20,1,$1+$1,$6,$7,$8,$9,0*
20,1,$1+$1,$8,$9,$2,$3,0*%
%AMHorizOval*
0 Thick line with rounded ends*
0 $1 width*
0 $2 $3 position (X,Y) of the first rounded end (center of the circle)*
0 $4 $5 position (X,Y) of the second rounded end (center of the circle)*
0 Add line between two ends*
20,1,$1,$2,$3,$4,$5,0*
0 Add two circle primitives to create the rounded ends*
1,1,$1,$2,$3*
1,1,$1,$4,$5*%
%AMRotRect*
0 Rectangle, with rotation*
0 The origin of the aperture is its center*
0 $1 length*
0 $2 width*
0 $3 Rotation angle, in degrees counterclockwise*
0 Add horizontal line*
21,1,$1,$2,0,0,$3*%
G04 Aperture macros list end*
%ADD10C,1.750000*%
%ADD11C,3.987800*%
%ADD12HorizOval,2.250000X0.655001X0.730000X-0.655001X-0.730000X0*%
%ADD13C,2.250000*%
%ADD14HorizOval,2.250000X0.020000X0.290000X-0.020000X-0.290000X0*%
%ADD15C,3.048000*%
%ADD16R,1.800000X1.800000*%
%ADD17O,1.800000X1.800000*%
%ADD18R,1.500000X0.900000*%
%ADD19RotRect,1.500000X0.550000X315.000000*%
%ADD20RotRect,1.500000X0.550000X225.000000*%
%ADD21RotRect,1.500000X1.100000X45.000000*%
%ADD22RoundRect,0.150000X-0.512500X-0.150000X0.512500X-0.150000X0.512500X0.150000X-0.512500X0.150000X0*%
%ADD23C,0.650000*%
%ADD24R,1.450000X0.600000*%
%ADD25R,1.450000X0.300000*%
%ADD26O,1.600000X1.000000*%
%ADD27O,2.100000X1.000000*%
%ADD28RoundRect,0.250000X-0.250000X-0.475000X0.250000X-0.475000X0.250000X0.475000X-0.250000X0.475000X0*%
%ADD29RoundRect,0.250000X0.159099X-0.512652X0.512652X-0.159099X-0.159099X0.512652X-0.512652X0.159099X0*%
%ADD30RoundRect,0.250000X0.375000X0.625000X-0.375000X0.625000X-0.375000X-0.625000X0.375000X-0.625000X0*%
%ADD31RoundRect,0.250000X0.132583X-0.503814X0.503814X-0.132583X-0.132583X0.503814X-0.503814X0.132583X0*%
%ADD32RoundRect,0.250000X-0.450000X0.262500X-0.450000X-0.262500X0.450000X-0.262500X0.450000X0.262500X0*%
%ADD33RoundRect,0.250000X0.262500X0.450000X-0.262500X0.450000X-0.262500X-0.450000X0.262500X-0.450000X0*%
%ADD34RotRect,1.400000X1.200000X135.000000*%
G04 APERTURE END LIST*
D10*
%TO.C,MX9*%
X214940000Y-81590000D03*
D11*
X220020000Y-81590000D03*
D10*
X225100000Y-81590000D03*
D12*
X216865001Y-78320000D03*
D13*
X217520000Y-77590000D03*
D14*
X222540000Y-76800000D03*
D13*
X222560000Y-76510000D03*
%TD*%
D10*
%TO.C,MX24*%
X243509800Y-100634800D03*
D11*
X248589800Y-100634800D03*
D10*
X253669800Y-100634800D03*
D12*
X245434801Y-97364800D03*
D13*
X246089800Y-96634800D03*
D14*
X251109800Y-95844800D03*
D13*
X251129800Y-95554800D03*
%TD*%
D10*
%TO.C,MX26*%
X281609800Y-100660200D03*
D11*
X286689800Y-100660200D03*
D10*
X291769800Y-100660200D03*
D12*
X283534801Y-97390200D03*
D13*
X284189800Y-96660200D03*
D14*
X289209800Y-95870200D03*
D13*
X289229800Y-95580200D03*
%TD*%
D10*
%TO.C,MX7*%
X176840000Y-81590000D03*
D11*
X181920000Y-81590000D03*
D10*
X187000000Y-81590000D03*
D12*
X178765001Y-78320000D03*
D13*
X179420000Y-77590000D03*
D14*
X184440000Y-76800000D03*
D13*
X184460000Y-76510000D03*
%TD*%
D10*
%TO.C,MX29*%
X100634800Y-119684800D03*
D11*
X105714800Y-119684800D03*
D10*
X110794800Y-119684800D03*
D12*
X102559801Y-116414800D03*
D13*
X103214800Y-115684800D03*
D14*
X108234800Y-114894800D03*
D13*
X108254800Y-114604800D03*
%TD*%
D10*
%TO.C,MX32*%
X157784800Y-119684800D03*
D11*
X162864800Y-119684800D03*
D10*
X167944800Y-119684800D03*
D12*
X159709801Y-116414800D03*
D13*
X160364800Y-115684800D03*
D14*
X165384800Y-114894800D03*
D13*
X165404800Y-114604800D03*
%TD*%
D10*
%TO.C,MX8*%
X195890000Y-81590000D03*
D11*
X200970000Y-81590000D03*
D10*
X206050000Y-81590000D03*
D12*
X197815001Y-78320000D03*
D13*
X198470000Y-77590000D03*
D14*
X203490000Y-76800000D03*
D13*
X203510000Y-76510000D03*
%TD*%
D10*
%TO.C,TAB1*%
X67303020Y-100634800D03*
D11*
X72383020Y-100634800D03*
D10*
X77463020Y-100634800D03*
D12*
X69228021Y-97364800D03*
D13*
X69883020Y-96634800D03*
D14*
X74903020Y-95844800D03*
D13*
X74923020Y-95554800D03*
%TD*%
D10*
%TO.C,MX35*%
X214924000Y-119684800D03*
D11*
X220004000Y-119684800D03*
D10*
X225084000Y-119684800D03*
D12*
X216849001Y-116414800D03*
D13*
X217504000Y-115684800D03*
D14*
X222524000Y-114894800D03*
D13*
X222544000Y-114604800D03*
%TD*%
D10*
%TO.C,MX13*%
X291140000Y-81590000D03*
D11*
X296220000Y-81590000D03*
D10*
X301300000Y-81590000D03*
D12*
X293065001Y-78320000D03*
D13*
X293720000Y-77590000D03*
D14*
X298740000Y-76800000D03*
D13*
X298760000Y-76510000D03*
%TD*%
D10*
%TO.C,MX34*%
X195874000Y-119684800D03*
D11*
X200954000Y-119684800D03*
D10*
X206034000Y-119684800D03*
D12*
X197799001Y-116414800D03*
D13*
X198454000Y-115684800D03*
D14*
X203474000Y-114894800D03*
D13*
X203494000Y-114604800D03*
%TD*%
D10*
%TO.C,MX25*%
X262559800Y-100660200D03*
D11*
X267639800Y-100660200D03*
D10*
X272719800Y-100660200D03*
D12*
X264484801Y-97390200D03*
D13*
X265139800Y-96660200D03*
D14*
X270159800Y-95870200D03*
D13*
X270179800Y-95580200D03*
%TD*%
D10*
%TO.C,MX20*%
X167309800Y-100634800D03*
D11*
X172389800Y-100634800D03*
D10*
X177469800Y-100634800D03*
D12*
X169234801Y-97364800D03*
D13*
X169889800Y-96634800D03*
D14*
X174909800Y-95844800D03*
D13*
X174929800Y-95554800D03*
%TD*%
D10*
%TO.C,MX1*%
X62540000Y-81590000D03*
D11*
X67620000Y-81590000D03*
D10*
X72700000Y-81590000D03*
D12*
X64465001Y-78320000D03*
D13*
X65120000Y-77590000D03*
D14*
X70140000Y-76800000D03*
D13*
X70160000Y-76510000D03*
%TD*%
D10*
%TO.C,MX10*%
X233990000Y-81590000D03*
D11*
X239070000Y-81590000D03*
D10*
X244150000Y-81590000D03*
D12*
X235915001Y-78320000D03*
D13*
X236570000Y-77590000D03*
D14*
X241590000Y-76800000D03*
D13*
X241610000Y-76510000D03*
%TD*%
D10*
%TO.C,MX41*%
X88747600Y-138760200D03*
D11*
X93827600Y-138760200D03*
D10*
X98907600Y-138760200D03*
D12*
X90672601Y-135490200D03*
D13*
X91327600Y-134760200D03*
D14*
X96347600Y-133970200D03*
D13*
X96367600Y-133680200D03*
%TD*%
D10*
%TO.C,MX33*%
X176834800Y-119682150D03*
D11*
X181914800Y-119682150D03*
D10*
X186994800Y-119682150D03*
D12*
X178759801Y-116412150D03*
D13*
X179414800Y-115682150D03*
D14*
X184434800Y-114892150D03*
D13*
X184454800Y-114602150D03*
%TD*%
D10*
%TO.C,MX30*%
X119684800Y-119684800D03*
D11*
X124764800Y-119684800D03*
D10*
X129844800Y-119684800D03*
D12*
X121609801Y-116414800D03*
D13*
X122264800Y-115684800D03*
D14*
X127284800Y-114894800D03*
D13*
X127304800Y-114604800D03*
%TD*%
D10*
%TO.C,MX14*%
X317335000Y-81590000D03*
D11*
X322415000Y-81590000D03*
D10*
X327495000Y-81590000D03*
D12*
X319260001Y-78320000D03*
D13*
X319915000Y-77590000D03*
D14*
X324935000Y-76800000D03*
D13*
X324955000Y-76510000D03*
%TD*%
D10*
%TO.C,MX38*%
X272074000Y-119684800D03*
D11*
X277154000Y-119684800D03*
D10*
X282234000Y-119684800D03*
D12*
X273999001Y-116414800D03*
D13*
X274654000Y-115684800D03*
D14*
X279674000Y-114894800D03*
D13*
X279694000Y-114604800D03*
%TD*%
D15*
%TO.C,LSH1*%
X65201800Y-112699800D03*
D11*
X65201800Y-127939800D03*
D10*
X72059800Y-119684800D03*
D11*
X77139800Y-119684800D03*
D10*
X82219800Y-119684800D03*
D15*
X89077800Y-112699800D03*
D11*
X89077800Y-127939800D03*
D12*
X73984801Y-116414800D03*
D13*
X74639800Y-115684800D03*
D14*
X79659800Y-114894800D03*
D13*
X79679800Y-114604800D03*
%TD*%
D11*
%TO.C,LS1*%
X139014200Y-130479800D03*
D15*
X139014200Y-145719800D03*
D10*
X145872200Y-138734800D03*
D11*
X150952200Y-138734800D03*
D10*
X156032200Y-138734800D03*
D11*
X162890200Y-130479800D03*
D15*
X162890200Y-145719800D03*
D12*
X147797201Y-135464800D03*
D13*
X148452200Y-134734800D03*
D14*
X153472200Y-133944800D03*
D13*
X153492200Y-133654800D03*
%TD*%
D15*
%TO.C,ENTER1*%
X305714400Y-93675200D03*
D11*
X305714400Y-108915200D03*
D10*
X312572400Y-100660200D03*
D11*
X317652400Y-100660200D03*
D10*
X322732400Y-100660200D03*
D15*
X329590400Y-93675200D03*
D11*
X329590400Y-108915200D03*
D12*
X314497401Y-97390200D03*
D13*
X315152400Y-96660200D03*
D14*
X320172400Y-95870200D03*
D13*
X320192400Y-95580200D03*
%TD*%
D11*
%TO.C,RS1*%
X186664600Y-130479800D03*
D15*
X186664600Y-145719800D03*
D10*
X193522600Y-138734800D03*
D11*
X198602600Y-138734800D03*
D10*
X203682600Y-138734800D03*
D11*
X210540600Y-130479800D03*
D15*
X210540600Y-145719800D03*
D12*
X195447601Y-135464800D03*
D13*
X196102600Y-134734800D03*
D14*
X201122600Y-133944800D03*
D13*
X201142600Y-133654800D03*
%TD*%
D10*
%TO.C,MX12*%
X272090000Y-81590000D03*
D11*
X277170000Y-81590000D03*
D10*
X282250000Y-81590000D03*
D12*
X274015001Y-78320000D03*
D13*
X274670000Y-77590000D03*
D14*
X279690000Y-76800000D03*
D13*
X279710000Y-76510000D03*
%TD*%
D10*
%TO.C,MX17*%
X110159800Y-100634800D03*
D11*
X115239800Y-100634800D03*
D10*
X120319800Y-100634800D03*
D12*
X112084801Y-97364800D03*
D13*
X112739800Y-96634800D03*
D14*
X117759800Y-95844800D03*
D13*
X117779800Y-95554800D03*
%TD*%
D10*
%TO.C,MX22*%
X205409800Y-100634800D03*
D11*
X210489800Y-100634800D03*
D10*
X215569800Y-100634800D03*
D12*
X207334801Y-97364800D03*
D13*
X207989800Y-96634800D03*
D14*
X213009800Y-95844800D03*
D13*
X213029800Y-95554800D03*
%TD*%
D10*
%TO.C,MX16*%
X91099640Y-100634800D03*
D11*
X96179640Y-100634800D03*
D10*
X101259640Y-100634800D03*
D12*
X93024641Y-97364800D03*
D13*
X93679640Y-96634800D03*
D14*
X98699640Y-95844800D03*
D13*
X98719640Y-95554800D03*
%TD*%
D10*
%TO.C,MX40*%
X64922400Y-138760200D03*
D11*
X70002400Y-138760200D03*
D10*
X75082400Y-138760200D03*
D12*
X66847401Y-135490200D03*
D13*
X67502400Y-134760200D03*
D14*
X72522400Y-133970200D03*
D13*
X72542400Y-133680200D03*
%TD*%
D10*
%TO.C,MX21*%
X186359800Y-100634800D03*
D11*
X191439800Y-100634800D03*
D10*
X196519800Y-100634800D03*
D12*
X188284801Y-97364800D03*
D13*
X188939800Y-96634800D03*
D14*
X193959800Y-95844800D03*
D13*
X193979800Y-95554800D03*
%TD*%
D10*
%TO.C,MX45*%
X229250000Y-138757550D03*
D11*
X234330000Y-138757550D03*
D10*
X239410000Y-138757550D03*
D12*
X231175001Y-135487550D03*
D13*
X231830000Y-134757550D03*
D14*
X236850000Y-133967550D03*
D13*
X236870000Y-133677550D03*
%TD*%
D10*
%TO.C,MX31*%
X138734800Y-119684800D03*
D11*
X143814800Y-119684800D03*
D10*
X148894800Y-119684800D03*
D12*
X140659801Y-116414800D03*
D13*
X141314800Y-115684800D03*
D14*
X146334800Y-114894800D03*
D13*
X146354800Y-114604800D03*
%TD*%
D10*
%TO.C,MX47*%
X274472400Y-138760200D03*
D11*
X279552400Y-138760200D03*
D10*
X284632400Y-138760200D03*
D12*
X276397401Y-135490200D03*
D13*
X277052400Y-134760200D03*
D14*
X282072400Y-133970200D03*
D13*
X282092400Y-133680200D03*
%TD*%
D10*
%TO.C,MX37*%
X253024000Y-119684800D03*
D11*
X258104000Y-119684800D03*
D10*
X263184000Y-119684800D03*
D12*
X254949001Y-116414800D03*
D13*
X255604000Y-115684800D03*
D14*
X260624000Y-114894800D03*
D13*
X260644000Y-114604800D03*
%TD*%
D10*
%TO.C,MX48*%
X298297600Y-138760200D03*
D11*
X303377600Y-138760200D03*
D10*
X308457600Y-138760200D03*
D12*
X300222601Y-135490200D03*
D13*
X300877600Y-134760200D03*
D14*
X305897600Y-133970200D03*
D13*
X305917600Y-133680200D03*
%TD*%
D15*
%TO.C,RSH1*%
X300964600Y-112699800D03*
D11*
X300964600Y-127939800D03*
D10*
X307822600Y-119684800D03*
D11*
X312902600Y-119684800D03*
D10*
X317982600Y-119684800D03*
D15*
X324840600Y-112699800D03*
D11*
X324840600Y-127939800D03*
D12*
X309747601Y-116414800D03*
D13*
X310402600Y-115684800D03*
D14*
X315422600Y-114894800D03*
D13*
X315442600Y-114604800D03*
%TD*%
D10*
%TO.C,MX42*%
X112558200Y-138760200D03*
D11*
X117638200Y-138760200D03*
D10*
X122718200Y-138760200D03*
D12*
X114483201Y-135490200D03*
D13*
X115138200Y-134760200D03*
D14*
X120158200Y-133970200D03*
D13*
X120178200Y-133680200D03*
%TD*%
D10*
%TO.C,MX23*%
X224459800Y-100647000D03*
D11*
X229539800Y-100647000D03*
D10*
X234619800Y-100647000D03*
D12*
X226384801Y-97377000D03*
D13*
X227039800Y-96647000D03*
D14*
X232059800Y-95857000D03*
D13*
X232079800Y-95567000D03*
%TD*%
D10*
%TO.C,MX6*%
X157790000Y-81590000D03*
D11*
X162870000Y-81590000D03*
D10*
X167950000Y-81590000D03*
D12*
X159715001Y-78320000D03*
D13*
X160370000Y-77590000D03*
D14*
X165390000Y-76800000D03*
D13*
X165410000Y-76510000D03*
%TD*%
D10*
%TO.C,MX3*%
X100640000Y-81590000D03*
D11*
X105720000Y-81590000D03*
D10*
X110800000Y-81590000D03*
D12*
X102565001Y-78320000D03*
D13*
X103220000Y-77590000D03*
D14*
X108240000Y-76800000D03*
D13*
X108260000Y-76510000D03*
%TD*%
D10*
%TO.C,MX4*%
X119690000Y-81590000D03*
D11*
X124770000Y-81590000D03*
D10*
X129850000Y-81590000D03*
D12*
X121615001Y-78320000D03*
D13*
X122270000Y-77590000D03*
D14*
X127290000Y-76800000D03*
D13*
X127310000Y-76510000D03*
%TD*%
D10*
%TO.C,MX18*%
X129209800Y-100634800D03*
D11*
X134289800Y-100634800D03*
D10*
X139369800Y-100634800D03*
D12*
X131134801Y-97364800D03*
D13*
X131789800Y-96634800D03*
D14*
X136809800Y-95844800D03*
D13*
X136829800Y-95554800D03*
%TD*%
D10*
%TO.C,MX49*%
X322110100Y-138752580D03*
D11*
X327190100Y-138752580D03*
D10*
X332270100Y-138752580D03*
D12*
X324035101Y-135482580D03*
D13*
X324690100Y-134752580D03*
D14*
X329710100Y-133962580D03*
D13*
X329730100Y-133672580D03*
%TD*%
D10*
%TO.C,MX36*%
X233974000Y-119684800D03*
D11*
X239054000Y-119684800D03*
D10*
X244134000Y-119684800D03*
D12*
X235899001Y-116414800D03*
D13*
X236554000Y-115684800D03*
D14*
X241574000Y-114894800D03*
D13*
X241594000Y-114604800D03*
%TD*%
D10*
%TO.C,MX5*%
X138740000Y-81590000D03*
D11*
X143820000Y-81590000D03*
D10*
X148900000Y-81590000D03*
D12*
X140665001Y-78320000D03*
D13*
X141320000Y-77590000D03*
D14*
X146340000Y-76800000D03*
D13*
X146360000Y-76510000D03*
%TD*%
D10*
%TO.C,MX46*%
X250672600Y-138760200D03*
D11*
X255752600Y-138760200D03*
D10*
X260832600Y-138760200D03*
D12*
X252597601Y-135490200D03*
D13*
X253252600Y-134760200D03*
D14*
X258272600Y-133970200D03*
D13*
X258292600Y-133680200D03*
%TD*%
D10*
%TO.C,MX11*%
X253040000Y-81590000D03*
D11*
X258120000Y-81590000D03*
D10*
X263200000Y-81590000D03*
D12*
X254965001Y-78320000D03*
D13*
X255620000Y-77590000D03*
D14*
X260640000Y-76800000D03*
D13*
X260660000Y-76510000D03*
%TD*%
D10*
%TO.C,MX2*%
X81590000Y-81590000D03*
D11*
X86670000Y-81590000D03*
D10*
X91750000Y-81590000D03*
D12*
X83515001Y-78320000D03*
D13*
X84170000Y-77590000D03*
D14*
X89190000Y-76800000D03*
D13*
X89210000Y-76510000D03*
%TD*%
D10*
%TO.C,MX19*%
X148259800Y-100634800D03*
D11*
X153339800Y-100634800D03*
D10*
X158419800Y-100634800D03*
D12*
X150184801Y-97364800D03*
D13*
X150839800Y-96634800D03*
D14*
X155859800Y-95844800D03*
D13*
X155879800Y-95554800D03*
%TD*%
D16*
%TO.C,D1*%
X77165200Y-87829500D03*
D17*
X77165200Y-82329500D03*
%TD*%
D18*
%TO.C,HL6*%
X303289800Y-78358000D03*
X303289800Y-75058000D03*
X308189800Y-75058000D03*
X308189800Y-78358000D03*
%TD*%
D16*
%TO.C,D14*%
X331647800Y-87829500D03*
D17*
X331647800Y-82329500D03*
%TD*%
D16*
%TO.C,D26*%
X296214800Y-106879500D03*
D17*
X296214800Y-101379500D03*
%TD*%
D19*
%TO.C,U2*%
X163295664Y-136669118D03*
X163861350Y-136103433D03*
X164427035Y-135537748D03*
X164992720Y-134972062D03*
X165558406Y-134406377D03*
X166124091Y-133840691D03*
X166689777Y-133275006D03*
X167255462Y-132709320D03*
X167821148Y-132143635D03*
X168386833Y-131577950D03*
X168952518Y-131012264D03*
D20*
X171356682Y-131012264D03*
X171922367Y-131577950D03*
X172488052Y-132143635D03*
X173053738Y-132709320D03*
X173619423Y-133275006D03*
X174185109Y-133840691D03*
X174750794Y-134406377D03*
X175316480Y-134972062D03*
X175882165Y-135537748D03*
X176447850Y-136103433D03*
X177013536Y-136669118D03*
D19*
X177013536Y-139073282D03*
X176447850Y-139638967D03*
X175882165Y-140204652D03*
X175316480Y-140770338D03*
X174750794Y-141336023D03*
X174185109Y-141901709D03*
X173619423Y-142467394D03*
X173053738Y-143033080D03*
X172488052Y-143598765D03*
X171922367Y-144164450D03*
X171356682Y-144730136D03*
D20*
X168952518Y-144730136D03*
X168386833Y-144164450D03*
X167821148Y-143598765D03*
X167255462Y-143033080D03*
X166689777Y-142467394D03*
X166124091Y-141901709D03*
X165558406Y-141336023D03*
X164992720Y-140770338D03*
X164427035Y-140204652D03*
X163861350Y-139638967D03*
X163295664Y-139073282D03*
%TD*%
D16*
%TO.C,D11*%
X267665200Y-87829500D03*
D17*
X267665200Y-82329500D03*
%TD*%
D21*
%TO.C,SW1*%
X180777750Y-143656450D03*
X187071000Y-137363200D03*
%TD*%
D22*
%TO.C,U1*%
X66736800Y-90164998D03*
X66736800Y-89214999D03*
X66736800Y-88265000D03*
X69011800Y-88265000D03*
X69011800Y-89214999D03*
X69011800Y-90164998D03*
%TD*%
D16*
%TO.C,D16*%
X105765600Y-106879500D03*
D17*
X105765600Y-101379500D03*
%TD*%
D16*
%TO.C,D38*%
X286715200Y-125929500D03*
D17*
X286715200Y-120429500D03*
%TD*%
D16*
%TO.C,D46*%
X267665200Y-139188300D03*
D17*
X267665200Y-133688300D03*
%TD*%
D18*
%TO.C,HL10*%
X74689800Y-78358000D03*
X74689800Y-75058000D03*
X79589800Y-75058000D03*
X79589800Y-78358000D03*
%TD*%
D16*
%TO.C,D12*%
X286715200Y-87829500D03*
D17*
X286715200Y-82329500D03*
%TD*%
D18*
%TO.C,HL9*%
X131839800Y-78358000D03*
X131839800Y-75058000D03*
X136739800Y-75058000D03*
X136739800Y-78358000D03*
%TD*%
D16*
%TO.C,D32*%
X172389800Y-125929500D03*
D17*
X172389800Y-120429500D03*
%TD*%
D18*
%TO.C,HL5*%
X308189800Y-141733000D03*
X308189800Y-145033000D03*
X303289800Y-145033000D03*
X303289800Y-141733000D03*
%TD*%
D16*
%TO.C,D40*%
X81915000Y-139205600D03*
D17*
X81915000Y-133705600D03*
%TD*%
D16*
%TO.C,D24*%
X258140200Y-106879500D03*
D17*
X258140200Y-101379500D03*
%TD*%
D23*
%TO.C,J1*%
X62594800Y-92145600D03*
X62594800Y-86365600D03*
D24*
X64039800Y-92505600D03*
X64039800Y-91705601D03*
D25*
X64039799Y-90505600D03*
X64039800Y-89505600D03*
X64039800Y-89005600D03*
X64039799Y-88005600D03*
D24*
X64039800Y-86805599D03*
X64039800Y-86005600D03*
X64039800Y-86005600D03*
X64039800Y-86805599D03*
D25*
X64039800Y-87505600D03*
X64039800Y-88505600D03*
X64039800Y-90005600D03*
X64039800Y-91005600D03*
D24*
X64039800Y-91705601D03*
X64039800Y-92505600D03*
D26*
X58944800Y-93575600D03*
D27*
X63124800Y-93575600D03*
D26*
X58944800Y-84935600D03*
D27*
X63124800Y-84935600D03*
%TD*%
D16*
%TO.C,D41*%
X105740200Y-139188300D03*
D17*
X105740200Y-133688300D03*
%TD*%
D16*
%TO.C,D4*%
X134315200Y-87829500D03*
D17*
X134315200Y-82329500D03*
%TD*%
D18*
%TO.C,HL4*%
X251039800Y-141733000D03*
X251039800Y-145033000D03*
X246139800Y-145033000D03*
X246139800Y-141733000D03*
%TD*%
D28*
%TO.C,C5*%
X156062602Y-136347200D03*
X157962600Y-136347200D03*
%TD*%
D16*
%TO.C,D29*%
X115265200Y-125929500D03*
D17*
X115265200Y-120429500D03*
%TD*%
D16*
%TO.C,D34*%
X210515200Y-125929500D03*
D17*
X210515200Y-120429500D03*
%TD*%
D16*
%TO.C,D19*%
X162890200Y-106879500D03*
D17*
X162890200Y-101379500D03*
%TD*%
D16*
%TO.C,D45*%
X243865400Y-139188300D03*
D17*
X243865400Y-133688300D03*
%TD*%
D16*
%TO.C,D28*%
X96189800Y-125929500D03*
D17*
X96189800Y-120429500D03*
%TD*%
D16*
%TO.C,D7*%
X191439800Y-87829500D03*
D17*
X191439800Y-82329500D03*
%TD*%
D16*
%TO.C,D3*%
X115265200Y-87829500D03*
D17*
X115265200Y-82329500D03*
%TD*%
D29*
%TO.C,C7*%
X158498698Y-128546702D03*
X159842200Y-127203200D03*
%TD*%
D30*
%TO.C,F2*%
X69596000Y-85648800D03*
X66796000Y-85648800D03*
%TD*%
D16*
%TO.C,D13*%
X305739800Y-87829500D03*
D17*
X305739800Y-82329500D03*
%TD*%
D16*
%TO.C,D48*%
X315290200Y-139188300D03*
D17*
X315290200Y-133688300D03*
%TD*%
D16*
%TO.C,D2*%
X96215200Y-87829500D03*
D17*
X96215200Y-82329500D03*
%TD*%
D29*
%TO.C,C1*%
X158117698Y-139544902D03*
X159461200Y-138201400D03*
%TD*%
%TO.C,C2*%
X159540098Y-140967302D03*
X160883600Y-139623800D03*
%TD*%
D18*
%TO.C,HL3*%
X195617000Y-141733000D03*
X195617000Y-145033000D03*
X190717000Y-145033000D03*
X190717000Y-141733000D03*
%TD*%
D16*
%TO.C,D22*%
X220040200Y-106879500D03*
D17*
X220040200Y-101379500D03*
%TD*%
D16*
%TO.C,D20*%
X181914800Y-106879500D03*
D17*
X181914800Y-101379500D03*
%TD*%
D29*
%TO.C,C3*%
X179848263Y-132446467D03*
X181191765Y-131102965D03*
%TD*%
D16*
%TO.C,D39*%
X333197200Y-125929500D03*
D17*
X333197200Y-120429500D03*
%TD*%
D16*
%TO.C,D25*%
X277190200Y-106879500D03*
D17*
X277190200Y-101379500D03*
%TD*%
D31*
%TO.C,R3*%
X179603400Y-139979400D03*
X180893870Y-138688930D03*
%TD*%
D16*
%TO.C,D21*%
X200990200Y-106879500D03*
D17*
X200990200Y-101379500D03*
%TD*%
D28*
%TO.C,C6*%
X156062602Y-134366000D03*
X157962600Y-134366000D03*
%TD*%
D16*
%TO.C,D36*%
X248615200Y-125929500D03*
D17*
X248615200Y-120429500D03*
%TD*%
D18*
%TO.C,HL2*%
X135864600Y-141733000D03*
X135864600Y-145033000D03*
X130964600Y-145033000D03*
X130964600Y-141733000D03*
%TD*%
D16*
%TO.C,D9*%
X229565200Y-87829500D03*
D17*
X229565200Y-82329500D03*
%TD*%
D16*
%TO.C,D8*%
X210515200Y-87829500D03*
D17*
X210515200Y-82329500D03*
%TD*%
D16*
%TO.C,D6*%
X172415200Y-87829500D03*
D17*
X172415200Y-82329500D03*
%TD*%
D32*
%TO.C,R7*%
X71704200Y-141657700D03*
X71704200Y-143482700D03*
%TD*%
D16*
%TO.C,D30*%
X134315200Y-125929500D03*
D17*
X134315200Y-120429500D03*
%TD*%
D16*
%TO.C,D33*%
X191465200Y-125929500D03*
D17*
X191465200Y-120429500D03*
%TD*%
D16*
%TO.C,D31*%
X153365200Y-125929500D03*
D17*
X153365200Y-120429500D03*
%TD*%
D16*
%TO.C,D43*%
X132867400Y-139188300D03*
D17*
X132867400Y-133688300D03*
%TD*%
D16*
%TO.C,D35*%
X229565200Y-125929500D03*
D17*
X229565200Y-120429500D03*
%TD*%
D18*
%TO.C,HL8*%
X189091400Y-78383400D03*
X189091400Y-75083400D03*
X193991400Y-75083400D03*
X193991400Y-78383400D03*
%TD*%
D16*
%TO.C,D5*%
X153365200Y-87829500D03*
D17*
X153365200Y-82329500D03*
%TD*%
D16*
%TO.C,D47*%
X291490400Y-139188300D03*
D17*
X291490400Y-133688300D03*
%TD*%
D16*
%TO.C,D23*%
X239090200Y-106879500D03*
D17*
X239090200Y-101379500D03*
%TD*%
D16*
%TO.C,D27*%
X335280000Y-106879500D03*
D17*
X335280000Y-101379500D03*
%TD*%
D16*
%TO.C,D42*%
X129540000Y-139188300D03*
D17*
X129540000Y-133688300D03*
%TD*%
D16*
%TO.C,D18*%
X143814800Y-106879500D03*
D17*
X143814800Y-101379500D03*
%TD*%
D33*
%TO.C,R4*%
X175588300Y-145669000D03*
X173763300Y-145669000D03*
%TD*%
D29*
%TO.C,C4*%
X175465898Y-128064102D03*
X176809400Y-126720600D03*
%TD*%
D34*
%TO.C,Y1*%
X178502498Y-130954471D03*
X176946863Y-129398836D03*
X178148944Y-128196755D03*
X179704579Y-129752390D03*
%TD*%
D18*
%TO.C,HL7*%
X246139800Y-78358000D03*
X246139800Y-75058000D03*
X251039800Y-75058000D03*
X251039800Y-78358000D03*
%TD*%
D16*
%TO.C,D37*%
X267639800Y-125929500D03*
D17*
X267639800Y-120429500D03*
%TD*%
D16*
%TO.C,D15*%
X83134200Y-106879500D03*
D17*
X83134200Y-101379500D03*
%TD*%
D16*
%TO.C,D44*%
X224815400Y-139188300D03*
D17*
X224815400Y-133688300D03*
%TD*%
D16*
%TO.C,D49*%
X337058000Y-139188300D03*
D17*
X337058000Y-133688300D03*
%TD*%
D16*
%TO.C,D10*%
X248615200Y-87829500D03*
D17*
X248615200Y-82329500D03*
%TD*%
D18*
%TO.C,HL1*%
X79589800Y-141733000D03*
X79589800Y-145033000D03*
X74689800Y-145033000D03*
X74689800Y-141733000D03*
%TD*%
D16*
%TO.C,D17*%
X124790200Y-106879500D03*
D17*
X124790200Y-101379500D03*
%TD*%
M02*
