%TF.GenerationSoftware,KiCad,Pcbnew,8.0.4*%
%TF.CreationDate,2024-10-16T20:42:44+03:00*%
%TF.ProjectId,4040,34303430-2e6b-4696-9361-645f70636258,rev?*%
%TF.SameCoordinates,Original*%
%TF.FileFunction,Profile,NP*%
%FSLAX46Y46*%
G04 Gerber Fmt 4.6, Leading zero omitted, Abs format (unit mm)*
G04 Created by KiCad (PCBNEW 8.0.4) date 2024-10-16 20:42:44*
%MOMM*%
%LPD*%
G01*
G04 APERTURE LIST*
%TA.AperFunction,Profile*%
%ADD10C,0.050000*%
%TD*%
G04 APERTURE END LIST*
D10*
X338818787Y-71696013D02*
X58361013Y-71696013D01*
X57726013Y-148056600D02*
X57726013Y-72331013D01*
X336695800Y-76142600D02*
G75*
G02*
X332695800Y-76142600I-2000000J0D01*
G01*
X332695800Y-76142600D02*
G75*
G02*
X336695800Y-76142600I2000000J0D01*
G01*
X75279000Y-110229400D02*
G75*
G02*
X71279000Y-110229400I-2000000J0D01*
G01*
X71279000Y-110229400D02*
G75*
G02*
X75279000Y-110229400I2000000J0D01*
G01*
X107696000Y-91135200D02*
G75*
G02*
X103696000Y-91135200I-2000000J0D01*
G01*
X103696000Y-91135200D02*
G75*
G02*
X107696000Y-91135200I2000000J0D01*
G01*
X58361013Y-148691600D02*
X338818787Y-148691600D01*
X57726013Y-72331013D02*
G75*
G02*
X58361013Y-71696013I634987J13D01*
G01*
X250818400Y-110413800D02*
G75*
G02*
X246818400Y-110413800I-2000000J0D01*
G01*
X246818400Y-110413800D02*
G75*
G02*
X250818400Y-110413800I2000000J0D01*
G01*
X65703200Y-143960600D02*
G75*
G02*
X61703200Y-143960600I-2000000J0D01*
G01*
X61703200Y-143960600D02*
G75*
G02*
X65703200Y-143960600I2000000J0D01*
G01*
X143401800Y-137382000D02*
G75*
G02*
X139401800Y-137382000I-2000000J0D01*
G01*
X139401800Y-137382000D02*
G75*
G02*
X143401800Y-137382000I2000000J0D01*
G01*
X58361013Y-148691600D02*
G75*
G02*
X57726000Y-148056600I-13J635000D01*
G01*
X222065600Y-91160600D02*
G75*
G02*
X218065600Y-91160600I-2000000J0D01*
G01*
X218065600Y-91160600D02*
G75*
G02*
X222065600Y-91160600I2000000J0D01*
G01*
X337381600Y-144951200D02*
G75*
G02*
X333381600Y-144951200I-2000000J0D01*
G01*
X333381600Y-144951200D02*
G75*
G02*
X337381600Y-144951200I2000000J0D01*
G01*
X279215600Y-91211400D02*
G75*
G02*
X275215600Y-91211400I-2000000J0D01*
G01*
X275215600Y-91211400D02*
G75*
G02*
X279215600Y-91211400I2000000J0D01*
G01*
X318966600Y-110229400D02*
G75*
G02*
X314966600Y-110229400I-2000000J0D01*
G01*
X314966600Y-110229400D02*
G75*
G02*
X318966600Y-110229400I2000000J0D01*
G01*
X339453787Y-72331013D02*
X339453787Y-148056600D01*
X164814000Y-91211400D02*
G75*
G02*
X160814000Y-91211400I-2000000J0D01*
G01*
X160814000Y-91211400D02*
G75*
G02*
X164814000Y-91211400I2000000J0D01*
G01*
X193439800Y-110210600D02*
G75*
G02*
X189439800Y-110210600I-2000000J0D01*
G01*
X189439800Y-110210600D02*
G75*
G02*
X193439800Y-110210600I2000000J0D01*
G01*
X136416800Y-110312200D02*
G75*
G02*
X132416800Y-110312200I-2000000J0D01*
G01*
X132416800Y-110312200D02*
G75*
G02*
X136416800Y-110312200I2000000J0D01*
G01*
X338818787Y-71696013D02*
G75*
G02*
X339453787Y-72331013I13J-634987D01*
G01*
X219659200Y-138303000D02*
G75*
G02*
X215659200Y-138303000I-2000000J0D01*
G01*
X215659200Y-138303000D02*
G75*
G02*
X219659200Y-138303000I2000000J0D01*
G01*
X293414200Y-129228600D02*
G75*
G02*
X289414200Y-129228600I-2000000J0D01*
G01*
X289414200Y-129228600D02*
G75*
G02*
X293414200Y-129228600I2000000J0D01*
G01*
X339453787Y-148056600D02*
G75*
G02*
X338818787Y-148691587I-634987J0D01*
G01*
M02*
